SplineFontDB: 3.0
FontName: LinLibertineDisplayO
FullName: Linux Libertine Display O
FamilyName: Linux Libertine Display O
Weight: Book
Copyright: Linux Libertine by Philipp H. Poll,\nOpen Font under Terms of following Free Software Licenses:\nGPL (General Public License) with font-exception and OFL (Open Font License).\nCreated with FontForge (http://fontforge.sf.net)\nSept 2003, 2004, 2005, 2006, 2007, 2008, 2009, 2010, 2011,2012
UComments: "2003-08-29: Created.+AAoA-2004-07-25: v(1.0) release candidate+AAoA-2005-12-28: v(1.1.0) stable+AAoA-2006-01-01: v(2.0.0) stable+AAoA-2006-09-05: v(2.2.0) stable+AAoA-2006-12-04: v(2.3.0) stable+AAoA-2007-03-11: v(2.4.0) stable+AAoA-2007-12-00: v(2.7.0) stable+AAoA-2008-06-00: v(2.8.14) stable+AAoA" 
Version: 5.1.3
ItalicAngle: 0
UnderlinePosition: -98
UnderlineWidth: 40
Ascent: 754
Descent: 246
LayerCount: 2
Layer: 0 0 "Back"  1
Layer: 1 0 "Fore"  0
XUID: [1021 993 1524925707 2876416]
FSType: 0
OS2Version: 3
OS2_WeightWidthSlopeOnly: 0
OS2_UseTypoMetrics: 1
CreationTime: 1156455862
ModificationTime: 1341180398
PfmFamily: 17
TTFWeight: 400
TTFWidth: 5
LineGap: 0
VLineGap: 0
OS2TypoAscent: 894
OS2TypoAOffset: 0
OS2TypoDescent: -246
OS2TypoDOffset: 0
OS2TypoLinegap: 0
OS2WinAscent: 894
OS2WinAOffset: 0
OS2WinDescent: 246
OS2WinDOffset: 0
HheadAscent: 894
HheadAOffset: 0
HheadDescent: -246
HheadDOffset: 0
OS2FamilyClass: 261
OS2Vendor: 'PfEd'
Lookup: 3 0 0 "'aalt' Alle Alternativen zeigen"  {"'aalt' Alle Alternativen zeigen 1"  } ['aalt' ('DFLT' <'dflt' > 'cyrl' <'dflt' > 'grek' <'dflt' > 'latn' <'AZE ' 'CRT ' 'DEU ' 'MOL ' 'ROM ' 'TRK ' 'dflt' > ) ]
Lookup: 1 0 0 "'locl' Localized Forms Romaenisch"  {"'locl' Localized Forms Romaenisch 1"  } ['locl' ('latn' <'MOL ' 'ROM ' > ) ]
Lookup: 1 0 0 "'smcp' Gemeine nach Kapitaelchen i > i.sc"  {"'smcp' Gemeine nach Kapitaelchen i > i.sc 1"  } ['smcp' ('DFLT' <'dflt' > 'cyrl' <'dflt' > 'grek' <'dflt' > 'latn' <'DEU ' 'MOL ' 'ROM ' 'dflt' > ) ]

StartChar: exclam
Encoding: 33 33 0
Width: 288
VWidth: 999
Flags: HW
HStem: -5 100<105.006 183.198> 638 20G<132.5 155.5>
VStem: 93 102<404.035 646.654> 94 100<6.12776 83.2822>
LayerCount: 2
Fore
SplineSet
144 658 m 0
 167 658 195 639 195 585 c 0
 195 520 182 478 172 392 c 0
 160 284 159 224 157 210 c 0
 156 199 154 190 144 190 c 0
 134 190 132 197 131 203 c 0
 129 224 123 314 115 392 c 0
 106 480 93 515 93 585 c 0
 93 639 121 658 144 658 c 0
94 47 m 0
 94 71 122 95 146 95 c 0
 173 95 194 67 194 43 c 0
 194 21.9 170 -5 142 -5 c 0
 118 -5 94 21 94 47 c 0
EndSplineSet
Colour: ff9ccc
EndChar

StartChar: quotedbl
Encoding: 34 34 1
Width: 336
VWidth: 999
Flags: HW
HStem: 426 218<85.8119 118.678> 427 218<211.812 244.678>
VStem: 63 86<487.695 633.98> 189 86<488.695 634.98>
LayerCount: 2
Fore
SplineSet
215 427 m 1
 215 427 189 586 189 595 c 0
 189 617 210 645 240 645 c 0
 266 645 275 628 275 612 c 0
 275 596 242 431 242 431 c 1
 215 427 l 1
89 426 m 1
 89 426 63 585 63 594 c 0
 63 616 84 644 114 644 c 0
 140 644 149 627 149 611 c 0
 149 595 116 430 116 430 c 1
 89 426 l 1
EndSplineSet
Colour: ff00ff
EndChar

StartChar: numbersign
Encoding: 35 35 2
Width: 465
VWidth: 487
Flags: HW
HStem: 192 53<34 119 165 269 316 404> 360 53<61 146 191 297 342 430>
DStem2: 91 14 128 14 0.158856 0.987302<5.87769 180.188 239.822 350.344 409.819 585.275> 242 14 280 14 0.155524 0.987832<5.9099 180.033 239.698 350.344 409.697 585.12>
LayerCount: 2
Fore
SplineSet
279 245 m 1
 297 360 l 1
 184 360 l 1
 165 245 l 1
 279 245 l 1
335 360 m 1
 316 245 l 1
 411 245 l 1
 404 192 l 1
 310 192 l 1
 280 14 l 1
 242 14 l 1
 269 192 l 1
 157 192 l 1
 128 14 l 1
 91 14 l 1
 119 192 l 1
 26 192 l 1
 34 245 l 1
 128 245 l 1
 146 360 l 1
 53 360 l 1
 61 413 l 1
 154 413 l 1
 183 592 l 1
 221 592 l 1
 191 413 l 1
 305 413 l 1
 333 592 l 1
 371 592 l 1
 342 413 l 1
 438 413 l 1
 430 360 l 1
 335 360 l 1
EndSplineSet
EndChar

StartChar: dollar
Encoding: 36 36 3
Width: 464
VWidth: 999
Flags: HMW
HStem: -11 26<156.098 278.7> 579 25<175.802 261.195>
VStem: 21.3 22.5<131.901 167.627> 49 67<411.842 525.526> 346 77<79.4116 208.812> 380 22.5<443.535 473.014>
DStem2: 181.426 -94.6992 210.335 -96.9912 0.0793315 0.996848<0.00864029 373.112 446.789 773.086>
LayerCount: 2
Fore
SplineSet
229.4 15 m 0
 268.4 15 346 44 346 134 c 0
 346 221.9 282.4 250.8 239.3 267.2 c 1
 219.3 15.2 l 1
 222.6 15.1 226 15 229.4 15 c 0
190.4 18.3 m 1
 211.1 278.3 l 1
 148.8 305.4 49 347.6 49 453 c 0
 49 552 148 604 231.4 604 c 0
 233.3 604 235.1 604 237 604 c 1
 242.8 676 l 1
 271.7 673.7 l 1
 266 603 l 1
 329.5 599 334.7 583.9 384.6 577 c 1
 395 524 399 496 402.5 448 c 1
 393.5 441 391.5 442.2 380 442 c 1
 363 498.1 332.3 557.9 263.8 574.5 c 1
 245.6 346.2 l 1
 305.6 323.6 423 272.3 423 165 c 0
 423 129 408 -11 221 -11 c 0
 219.7 -11 218.5 -11 217.2 -11 c 1
 210.3 -97 l 1
 181.4 -94.7 l 1
 188.2 -9.9 l 1
 124.1 -5.3 95.8 12 41.3 12 c 1
 29.3 61 25.3 87 21.3 164 c 1
 30.9 169.1 31.5 171 43.8 167 c 1
 62.7 81.9 116.7 31.2 190.4 18.3 c 1
217.4 357.5 m 1
 235 578.7 l 1
 231.4 578.9 227.8 579 224 579 c 0
 167 579 116 533 116 463 c 0
 116 410.5 175.5 376 217.4 357.5 c 1
EndSplineSet
EndChar

StartChar: percent
Encoding: 37 37 4
Width: 637
VWidth: 999
Flags: HW
HStem: -12 23<453.781 507.794> 233 23<494.671 548.501> 303 23<131.893 186.047> 484 27<304.293 445.975> 548 23<172.879 228.08>
VStem: 57 54<339.893 483.813> 252 25<417.895 504.302> 378 55<26.2672 167.861> 573 25<101.088 208.212>
DStem2: 109 3 134 -12 0.583255 0.812289<2.39704 615.533 646.536 704.93>
LayerCount: 2
Fore
SplineSet
433 83 m 0
 433 31 458 11 477 11 c 0
 532 11 573 108 573 164 c 0
 573 216 537 233 523 233 c 0
 474 233 433 141 433 83 c 0
378 98 m 0
 378 180 438 256 512 256 c 0
 552 256 598 238 598 165 c 0
 598 98 554 -12 471 -12 c 0
 410 -12 378 45 378 98 c 0
364 511 m 0
 406 511 480 521 521 575 c 1
 544 559 l 1
 134 -12 l 1
 109 3 l 1
 468 503 l 1
 430 488 389 484 354 484 c 0
 331 484 293 494 274 505 c 1
 276 498 277 489 277 480 c 0
 277 416 233 303 149 303 c 0
 87 303 57 361 57 412 c 0
 57 500.1 118 571 190 571 c 0
 218 571 247 558 257 546 c 1
 311 521 325 511 364 511 c 0
111 398 m 0
 111 346 137 326 155 326 c 0
 210 326 252 421 252 479 c 0
 252 529 219 548 201 548 c 0
 152 548 111 456 111 398 c 0
EndSplineSet
EndChar

StartChar: parenleft
Encoding: 40 40 5
Width: 298
VWidth: 999
Flags: HW
VStem: 44 76<97.6984 405.148>
LayerCount: 2
Fore
SplineSet
44 252 m 0
 44 438 137 605 256 707 c 1
 267.4 706.2 266.6 699.3 270 689 c 1
 238 653 120 515 120 252 c 0
 120 -11 237 -149 270 -187 c 1
 267 -195 266 -202 256 -204 c 1
 48 -24 44 207 44 252 c 0
EndSplineSet
Substitution2: "'c2sc' Versale nach Kapitaelchen 1" parenleft.sc
AlternateSubs2: "'aalt' Alle Alternativen zeigen 1" parenleft.sc
Substitution2: "'sinf' Wissenschaftliche Indices 1" parenleft.inferior
Substitution2: "'sups' Hochgestellte 1" parenleft.superior
Substitution2: "'case' Versalformen 1" parenleft.sc
EndChar

StartChar: parenright
Encoding: 41 41 6
Width: 298
VWidth: 999
Flags: HW
VStem: 178 76<98.8522 406.302>
LayerCount: 2
Fore
SplineSet
254 252 m 0
 254 66 161 -101 42 -203 c 1
 30.6 -202.2 31.4 -195.3 28 -185 c 1
 60 -149 178 -11 178 252 c 0
 178 515 61 653 28 691 c 1
 31 699 32 706 42 708 c 1
 250 528 254 297 254 252 c 0
EndSplineSet
Substitution2: "'c2sc' Versale nach Kapitaelchen 1" parenright.sc
AlternateSubs2: "'aalt' Alle Alternativen zeigen 1" parenright.sc
Substitution2: "'sinf' Wissenschaftliche Indices 1" parenright.inferior
Substitution2: "'sups' Hochgestellte 1" parenright.superior
Substitution2: "'case' Versalformen 1" parenright.sc
Colour: ff00ff
EndChar

StartChar: asterisk
Encoding: 42 42 7
Width: 369
VWidth: 999
Flags: HMW
LayerCount: 2
Fore
SplineSet
168 547 m 1
 155 550 141 551 126 551 c 0
 77 551 45 558 45 588 c 0
 45 602 54 618 78 618 c 0
 112 618 130 585 174 567 c 1
 170 606 151 633 151 659 c 0
 151 680 163 698 181 698 c 0
 199 698 214 687 214 663 c 0
 214 636 197 596 195 566 c 1
 241 586 257 618 290 618 c 0
 317 618 324 598 324 588 c 0
 324 558 289 551 255 551 c 0
 236 551 218 550 200 547 c 1
 234 510 283 500 283 460 c 0
 283 442 268 431 254 431 c 0
 215 431 208 496 183 535 c 1
 158 490 151 431 113 431 c 0
 96 431 84 444 84 459 c 0
 84 502 135 510 168 547 c 1
EndSplineSet
EndChar

StartChar: plus
Encoding: 43 43 8
Width: 527
VWidth: 999
Flags: HMW
HStem: 210 44<66 239 285 461>
VStem: 239 46<34 210 254 431>
LayerCount: 2
Fore
SplineSet
285 254 m 1
 461 254 l 1
 461 210 l 1
 285 210 l 1
 285 34 l 1
 239 34 l 1
 239 210 l 1
 66 210 l 1
 66 254 l 1
 239 254 l 1
 239 431 l 1
 285 431 l 1
 285 254 l 1
EndSplineSet
AlternateSubs2: "'aalt' Alle Alternativen zeigen 1" plus.superior plus.inferior uni2098
Substitution2: "'sinf' Wissenschaftliche Indices 1" plus.inferior
Substitution2: "'sups' Hochgestellte 1" plus.superior
EndChar

StartChar: slash
Encoding: 47 47 9
Width: 317
VWidth: 999
Flags: HMW
HStem: 626 20G<245.277 293>
DStem2: 15 -59 56 -59 0.318647 0.947874<13.0645 743.77>
LayerCount: 2
Fore
SplineSet
288 646 m 1
 51 -59 l 1
 15 -59 l 1
 252 646 l 1
 288 646 l 1
EndSplineSet
Substitution2: "'sups' Hochgestellte 1" fraction
Ligature2: "'frac' Brueche 1" uni2215
AlternateSubs2: "'aalt' Alle Alternativen zeigen 1" uni2215
EndChar

StartChar: one
Encoding: 49 49 10
Width: 465
VWidth: 999
Flags: HW
HStem: -5 23<123.133 190.563 308.437 375.867> 590 20G<257.333 286.75>
VStem: 215.5 68<32.4207 512.708>
LayerCount: 2
Fore
SplineSet
285 109 m 0
 287.8 26 302 21 372 18 c 1
 378 12 378 1 372 -5 c 1
 322 -4 299.5 0 253 0 c 0
 203.8 0 176 -4 127 -5 c 1
 121 1 121 12 127 18 c 1
 197 21 211.2 26 214 109 c 0
 215 139 215.5 209.3 215.5 279.5 c 0
 215.5 349.7 215 425 214 455 c 0
 212.9 489 210.5 513 194 513 c 0
 175 513 152.5 507 107 488 c 1
 98 494.1 93.6 498.6 92 510 c 1
 180 551 229.7 575.7 285 610 c 1
 288.5 610 291 609.8 291 605 c 0
 289.3 592 287 531 285 471 c 0
 284 441 283.5 365.5 283.5 290 c 0
 283.5 214.5 284 139 285 109 c 0
EndSplineSet
Substitution2: "'case' Versalformen 1" one.cap
AlternateSubs2: "'aalt' Alle Alternativen zeigen 1" one.oldstyle one.superior one.fitted
Substitution2: "'sups' Hochgestellte 1" one.superior
Substitution2: "'sinf' Wissenschaftliche Indices 1" one.inferior
Substitution2: "'pnum' Proportionalziffern 1" one.fitted
Substitution2: "'onum' Minuskelziffern 1" one.taboldstyle
EndChar

StartChar: two
Encoding: 50 50 11
Width: 465
VWidth: 487
Flags: HW
HStem: 0 55<135 362.002> 436 21G<90.5 109.5> 585 25<169.348 265.667>
VStem: 61 70<55 86.125 453.596 533.813> 322 88<375.443 534.727> 393 19<127.576 160.756>
LayerCount: 2
Fore
SplineSet
61 468 m 0
 61 528 120 610 231 610 c 0
 312 610 410 566 410 458 c 0
 410 382 367 338 310 283 c 2
 209 186 l 2
 204 181 135 103 135 55 c 1
 323 55 l 2
 359 55 376 90 393 161 c 1
 403 163 406 161 412 156 c 1
 411 126 401 51 388 -2 c 1
 388 -2 342 0 310 0 c 2
 135 0 l 2
 103 0 62 -2 62 -2 c 1
 62 57 78 105 176 205 c 1
 250 278 l 1
 309 338 322 390 322 454 c 0
 322 550 261 585 225 585 c 0
 152 585 131 539 131 514 c 0
 131 506 137 497 139 490 c 0
 141 483 143 478 143 470 c 0
 143 451 118 436 101 436 c 0
 80 436 61 447 61 468 c 0
EndSplineSet
Substitution2: "'case' Versalformen 1" two.cap
AlternateSubs2: "'aalt' Alle Alternativen zeigen 1" two.oldstyle two.superior two.fitted
Substitution2: "'sups' Hochgestellte 1" two.superior
Substitution2: "'sinf' Wissenschaftliche Indices 1" two.inferior
Substitution2: "'pnum' Proportionalziffern 1" two.fitted
Substitution2: "'onum' Minuskelziffern 1" two.taboldstyle
EndChar

StartChar: three
Encoding: 51 51 12
Width: 465
VWidth: 487
Flags: HW
HStem: -11 25<162.154 247.227> 317 22<158.409 191.321> 585 25<173.36 262.941>
VStem: 51 73<451.833 536.318> 309 71<432.513 551.843> 335 82<108.579 271.424>
LayerCount: 2
Fore
SplineSet
219 585 m 0
 193 585 124 563 124 499 c 0
 124 480 114 447 85 447 c 0
 61 447 51 467 51 481 c 0
 51 514 93 610 240 610 c 0
 342 610 380 546 380 504 c 0
 380 470 375 424 280 364 c 1
 281 362 l 1
 340 352 417 311 417 202 c 0
 417 70 311 -11 192 -11 c 0
 132 -11 48 16 48 56 c 0
 48 72 69 91 90 91 c 0
 110 91 123 79 133 65 c 0
 145 47 154 14 205 14 c 0
 240 14 335 55 335 188 c 0
 335 301 260 319 203 319 c 0
 190 319 177 319 160 317 c 1
 155 339 l 1
 245 353 309 440 309 489 c 0
 309 551 263 585 219 585 c 0
EndSplineSet
Substitution2: "'case' Versalformen 1" three.cap
AlternateSubs2: "'aalt' Alle Alternativen zeigen 1" three.oldstyle three.superior three.fitted
Substitution2: "'sups' Hochgestellte 1" three.superior
Substitution2: "'sinf' Wissenschaftliche Indices 1" three.inferior
Substitution2: "'pnum' Proportionalziffern 1" three.fitted
Substitution2: "'onum' Minuskelziffern 1" three.taboldstyle
EndChar

StartChar: four
Encoding: 52 52 13
Width: 465
VWidth: 487
Flags: HW
HStem: -5 23<186.133 248.62 355.309 413.867> 172 37<64.2572 272.229 338.768 437.733> 590 20G<311.5 342>
VStem: 271 69<29.9697 172 209 514.017>
DStem2: 28 214 63 209 0.57767 0.81627<16.1371 385.269>
LayerCount: 2
Fore
SplineSet
272.4 209 m 1
 272.8 328 272.3 481.8 271 514 c 1
 202 419.8 114.3 291.2 63 209 c 1
 272.4 209 l 1
423 209 m 2
 434 209 438 203 438 193 c 0
 438 181 423 172 409 172 c 2
 338.8 172 l 1
 339 123.1 339.4 84.4 340 70 c 0
 341.9 23 361 22 410 18 c 1
 416 12 416 1 410 -5 c 1
 378 -4 347.4 0 308 0 c 0
 262 0 222 -4 190 -5 c 1
 184 1 184 12 190 18 c 1
 233 21 269.2 24 271 70 c 0
 271.6 84.4 272 123 272.2 172 c 1
 67 172 l 2
 37 172 31 199 28 214 c 1
 119.5 357 236 521.5 299 599 c 0
 302.7 603.5 308 610 315 610 c 2
 340 610 l 1
 342 608 l 1
 340.3 600.2 342 561 340 511 c 0
 338.7 478.9 338.2 327 338.6 209 c 1
 423 209 l 2
EndSplineSet
Substitution2: "'case' Versalformen 1" four.cap
AlternateSubs2: "'aalt' Alle Alternativen zeigen 1" four.oldstyle four.superior four.fitted
Substitution2: "'sups' Hochgestellte 1" four.superior
Substitution2: "'sinf' Wissenschaftliche Indices 1" four.inferior
Substitution2: "'pnum' Proportionalziffern 1" four.fitted
Substitution2: "'onum' Minuskelziffern 1" four.taboldstyle
EndChar

StartChar: five
Encoding: 53 53 14
Width: 465
VWidth: 487
Flags: HMW
HStem: -11 25<173.394 247.945> 351 40<121.777 264.656> 543 57<140.42 373.874>
VStem: 325 83<105.802 288.445>
DStem2: 76 327 121 375 0.121398 0.992604<53.1079 231.492>
LayerCount: 2
Fore
SplineSet
325 189 m 0
 325 298 268 351 203 351 c 0
 167 351 129 347 76 327 c 1
 110 605 l 1
 145 602 181 600 218 600 c 0
 271 600 325 605 382 611 c 1
 389 607 l 1
 373 549 l 1
 332 545 298 543 268 543 c 0
 220 543 178 548 141 552 c 1
 121 375 l 1
 139 382 186 391 229 391 c 0
 341 391 408 304 408 207 c 0
 408 81 320 -11 196 -11 c 0
 139 -11 54 23 54 64 c 0
 54 84 73 95 92 95 c 0
 113 95 130 80 143 63 c 0
 158 43 171 14 209 14 c 0
 269 14 325 94 325 189 c 0
EndSplineSet
Substitution2: "'case' Versalformen 1" five.cap
AlternateSubs2: "'aalt' Alle Alternativen zeigen 1" five.oldstyle five.superior five.fitted
Substitution2: "'sups' Hochgestellte 1" five.superior
Substitution2: "'sinf' Wissenschaftliche Indices 1" five.inferior
Substitution2: "'pnum' Proportionalziffern 1" five.fitted
Substitution2: "'onum' Minuskelziffern 1" five.taboldstyle
EndChar

StartChar: six
Encoding: 54 54 15
Width: 465
VWidth: 487
Flags: HW
HStem: -11 25<203.442 291.149> 345 25<178.862 279.141> 591 20G<305.5 360>
VStem: 44 77<108.251 349.574> 351 77<101.831 275.878>
LayerCount: 2
Fore
SplineSet
129.9 310.4 m 1
 123.5 280.4 121 252.4 121 229 c 0
 121 58 192 14 255 14 c 0
 304 14 351 73 351 183 c 0
 351 233 326 345 228 345 c 0
 207.9 345 167.6 343.1 129.9 310.4 c 1
137 339 m 1
 167.3 358.4 217.6 370 249 370 c 0
 385 370 428 288 428 202 c 0
 428 116 375 -11 244 -11 c 0
 167 -11 44 29 44 232 c 0
 44 311 75 402 137 474 c 0
 193 539 255 581 356 611 c 1
 364 606 362 597 362 585 c 1
 226.9 534.4 163.3 431 137 339 c 1
EndSplineSet
Substitution2: "'case' Versalformen 1" six.cap
AlternateSubs2: "'aalt' Alle Alternativen zeigen 1" six.oldstyle six.superior six.fitted
Substitution2: "'sups' Hochgestellte 1" six.superior
Substitution2: "'sinf' Wissenschaftliche Indices 1" six.inferior
Substitution2: "'pnum' Proportionalziffern 1" six.fitted
Substitution2: "'onum' Minuskelziffern 1" six.taboldstyle
EndChar

StartChar: seven
Encoding: 55 55 16
Width: 465
VWidth: 487
Flags: HW
HStem: -13 21G<127 195> 545 55<109.953 360.901> 591 20G<399.5 424>
VStem: 51 22<448.946 478.14>
LayerCount: 2
Fore
SplineSet
160 545 m 2
 128 545 95 528 73 448 c 1
 62 446.7 61.9 447.9 51 451 c 1
 59 503 70 563 71 611 c 0
 71 614 72 614 75 614 c 0
 93 610 91 600 125 600 c 2
 331 600 l 2
 369 600 391 606 408 611 c 1
 424 599 l 1
 312 326 252 160 195 -10 c 1
 135 -13 l 1
 127 -6 l 1
 195 146 284 351 362 545 c 1
 160 545 l 2
EndSplineSet
Substitution2: "'case' Versalformen 1" seven.cap
AlternateSubs2: "'aalt' Alle Alternativen zeigen 1" seven.oldstyle seven.superior seven.fitted
Substitution2: "'sups' Hochgestellte 1" seven.superior
Substitution2: "'sinf' Wissenschaftliche Indices 1" seven.inferior
Substitution2: "'pnum' Proportionalziffern 1" seven.fitted
Substitution2: "'onum' Minuskelziffern 1" seven.taboldstyle
EndChar

StartChar: nine
Encoding: 57 57 17
Width: 465
VWidth: 487
Flags: HW
HStem: -12 20<111 165.5> 229 25<191.859 292.138> 585 25<179.851 267.558>
VStem: 43 77<323.122 497.169> 350 77<249.426 490.749>
LayerCount: 2
Fore
SplineSet
341.1 288.6 m 1
 347.5 318.6 350 346.6 350 370 c 0
 350 541 279 585 216 585 c 0
 167 585 120 526 120 416 c 0
 120 366 145 254 243 254 c 0
 263.1 254 303.4 255.9 341.1 288.6 c 1
334 260 m 1
 303.7 240.6 253.4 229 222 229 c 0
 86 229 43 311 43 397 c 0
 43 483 96 610 227 610 c 0
 304 610 427 570 427 367 c 0
 427 288 396 197 334 125 c 0
 278 60 216 18 115 -12 c 1
 107 -7 109 2 109 14 c 1
 244.1 64.6 307.7 168 334 260 c 1
EndSplineSet
Substitution2: "'case' Versalformen 1" nine.cap
AlternateSubs2: "'aalt' Alle Alternativen zeigen 1" nine.oldstyle nine.superior nine.fitted
Substitution2: "'sups' Hochgestellte 1" nine.superior
Substitution2: "'sinf' Wissenschaftliche Indices 1" nine.inferior
Substitution2: "'pnum' Proportionalziffern 1" nine.fitted
Substitution2: "'onum' Minuskelziffern 1" nine.taboldstyle
Colour: ff00ff
EndChar

StartChar: colon
Encoding: 58 58 18
Width: 256
VWidth: 999
Flags: HW
HStem: 44 100<104.006 182.198> 307 100<104.006 182.198>
VStem: 93 100<55.1278 132.282 318.128 395.282>
LayerCount: 2
Fore
SplineSet
93 359 m 0
 93 383 121 407 145 407 c 0
 172 407 193 379 193 355 c 0
 193 333.9 169 307 141 307 c 0
 117 307 93 333 93 359 c 0
93 96 m 0
 93 120 121 144 145 144 c 0
 172 144 193 116 193 92 c 0
 193 70.9 169 44 141 44 c 0
 117 44 93 70 93 96 c 0
EndSplineSet
Colour: ff00ff
EndChar

StartChar: less
Encoding: 60 60 19
Width: 487
VWidth: 999
Flags: HW
HStem: 73 331
DStem2: 49 263 122 239 0.940425 0.34<60.4911 410.859> 122 239 49 215 0.939653 -0.34213<0 350.736>
LayerCount: 2
Fore
SplineSet
122 239 m 1
 439 123 l 1
 452 109 453 79 439 73 c 1
 49 215 l 1
 39.7 229.7 39.7 245.7 49 263 c 1
 439 404 l 1
 453 398 452 368 439 354 c 1
 122 239 l 1
EndSplineSet
EndChar

StartChar: equal
Encoding: 61 61 20
Width: 527
VWidth: 999
Flags: HW
HStem: 144 49<66 461> 269 49<66 461>
LayerCount: 2
Fore
SplineSet
461 318 m 1
 461 269 l 1
 66 269 l 1
 66 318 l 1
 461 318 l 1
461 193 m 1
 461 144 l 1
 66 144 l 1
 66 193 l 1
 461 193 l 1
EndSplineSet
AlternateSubs2: "'aalt' Alle Alternativen zeigen 1" equal.superior
Substitution2: "'sinf' Wissenschaftliche Indices 1" equal.inferior
Substitution2: "'sups' Hochgestellte 1" equal.superior
EndChar

StartChar: greater
Encoding: 62 62 21
Width: 487
VWidth: 999
Flags: HW
HStem: 71 331
DStem2: 366 236 439 260 0.939653 -0.34213<-350.736 0> 439 212 366 236 0.940425 0.34<-410.859 -60.4911>
LayerCount: 2
Fore
SplineSet
366 236 m 1
 49 352 l 1
 36 366 35 396 49 402 c 1
 439 260 l 1
 448.3 245.3 448.3 229.3 439 212 c 1
 49 71 l 1
 35 77 36 107 49 121 c 1
 366 236 l 1
EndSplineSet
Colour: ff00ff
EndChar

StartChar: question
Encoding: 63 63 22
Width: 420
VWidth: 487
Flags: HW
HStem: -5 100<149.006 227.198> 634 25<147.398 237.915>
VStem: 44 65<506.606 592.641> 138 100<6.12777 83.2822> 173 31<174.009 299.829> 295 76<432.41 583.607>
LayerCount: 2
Fore
SplineSet
109 572 m 0
 109 557 110 551 114 546 c 0
 118 541 120 535 120 522 c 0
 120 499 101 487 83 487 c 0
 68 487 44 495 44 530 c 0
 44 568 63 596 92 620 c 1
 120 645 160 659 211 659 c 0
 308 659 371 599 371 508 c 0
 371 429 312 385 267 351 c 0
 245 334 226 318 217 301 c 0
 205 276 204 252 204 228 c 2
 204 184 l 2
 204 177 196 174 188 174 c 0
 180 174 173 177 173 184 c 2
 173 230 l 2
 173 273 177 332 239 391 c 0
 277 428 295 457 295 504 c 0
 295 569 255 634 201 634 c 0
 147 634 109 602 109 572 c 0
138 47 m 0
 138 71 166 95 190 95 c 0
 217 95 238 67 238 43 c 0
 238 21.9 214 -5 186 -5 c 0
 162 -5 138 21 138 47 c 0
EndSplineSet
Colour: ff9ccc
EndChar

StartChar: at
Encoding: 64 64 23
Width: 895
VWidth: 999
Flags: HMW
HStem: -158 28<371.372 562.268> 27 35<379.946 447.029 549.503 668.313> 379 31<448.008 547.566> 585 26<369.743 538.693>
VStem: 59 74<106.415 345.19> 273 67<93.363 252.641> 515 62<62.2365 153.555> 765 74<177.345 388.73>
DStem2: 582 367 650 399 0.226513 0.974008<0 25.9358>
LayerCount: 2
Fore
SplineSet
569 316 m 0
 569 354 540 379 504 379 c 0
 487 379 441 370 411 339 c 0
 360 288 340 224 340 162 c 0
 340 114 361 68 424 68 c 0
 466.3 68 524.7 155.2 550.7 230.8 c 0
 560.4 258.9 569 291.8 569 316 c 0
577 74 m 0
 577 64 586 62 588 62 c 0
 690 62 765 109 765 275 c 0
 765 481 584 585 459 585 c 0
 307 585 133 478 133 241 c 0
 133 91 215 -130 473 -130 c 0
 558 -130 620 -102 674 -59 c 1
 687 -77 l 1
 627 -123 567 -158 454 -158 c 0
 215 -158 59 10 59 223 c 0
 59 438 244 611 469 611 c 0
 684 611 839 469 839 282 c 0
 839 168 769 27 551 27 c 0
 522 27 515 52 515 68 c 0
 515 83 522 106 530 131 c 1
 528 132 l 1
 484 58 430 27 395 27 c 0
 295 27 273 113 273 153 c 0
 273 296 400 410 506 410 c 0
 539 410 572 393 582 367 c 1
 589 392 l 1
 635 404 l 1
 650 399 l 1
 590 141 l 2
 583.7 114.1 577 80.5 577 74 c 0
EndSplineSet
EndChar

StartChar: A
Encoding: 65 65 24
Width: 699
VWidth: 999
Flags: HW
HStem: -5 23<5.63281 58.3144 161.826 220.367 436.633 506.769 639.689 696.367> 246 32<235.325 439.5> 638 20G<386 400.682>
DStem2: 109.484 92 147.5 69 0.391092 0.920352<-35.0279 195.03 229.853 516.471> 393.5 658 343.5 555 0.337975 -0.941155<80.0402 373.186 407.189 629.822>
AnchorPoint: "unten_punkt" 152.6 -110 basechar 0
AnchorPoint: "unten_anhang" -39.4 5 basechar 0
AnchorPoint: "top_akzent" 198.6 850 basechar 0
LayerCount: 2
Fore
SplineSet
260.5 278 m 2
 439.5 278 l 1
 343.5 555 l 1
 340.5 555 l 1
 235.3 296.3 l 2
 231.1 286.1 238.5 278 260.5 278 c 2
147.5 69 m 2
 131.3 27.3 178.9 20.6 216.5 18 c 1
 222.5 12 222.5 1 216.5 -5 c 1
 179.5 -4 149.5 0 108.5 0 c 0
 69.5 0 46.5 -4 9.5 -5 c 1
 3.5 1 3.5 12 9.5 18 c 1
 53 21 83.7 31.3 109.5 92 c 2
 341.5 638 l 1
 354.5 638 378.5 649 393.5 658 c 1
 602.5 76 l 2
 620.5 25 653.7 21.5 692.5 18 c 1
 698.5 12 698.5 1 692.5 -5 c 1
 655.5 -4 612.5 0 571.5 0 c 0
 532.5 0 477.5 -4 440.5 -5 c 1
 434.5 1 434.5 12 440.5 18 c 1
 488.1 21.4 528.6 21 514.5 62 c 2
 451 246 l 1
 242.5 246 l 2
 218.5 246 212.5 237 207.5 224 c 2
 147.5 69 l 2
EndSplineSet
Position2: "'cpsp' Versalabstaende 1" dx=2 dy=0 dh=5 dv=0
Substitution2: "'c2sc' Versale nach Kapitaelchen 1" a.sc
EndChar

StartChar: B
Encoding: 66 66 25
Width: 584
VWidth: 999
Flags: HW
HStem: -5 23<15.6328 83.4176 219.612 361.594> 337 24<187.549 333.596> 626 24<15.9888 84.9103 197.412 327.964>
VStem: 108.5 79<35.6889 337 360.997 612.475> 409.5 75<425.884 562.652> 456.5 87<94.8138 251.999>
AnchorPoint: "mittelpunkt" 145.5 185 basechar 0
AnchorPoint: "top_rechts" 508.5 732 basechar 0
AnchorPoint: "unten_punkt" 267.5 -110 basechar 0
AnchorPoint: "unten_anhang" 249.5 0 basechar 0
AnchorPoint: "top_akzent" 266.5 850 basechar 0
LayerCount: 2
Fore
SplineSet
187.5 361 m 1
 264.5 361 l 2
 347.5 361 409.5 396 409.5 481 c 0
 409.5 583 333.5 626 277.5 626 c 0
 190.5 626 190 616 189.5 583 c 0
 188.4 512.9 187.7 433.9 187.5 361 c 1
147.5 645 m 0
 190.5 645 237.5 650 272.5 650 c 0
 458.5 650 484.5 560 484.5 493 c 0
 484.5 438.7 442.6 387.4 392.5 362 c 1
 392.5 360 l 1
 479.5 335 543.5 280 543.5 184 c 0
 543.5 98 493.5 -5 294.5 -5 c 0
 205.5 -5 191.5 0 148.5 0 c 0
 97.8 0 68.5 -4 19.5 -5 c 1
 13.5 1 13.5 12 19.5 18 c 1
 89.5 21 104.8 25.3 106.5 109 c 0
 108.2 192 108.5 238 108.5 321 c 0
 108.5 404 107.8 453 106.5 536 c 0
 105.2 618.7 89.5 624 19.5 627 c 1
 13.5 633 13.5 644 19.5 650 c 1
 69.5 649 97.2 645 147.5 645 c 0
189.5 85 m 0
 190.2 52 203.5 18 273.5 18 c 0
 425.5 18 456.5 92 456.5 165 c 0
 456.5 255 396.5 337 259.5 337 c 2
 187.5 337 l 1
 187.5 331.7 187.5 326.5 187.5 321.3 c 0
 187.5 238.3 187.8 168 189.5 85 c 0
EndSplineSet
Position2: "'cpsp' Versalabstaende 1" dx=2 dy=0 dh=5 dv=0
Substitution2: "'c2sc' Versale nach Kapitaelchen 1" b.sc
EndChar

StartChar: C
Encoding: 67 67 26
Width: 650
VWidth: 999
Flags: HW
HStem: -10 31<285.751 447.073> 631 27<290.26 436.708>
VStem: 37 90<203.834 441.608> 580 23<454.584 484.514>
AnchorPoint: "mittelpunkt" 348 315 basechar 0
AnchorPoint: "top_rechts" 611 732 basechar 0
AnchorPoint: "unten_punkt" 365 -110 basechar 0
AnchorPoint: "unten_anhang" 358 -7 basechar 0
AnchorPoint: "top_akzent" 342 850 basechar 0
LayerCount: 2
Fore
SplineSet
351 -10 m 0
 136 -10 37 138.2 37 315 c 0
 37 503.4 164 658 362 658 c 0
 485 658 530 618 581 613 c 1
 591 558 598 510 603 458 c 1
 595.8 453.2 589.2 452.2 580 453 c 1
 554 539 495 631 357 631 c 0
 231.9 631 127 497.9 127 334 c 0
 127 188 205 31 360 31 c 0
 453 31 521 62 592 140 c 1
 603 140 610 134 615 125 c 1
 547 36 448 -10 351 -10 c 0
EndSplineSet
Position2: "'cpsp' Versalabstaende 1" dx=2 dy=0 dh=5 dv=0
Substitution2: "'c2sc' Versale nach Kapitaelchen 1" c.sc
EndChar

StartChar: D
Encoding: 68 68 27
Width: 705
VWidth: 999
Flags: HW
HStem: -5 24<16.4888 84.7557 227.239 401.619> 626 24<16.4888 84.7557 216.684 366.266>
VStem: 110 78<42.91 609.13> 579 90<178.393 416.821>
AnchorPoint: "mittelpunkt" 350 315 basechar 0
AnchorPoint: "top_rechts" 623 732 basechar 0
AnchorPoint: "unten_punkt" 283 -110 basechar 0
AnchorPoint: "unten_anhang" 283 1 basechar 0
AnchorPoint: "top_akzent" 310 850 basechar 0
LayerCount: 2
Fore
SplineSet
192 109 m 0
 194 47 201 19 309 19 c 0
 450 19 579 82 579 284 c 0
 579 438 500 626 284 626 c 0
 192 626 194 598 192 536 c 0
 190 452 188 403 188 320 c 0
 188 237 189 191 192 109 c 0
148 645 m 0
 186 645 254 650 322 650 c 0
 514 650 669 494 669 308 c 0
 669 62 481 -5 340 -5 c 0
 237 -5 186 0 150 0 c 0
 99 0 69 -4 20 -5 c 1
 14 1 14 12 20 18 c 1
 90 21 104 26 106 109 c 0
 108 192 110 238 110 321 c 0
 110 404 108 453 106 536 c 0
 104 619 90 624 20 627 c 1
 14 633 14 644 20 650 c 1
 70 649 98 645 148 645 c 0
EndSplineSet
Position2: "'cpsp' Versalabstaende 1" dx=2 dy=0 dh=5 dv=0
Substitution2: "'c2sc' Versale nach Kapitaelchen 1" d.sc
EndChar

StartChar: E
Encoding: 69 69 28
Width: 567
VWidth: 999
Flags: HMW
HStem: -5 23<16.1328 83.0803> 0 26<199.007 431.875> 328 28<188 375.75> 618 27<199.375 434.686> 627 23<16.1328 83.0803> 632 20G<483.5 493.5>
VStem: 108 79<30.3808 328 356 614.619> 396 22<256.032 304.748 375.022 427.968> 494 24<497.515 529.972>
AnchorPoint: "top_rechts" 292 732 basechar 0
AnchorPoint: "unten_anhang" 53 4 basechar 0
AnchorPoint: "unten_punkt" 57 -110 basechar 0
AnchorPoint: "top_akzent" 46 850 basechar 0
LayerCount: 2
Fore
SplineSet
304 357 m 2
 389 357.7 393 369 396 424 c 1
 402 430 412 430 418 424 c 1
 417 394 414 371.6 414 338 c 0
 414 307.5 417 295 418 260 c 1
 412 254 402 254 396 260 c 1
 393 305 389 326.3 304 327 c 2
 187 328 l 1
 187 328 186 153 189 69 c 0
 190 42 204 26 226 26 c 2
 382 26 l 2
 458 26 494 98 514 170 c 1
 527 173 528 171 538 165 c 1
 530 114 516 45 502 -5 c 1
 502 -5 422 0 374 0 c 2
 152 0 l 2
 122 0 69 -4 20 -5 c 1
 14 1 14 12 20 18 c 1
 90 21 103 26 106 109 c 0
 108 191 108 238 108 321 c 0
 108 404 108 454 106 536 c 0
 103 619 90 624 20 627 c 1
 14 633 14 644 20 650 c 1
 70 649 120 645 150 645 c 2
 442 645 l 2
 466 645 475 649 492 652 c 0
 495 652 496 651 496 649 c 0
 498 641 513 542 518 501 c 1
 508 496 506 494 494 496 c 1
 472 565 457 618 382 618 c 2
 226 618 l 2
 202 618 190 598 189 574 c 0
 186 492 187 356 187 356 c 1
 304 357 l 2
EndSplineSet
Position2: "'cpsp' Versalabstaende 1" dx=2 dy=0 dh=5 dv=0
Substitution2: "'c2sc' Versale nach Kapitaelchen 1" e.sc
EndChar

StartChar: F
Encoding: 70 70 29
Width: 497
VWidth: 999
Flags: HMW
HStem: -5 23<15.6328 83.144 222.846 299.3> 318 28<184.5 371.843> 618 27<195.829 400.398> 627 23<15.6328 83.134> 632 20G<449 459>
VStem: 108 79<39.9098 318 346 614.498> 391.5 23<246.133 295.939 363.908 417.867> 460.5 23<497.558 529.198>
AnchorPoint: "top_rechts" 292 732 basechar 0
AnchorPoint: "unten_anhang" 53 4 basechar 0
AnchorPoint: "unten_punkt" 52 -110 basechar 0
AnchorPoint: "top_akzent" 46 850 basechar 0
LayerCount: 2
Fore
SplineSet
189 109 m 0
 191 26 229 21 299 18 c 1
 305 12 305 1 299 -5 c 1
 250 -4 209.4 0 152 0 c 0
 100.5 0 69 -4 20 -5 c 1
 14 1 14 12 20 18 c 1
 90 21 103 26 106 109 c 0
 108 191 108 238 108 321 c 0
 108 404 108 454 106 536 c 0
 103 619 90 624 20 627 c 1
 14 633 14 644 20 650 c 1
 70 649 150 645 150 645 c 1
 412 645 l 2
 436 645 445 649 462 652 c 0
 465 652 466 651 466 649 c 0
 468 641 483 542 488 501 c 1
 478 496 476 494 464 496 c 1
 442 565 427 618 352 618 c 2
 226 618 l 2
 202 618 190 598 189 574 c 0
 186 492 187 346 187 346 c 1
 304 347 l 2
 389 347.7 393 359 396 414 c 1
 402 420 412 420 418 414 c 1
 417 384 414 361.6 414 328 c 0
 414 297.5 417 285 418 250 c 1
 412 244 402 244 396 250 c 1
 393 295 389 316.3 304 317 c 2
 187 318 l 1
 187 318 186 193 189 109 c 0
EndSplineSet
Position2: "'cpsp' Versalabstaende 1" dx=2 dy=0 dh=5 dv=0
Substitution2: "'c2sc' Versale nach Kapitaelchen 1" f.sc
EndChar

StartChar: G
Encoding: 71 71 30
Width: 710
VWidth: 999
Flags: HMW
HStem: -10 26<314.464 460.634> 284 26<454.361 523.245 630.397 668.639> 631 27<292.38 445.195>
VStem: 32 87<214.802 432.033> 540 79<83.4212 274.003>
AnchorPoint: "mittelpunkt" 159.6 335 basechar 0
AnchorPoint: "top_rechts" 482.6 732 basechar 0
AnchorPoint: "unten_anhang" 218.6 2 basechar 0
AnchorPoint: "unten_punkt" 218.6 -110 basechar 0
AnchorPoint: "top_akzent" 216.6 850 basechar 0
LayerCount: 2
Fore
SplineSet
374 658 m 0
 496 658 532 613 592 613 c 1
 599.2 577 606.2 527.5 614 459 c 1
 606.7 453.5 600 453 590 453 c 1
 564 539 505 631 360 631 c 0
 233 631 119 502 119 327 c 0
 119 195 214 16 392 16 c 0
 446 16 506 42 540 74 c 1
 540 236 l 2
 540 276.1 512.9 279.8 458 284 c 1
 452 290 452 304 458 310 c 1
 505 309 543 305 582 305 c 0
 622 305 635 309 665 310 c 1
 671 304 671 290 665 284 c 1
 636 281 619 271.2 619 236 c 2
 619 111 l 2
 619 100 624 92 635 83 c 1
 567 25 487 -10 369 -10 c 0
 168 -10 32 134 32 307 c 0
 32 527 202 658 374 658 c 0
EndSplineSet
Position2: "'cpsp' Versalabstaende 1" dx=2 dy=0 dh=5 dv=0
Substitution2: "'c2sc' Versale nach Kapitaelchen 1" g.sc
EndChar

StartChar: grave
Encoding: 96 96 31
Width: 392
VWidth: 999
Flags: HW
LayerCount: 2
Fore
SplineSet
178 647 m 1
 248 521 l 2
 253 511 254 504 254 497 c 0
 254 492 247 486 239 486 c 0
 233 486 226 491 210 506 c 2
 96 615 l 1
 98 626 l 1
 106 632 129 649 163 649 c 0
 168 649 174 648 178 647 c 1
EndSplineSet
Substitution2: "'case' Versalformen 1" uni0358
Colour: ff00ff
EndChar

StartChar: ograve
Encoding: 242 242 32
Width: 482
VWidth: 999
Flags: HW
HStem: -10 22<207.901 294.241> 397 22<183.865 273.526>
VStem: 39 76<110.22 300.9> 365 76<102.387 301.282>
AnchorPoint: "top_akzent" 255 834 basechar 0
AnchorPoint: "komb_OR" 420 396 basechar 0
LayerCount: 2
Fore
SplineSet
224 656 m 1
 294 530 l 2
 299 520 300 513 300 506 c 0
 300 501 293 495 285 495 c 0
 279 495 272 500 256 515 c 2
 142 624 l 1
 144 635 l 1
 152 641 175 658 209 658 c 0
 214 658 220 657 224 656 c 1
40 195 m 0
 40 255 58 311 93 352 c 0
 128 393 179 419 242 419 c 0
 388 419 442 303 442 204 c 0
 442 146 423 86 380 44 c 0
 347 12 301 -10 240 -10 c 0
 105 -10 40 98 40 195 c 0
228 396 m 0
 142 396 116 300 116 217 c 0
 116 144 155 13 254 13 c 0
 299 13 366 54 366 174 c 0
 366 311 310 396 228 396 c 0
EndSplineSet
Substitution2: "'smcp' Gemeine nach Kapitaelchen 1" ograve.sc
AlternateSubs2: "'aalt' Alle Alternativen zeigen 1" ograve.sc
Colour: ff00ff
EndChar

StartChar: oacute
Encoding: 243 243 33
Width: 482
VWidth: 999
Flags: HW
HStem: -10 22<207.901 294.241> 397 22<183.865 273.526>
VStem: 39 76<110.22 300.9> 365 76<102.387 301.282>
AnchorPoint: "top_akzent" 255 834 basechar 0
AnchorPoint: "komb_OR" 420 396 basechar 0
LayerCount: 2
Fore
SplineSet
270 656 m 1
 273 657 279 658 284 658 c 0
 290.4 658 316 657 339 635 c 1
 342 624 l 1
 227 515 l 2
 212 500 204 496 197 496 c 0
 190 496 183 502 183 509 c 0
 183 520.2 186.3 524.2 194.4 537 c 2
 270 656 l 1
40 195 m 0
 40 255 58 311 93 352 c 0
 128 393 179 419 242 419 c 0
 388 419 442 303 442 204 c 0
 442 146 423 86 380 44 c 0
 347 12 301 -10 240 -10 c 0
 105 -10 40 98 40 195 c 0
228 396 m 0
 142 396 116 300 116 217 c 0
 116 144 155 13 254 13 c 0
 299 13 366 54 366 174 c 0
 366 311 310 396 228 396 c 0
EndSplineSet
Substitution2: "'smcp' Gemeine nach Kapitaelchen 1" oacute.sc
AlternateSubs2: "'aalt' Alle Alternativen zeigen 1" oacute.sc
Colour: ff00ff
EndChar

StartChar: ocircumflex
Encoding: 244 244 34
Width: 482
VWidth: 999
Flags: HW
HStem: -10 22<208.901 295.241> 397 22<184.865 274.526>
VStem: 40 76<110.22 300.9> 115 253<539 539> 366 76<102.387 301.282>
AnchorPoint: "top_akzent" 255 833 basechar 0
AnchorPoint: "komb_OR" 420 396 basechar 0
LayerCount: 2
Fore
SplineSet
258 656 m 1
 287 609 331 556 367 516 c 1
 362 509 353.4 500.9 344 499 c 1
 306 523 271 551 241 582 c 1
 209 550 176 521 137 499 c 1
 128 501 121 507 115 516 c 1
 151 556 197 610 226 656 c 1
 236.7 658.3 247.2 658.5 258 656 c 1
40 195 m 0
 40 255 58 311 93 352 c 0
 128 393 179 419 242 419 c 0
 388 419 442 303 442 204 c 0
 442 146 423 86 380 44 c 0
 347 12 301 -10 240 -10 c 0
 105 -10 40 98 40 195 c 0
228 396 m 0
 142 396 116 300 116 217 c 0
 116 144 155 13 254 13 c 0
 299 13 366 54 366 174 c 0
 366 311 310 396 228 396 c 0
EndSplineSet
Substitution2: "'smcp' Gemeine nach Kapitaelchen 1" ocircumflex.sc
AlternateSubs2: "'aalt' Alle Alternativen zeigen 1" ocircumflex.sc
Colour: ff00ff
EndChar

StartChar: otilde
Encoding: 245 245 35
Width: 482
VWidth: 999
Flags: HW
HStem: -10 22<207.901 294.241> 397 22<183.865 273.526> 526 44<253 340> 574 46<135 226> 613 10
VStem: 39 76<110.22 300.9> 365 76<102.387 301.282>
AnchorPoint: "top_akzent" 255 834 basechar 0
AnchorPoint: "komb_OR" 420 396 basechar 0
LayerCount: 2
Fore
SplineSet
304 595 m 0
 326 595 337 605 351 647 c 1
 362 648 372 645 378 641 c 1
 366 581 337 542 291 542 c 0
 269 542 248 560 227 574 c 0
 209 585 190 593 173 593 c 0
 147 593 137 578 127 545 c 1
 116 543 106 544 100 550 c 1
 114 609 137 648 180 648 c 0
 210 648 232 628 252 614 c 0
 268 602 285 595 304 595 c 0
40 195 m 0
 40 255 58 311 93 352 c 0
 128 393 179 419 242 419 c 0
 388 419 442 303 442 204 c 0
 442 146 423 86 380 44 c 0
 347 12 301 -10 240 -10 c 0
 105 -10 40 98 40 195 c 0
228 396 m 0
 142 396 116 300 116 217 c 0
 116 144 155 13 254 13 c 0
 299 13 366 54 366 174 c 0
 366 311 310 396 228 396 c 0
EndSplineSet
Substitution2: "'smcp' Gemeine nach Kapitaelchen 1" otilde.sc
AlternateSubs2: "'aalt' Alle Alternativen zeigen 1" otilde.sc
Colour: ff00ff
EndChar

StartChar: odieresis
Encoding: 246 246 36
Width: 482
VWidth: 999
Flags: HW
HStem: -10 22<207.901 294.241> 397 22<183.865 273.526> 528 95<118.016 195.984 287.016 364.984>
VStem: 39 76<110.22 300.9> 110 94<535.394 615.312> 279 94<535.394 615.312> 365 76<102.387 301.282>
AnchorPoint: "top_akzent" 255 834 basechar 0
LayerCount: 2
Fore
SplineSet
110 575 m 0
 110 601 131 623 157 623 c 0
 183 623 204 601 204 575 c 0
 204 549 183 528 157 528 c 0
 131 528 110 549 110 575 c 0
279 575 m 0
 279 601 300 623 326 623 c 0
 352 623 373 601 373 575 c 0
 373 549 352 528 326 528 c 0
 300 528 279 549 279 575 c 0
40 195 m 0
 40 255 58 311 93 352 c 0
 128 393 179 419 242 419 c 0
 388 419 442 303 442 204 c 0
 442 146 423 86 380 44 c 0
 347 12 301 -10 240 -10 c 0
 105 -10 40 98 40 195 c 0
228 396 m 0
 142 396 116 300 116 217 c 0
 116 144 155 13 254 13 c 0
 299 13 366 54 366 174 c 0
 366 311 310 396 228 396 c 0
EndSplineSet
Substitution2: "'smcp' Gemeine nach Kapitaelchen 1" odieresis.sc
AlternateSubs2: "'aalt' Alle Alternativen zeigen 1" odieresis.sc
Colour: ff00ff
EndChar

StartChar: divide
Encoding: 247 247 37
Width: 527
VWidth: 999
Flags: HW
HStem: 53.6 88.8<229.666 300.725> 208 49<66 461> 321.6 88.8<229.666 300.725>
VStem: 220.8 88.8<62.5104 133.57 330.51 401.57>
LayerCount: 2
Fore
SplineSet
223.3 369.4 m 0
 223.3 389.5 246.8 409.6 266.9 409.6 c 0
 289.5 409.6 307.1 386.1 307.1 366 c 0
 307.1 348.3 287 325.8 263.5 325.8 c 0
 243.4 325.8 223.3 347.6 223.3 369.4 c 0
223.3 101.4 m 0
 223.3 121.5 246.8 141.6 266.9 141.6 c 0
 289.5 141.6 307.1 118.1 307.1 98 c 0
 307.1 80.3 287 57.8 263.5 57.8 c 0
 243.4 57.8 223.3 79.6 223.3 101.4 c 0
461 254 m 1
 461 210 l 1
 66 210 l 1
 66 254 l 1
 461 254 l 1
EndSplineSet
Colour: ff00ff
EndChar

StartChar: ugrave
Encoding: 249 249 38
Width: 507
VWidth: 999
Flags: HW
HStem: -10 35<190.4 275.97> 29 15<452.884 495.46> 391 23<21.1328 66.3358 289.133 334.746>
VStem: 84 69<60.6264 382.51> 352 69<75.2625 382.611>
AnchorPoint: "top_akzent" 255 834 basechar 0
LayerCount: 2
Fore
SplineSet
219 656 m 1
 289 530 l 2
 294 520 295 513 295 506 c 0
 295 501 288 495 280 495 c 0
 274 495 267 500 251 515 c 2
 137 624 l 1
 139 635 l 1
 147 641 170 658 204 658 c 0
 209 658 215 657 219 656 c 1
197 -10 m 0
 103 -10 81.4 54.1 84 120 c 0
 86 170 86 266 84 316 c 0
 81.5 378 71 387 25 391 c 1
 19 397 19 408 25 414 c 1
 60 413 85 412 116 412 c 0
 130 412 144 413 149 414 c 0
 154 414 157 411 157 408 c 2
 157 408 154.2 349 153 320 c 0
 151 270 151 183 153 133 c 0
 156.4 48.1 165.9 25 225 25 c 0
 249 25 296 50 331 81 c 0
 344 93 345.3 90 346 108 c 0
 348 158 348 264 346 314 c 0
 343.5 376.9 334 388 287 391 c 1
 281 397 281 408 287 414 c 1
 322 413 347 412 378 412 c 0
 392 412 407 413 412 414 c 0
 417 414 419 411 419 408 c 2
 419 408 416.2 349 415 320 c 0
 413 270 413 164 415 114 c 0
 416.9 67 424 49 485 44 c 1
 491 38 491 35 485 29 c 1
 427 22 400 7 379 -10 c 1
 372 -12 368 -13 361 -10 c 1
 361 -10 350 25 350 47 c 0
 350 54 341 52 336 48 c 0
 289 10 234 -10 197 -10 c 0
EndSplineSet
Substitution2: "'smcp' Gemeine nach Kapitaelchen 1" ugrave.sc
AlternateSubs2: "'aalt' Alle Alternativen zeigen 1" ugrave.sc
Colour: ff00ff
EndChar

StartChar: uacute
Encoding: 250 250 39
Width: 507
VWidth: 999
Flags: HW
HStem: -10 35<190.4 275.97> 29 15<452.884 495.46> 391 23<21.1328 66.3358 289.133 334.746>
VStem: 84 69<60.6264 382.51> 352 69<75.2625 382.611>
AnchorPoint: "top_akzent" 255 834 basechar 0
LayerCount: 2
Fore
SplineSet
297 656 m 1
 300 657 306 658 311 658 c 0
 317.4 658 343 657 366 635 c 1
 369 624 l 1
 254 515 l 2
 239 500 231 496 224 496 c 0
 217 496 210 502 210 509 c 0
 210 520.2 213.3 524.2 221.4 537 c 2
 297 656 l 1
197 -10 m 0
 103 -10 81.4 54.1 84 120 c 0
 86 170 86 266 84 316 c 0
 81.5 378 71 387 25 391 c 1
 19 397 19 408 25 414 c 1
 60 413 85 412 116 412 c 0
 130 412 144 413 149 414 c 0
 154 414 157 411 157 408 c 2
 157 408 154.2 349 153 320 c 0
 151 270 151 183 153 133 c 0
 156.4 48.1 165.9 25 225 25 c 0
 249 25 296 50 331 81 c 0
 344 93 345.3 90 346 108 c 0
 348 158 348 264 346 314 c 0
 343.5 376.9 334 388 287 391 c 1
 281 397 281 408 287 414 c 1
 322 413 347 412 378 412 c 0
 392 412 407 413 412 414 c 0
 417 414 419 411 419 408 c 2
 419 408 416.2 349 415 320 c 0
 413 270 413 164 415 114 c 0
 416.9 67 424 49 485 44 c 1
 491 38 491 35 485 29 c 1
 427 22 400 7 379 -10 c 1
 372 -12 368 -13 361 -10 c 1
 361 -10 350 25 350 47 c 0
 350 54 341 52 336 48 c 0
 289 10 234 -10 197 -10 c 0
EndSplineSet
Substitution2: "'smcp' Gemeine nach Kapitaelchen 1" uacute.sc
AlternateSubs2: "'aalt' Alle Alternativen zeigen 1" uacute.sc
Colour: ff00ff
EndChar

StartChar: ucircumflex
Encoding: 251 251 40
Width: 507
VWidth: 999
Flags: HW
HStem: -10 35<190.4 275.97> 29 15<452.884 495.46> 391 23<21.1328 66.3358 289.133 334.746>
VStem: 84 69<60.6264 382.51> 120 253<517 517> 352 69<75.2625 382.611>
AnchorPoint: "top_akzent" 247 834 basechar 0
LayerCount: 2
Fore
SplineSet
263 656 m 1
 292 609 336 556 372 516 c 1
 367 509 358.4 500.9 349 499 c 1
 311 523 276 551 246 582 c 1
 214 550 181 521 142 499 c 1
 133 501 126 507 120 516 c 1
 156 556 202 610 231 656 c 1
 241.7 658.3 252.2 658.5 263 656 c 1
197 -10 m 0
 103 -10 81.4 54.1 84 120 c 0
 86 170 86 266 84 316 c 0
 81.5 378 71 387 25 391 c 1
 19 397 19 408 25 414 c 1
 60 413 85 412 116 412 c 0
 130 412 144 413 149 414 c 0
 154 414 157 411 157 408 c 2
 157 408 154.2 349 153 320 c 0
 151 270 151 183 153 133 c 0
 156.4 48.1 165.9 25 225 25 c 0
 249 25 296 50 331 81 c 0
 344 93 345.3 90 346 108 c 0
 348 158 348 264 346 314 c 0
 343.5 376.9 334 388 287 391 c 1
 281 397 281 408 287 414 c 1
 322 413 347 412 378 412 c 0
 392 412 407 413 412 414 c 0
 417 414 419 411 419 408 c 2
 419 408 416.2 349 415 320 c 0
 413 270 413 164 415 114 c 0
 416.9 67 424 49 485 44 c 1
 491 38 491 35 485 29 c 1
 427 22 400 7 379 -10 c 1
 372 -12 368 -13 361 -10 c 1
 361 -10 350 25 350 47 c 0
 350 54 341 52 336 48 c 0
 289 10 234 -10 197 -10 c 0
EndSplineSet
Substitution2: "'smcp' Gemeine nach Kapitaelchen 1" ucircumflex.sc
AlternateSubs2: "'aalt' Alle Alternativen zeigen 1" ucircumflex.sc
Colour: ff00ff
EndChar

StartChar: ebreve
Encoding: 277 277 41
Width: 435
VWidth: 999
Flags: HW
HStem: -10 37<193.424 317.5> 230 29<114 320.699> 396 23<190.893 271.698> 482 57<163.292 295.981> 609 20<93 125.5 331 363>
VStem: 35 76<111.738 230 259 294.681> 93 27<594.641 620.111> 321 76<246 346.741> 336 27<593.798 620.111>
AnchorPoint: "ogonek" 361 42 basechar 0
AnchorPoint: "unten_anhang" 242 -2 basechar 0
AnchorPoint: "unten_punkt" 236 -110 basechar 0
AnchorPoint: "top_akzent" 227 795 basechar 0
LayerCount: 2
Fore
SplineSet
120 629 m 1
 131 576 174 539 228 539 c 0
 280 539 326 571 336 629 c 1
 363 617 l 1
 351 531 287 482 228 482 c 0
 158 482 107 532 93 617 c 1
 120 629 l 1
114 259 m 1
 307 264 l 2
 317 264.3 321 268 321 277 c 0
 321 357 277 396 231 396 c 0
 195 396 132 367 114 259 c 1
378 89 m 1
 389 88 395 83 398 73 c 1
 360 23 303 -10 231 -10 c 0
 162 -10 112 13 80 51 c 0
 49 87 35 140 35 193 c 0
 35 338 140.9 419 231 419 c 0
 364 419 397 331 397 251 c 0
 397 241 390 234.2 379 234 c 2
 111 230 l 1
 111 175 122 127 141 96 c 0
 171 47 221 27 255 27 c 0
 310 27 343 53 378 89 c 1
EndSplineSet
Colour: ff00ff
EndChar

StartChar: Edotaccent
Encoding: 278 278 42
Width: 567
VWidth: 999
Flags: HW
HStem: -5 23<16.1328 83.0803> 0 26<199.007 431.875> 328 28<188 375.75> 618 27<199.375 434.686> 627 23<16.1328 83.0803> 632 20<483.5 493.5> 746 104<262.542 345.458>
VStem: 108 79<30.3808 328 356 614.619> 252 104<756.542 839.458> 396 22<256.032 304.748 375.022 427.968> 494 24<497.515 529.972>
LayerCount: 2
Fore
SplineSet
252 798 m 0
 252 826 276 850 304 850 c 0
 332 850 356 826 356 798 c 0
 356 770 332 746 304 746 c 0
 276 746 252 770 252 798 c 0
304 357 m 2
 389 357.7 393 369 396 424 c 1
 402 430 412 430 418 424 c 1
 417 394 414 371.6 414 338 c 0
 414 307.5 417 295 418 260 c 1
 412 254 402 254 396 260 c 1
 393 305 389 326.3 304 327 c 2
 187 328 l 1
 187 328 186 153 189 69 c 0
 190 42 204 26 226 26 c 2
 382 26 l 2
 458 26 494 98 514 170 c 1
 527 173 528 171 538 165 c 1
 530 114 516 45 502 -5 c 1
 502 -5 422 0 374 0 c 2
 152 0 l 2
 122 0 69 -4 20 -5 c 1
 14 1 14 12 20 18 c 1
 90 21 103 26 106 109 c 0
 108 191 108 238 108 321 c 0
 108 404 108 454 106 536 c 0
 103 619 90 624 20 627 c 1
 14 633 14 644 20 650 c 1
 70 649 120 645 150 645 c 2
 442 645 l 2
 466 645 475 649 492 652 c 0
 495 652 496 651 496 649 c 0
 498 641 513 542 518 501 c 1
 508 496 506 494 494 496 c 1
 472 565 457 618 382 618 c 2
 226 618 l 2
 202 618 190 598 189 574 c 0
 186 492 187 356 187 356 c 1
 304 357 l 2
EndSplineSet
Position2: "'cpsp' Versalabstaende 1" dx=2 dy=0 dh=5 dv=0
Colour: ff00ff
EndChar

StartChar: edotaccent
Encoding: 279 279 43
Width: 435
VWidth: 999
Flags: HW
HStem: -10 37<193.424 317.5> 230 29<114 320.699> 396 23<190.893 271.698> 547 98<189.385 267.791>
VStem: 35 76<111.738 230 259 294.681> 181 98<557.729 636.615> 321 76<246 346.741>
AnchorPoint: "top_akzent" 230 795 basechar 0
AnchorPoint: "ogonek" 361 42 basechar 0
AnchorPoint: "unten_anhang" 242 -2 basechar 0
AnchorPoint: "unten_punkt" 236 -110 basechar 0
LayerCount: 2
Fore
SplineSet
180 599 m 0
 180 623 208 647 232 647 c 0
 259 647 280 619 280 595 c 0
 280 573.9 256 547 228 547 c 0
 204 547 180 573 180 599 c 0
114 259 m 1
 307 264 l 2
 317 264.3 321 268 321 277 c 0
 321 357 277 396 231 396 c 0
 195 396 132 367 114 259 c 1
378 89 m 1
 389 88 395 83 398 73 c 1
 360 23 303 -10 231 -10 c 0
 162 -10 112 13 80 51 c 0
 49 87 35 140 35 193 c 0
 35 338 140.9 419 231 419 c 0
 364 419 397 331 397 251 c 0
 397 241 390 234.2 379 234 c 2
 111 230 l 1
 111 175 122 127 141 96 c 0
 171 47 221 27 255 27 c 0
 310 27 343 53 378 89 c 1
EndSplineSet
Colour: ff00ff
EndChar

StartChar: Eogonek
Encoding: 280 280 44
Width: 567
VWidth: 999
Flags: HW
HStem: -200 38<376.958 460.272> -5 23<16.1328 83.0803> -2 17<449.123 475.439> 0 26<199.007 431.875> 328 28<188 375.75> 618 27<199.375 434.686> 627 23<16.1328 83.0803> 632 20<483.5 493.5>
VStem: 108 79<30.3808 328 356 614.619> 307.4 62<-155.299 -63.1465> 396 22<256.032 304.748 375.022 427.968> 494 24<497.515 529.972>
LayerCount: 2
Fore
SplineSet
505.4 -135 m 1
 476.4 -180 436.4 -200 395.4 -200 c 0
 345.4 -200 307.4 -180 307.4 -126 c 0
 307.4 -84.7 342.8 -27.5 402.8 -0.4 c 1
 392.6 -0.1 382.8 0 374 0 c 2
 152 0 l 2
 122 0 69 -4 20 -5 c 1
 14 1 14 12 20 18 c 1
 90 21 103 26 106 109 c 0
 108 191 108 238 108 321 c 0
 108 404 108 454 106 536 c 0
 103 619 90 624 20 627 c 1
 14 633 14 644 20 650 c 1
 70 649 120 645 150 645 c 2
 442 645 l 2
 466 645 475 649 492 652 c 0
 495 652 496 651 496 649 c 0
 498 641 513 542 518 501 c 1
 508 496 506 494 494 496 c 1
 472 565 457 618 382 618 c 2
 226 618 l 2
 202 618 190 598 189 574 c 0
 186 492 187 356 187 356 c 1
 304 357 l 2
 389 357.7 393 369 396 424 c 1
 402 430 412 430 418 424 c 1
 417 394 414 371.6 414 338 c 0
 414 307.5 417 295 418 260 c 1
 412 254 402 254 396 260 c 1
 393 305 389 326.3 304 327 c 2
 187 328 l 1
 187 328 186 153 189 69 c 0
 190 42 204 26 226 26 c 2
 382 26 l 2
 458 26 494 98 514 170 c 1
 527 173 528 171 538 165 c 1
 530 114 516 45 502 -5 c 1
 502 -5 489.9 -4.2 472.3 -3.3 c 1
 410.7 -12.9 369.4 -72.8 369.4 -115 c 0
 369.4 -141 382.4 -162 419.4 -162 c 0
 448.4 -162 464.4 -146 486.4 -124 c 1
 495.4 -124 501.4 -128 505.4 -135 c 1
EndSplineSet
Position2: "'cpsp' Versalabstaende 1" dx=2 dy=0 dh=5 dv=0
Substitution2: "'c2sc' Versale nach Kapitaelchen 1" eogonek.sc
Colour: ff9ccc
EndChar

StartChar: eogonek
Encoding: 281 281 45
Width: 435
VWidth: 999
Flags: HW
HStem: -200 38<244.519 327.833> -10 37<193.424 317.5> 230 29<114 320.699> 396 23<190.893 271.698>
VStem: 35 76<111.738 230 259 294.681> 175 62<-155.299 -67.0619> 321 76<246 346.741>
AnchorPoint: "unten_punkt" 70 -108 basechar 0
AnchorPoint: "top_akzent" 231 645 basechar 0
LayerCount: 2
Fore
SplineSet
373 -135 m 1
 344 -180 304 -200 263 -200 c 0
 213 -200 175 -180 175 -126 c 0
 175 -87.3 205.5 -46.7 250.8 -9.1 c 1
 244.3 -9.7 237.7 -10 231 -10 c 0
 162 -10 112 13 80 51 c 0
 49 87 35 140 35 193 c 0
 35 338 140.9 419 231 419 c 0
 364 419 397 331 397 251 c 0
 397 241 390 234.2 379 234 c 2
 111 230 l 1
 111 175 122 127 141 96 c 0
 171 47 221 27 255 27 c 0
 310 27 343 53 378 89 c 1
 389 88 395 83 398 73 c 1
 376.8 45.1 349.7 22.5 317.4 8 c 1
 262.4 -40.6 237 -74.4 237 -115 c 0
 237 -141 250 -162 287 -162 c 0
 316 -162 332 -146 354 -124 c 1
 363 -124 369 -128 373 -135 c 1
114 259 m 1
 307 264 l 2
 317 264.3 321 268 321 277 c 0
 321 357 277 396 231 396 c 0
 195 396 132 367 114 259 c 1
EndSplineSet
AlternateSubs2: "'aalt' Alle Alternativen zeigen 1" eogonek.sc
Substitution2: "'smcp' Gemeine nach Kapitaelchen 1" eogonek.sc
Colour: ff00ff
EndChar

StartChar: Ecaron
Encoding: 282 282 46
Width: 567
VWidth: 999
Flags: HW
HStem: -5 23<16.1328 83.0803> 0 26<199.007 431.875> 328 28<188 375.75> 618 27<199.375 434.686> 627 23<16.1328 83.0803> 632 20<483.5 493.5> 697 115
VStem: 108 79<30.3808 328 356 614.619> 171.4 244 396 22<256.032 304.748 375.022 427.968> 494 24<497.515 529.972>
LayerCount: 2
Fore
SplineSet
272.4 697 m 1
 242.4 734 207.4 764 171.4 792 c 1
 187.4 812 l 1
 226.4 795 260.4 776 293.4 751 c 1
 330.4 777 362.4 796 400.4 812 c 1
 415.4 792 l 1
 377.4 763 345.4 731 315.4 697 c 1
 272.4 697 l 1
304 357 m 2
 389 357.7 393 369 396 424 c 1
 402 430 412 430 418 424 c 1
 417 394 414 371.6 414 338 c 0
 414 307.5 417 295 418 260 c 1
 412 254 402 254 396 260 c 1
 393 305 389 326.3 304 327 c 2
 187 328 l 1
 187 328 186 153 189 69 c 0
 190 42 204 26 226 26 c 2
 382 26 l 2
 458 26 494 98 514 170 c 1
 527 173 528 171 538 165 c 1
 530 114 516 45 502 -5 c 1
 502 -5 422 0 374 0 c 2
 152 0 l 2
 122 0 69 -4 20 -5 c 1
 14 1 14 12 20 18 c 1
 90 21 103 26 106 109 c 0
 108 191 108 238 108 321 c 0
 108 404 108 454 106 536 c 0
 103 619 90 624 20 627 c 1
 14 633 14 644 20 650 c 1
 70 649 120 645 150 645 c 2
 442 645 l 2
 466 645 475 649 492 652 c 0
 495 652 496 651 496 649 c 0
 498 641 513 542 518 501 c 1
 508 496 506 494 494 496 c 1
 472 565 457 618 382 618 c 2
 226 618 l 2
 202 618 190 598 189 574 c 0
 186 492 187 356 187 356 c 1
 304 357 l 2
EndSplineSet
Position2: "'cpsp' Versalabstaende 1" dx=2 dy=0 dh=5 dv=0
Substitution2: "'c2sc' Versale nach Kapitaelchen 1" ecaron.sc
Colour: ff00ff
EndChar

StartChar: ecaron
Encoding: 283 283 47
Width: 435
VWidth: 999
Flags: HW
HStem: -10 37<193.424 317.5> 230 29<114 320.699> 396 23<190.893 271.698>
VStem: 35 76<111.738 230 259 294.681> 321 76<246 346.741>
LayerCount: 2
Fore
SplineSet
199 498 m 1
 170 545 133 590 98 628 c 1
 118 641 l 1
 157 612 190 587 224 551 c 1
 261 589 295 614 332 641 c 1
 351 628 l 1
 316 589 278 544 249 498 c 1
 199 498 l 1
114 259 m 1
 307 264 l 2
 317 264.3 321 268 321 277 c 0
 321 357 277 396 231 396 c 0
 195 396 132 367 114 259 c 1
378 89 m 1
 389 88 395 83 398 73 c 1
 360 23 303 -10 231 -10 c 0
 162 -10 112 13 80 51 c 0
 49 87 35 140 35 193 c 0
 35 338 140.9 419 231 419 c 0
 364 419 397 331 397 251 c 0
 397 241 390 234.2 379 234 c 2
 111 230 l 1
 111 175 122 127 141 96 c 0
 171 47 221 27 255 27 c 0
 310 27 343 53 378 89 c 1
EndSplineSet
AlternateSubs2: "'aalt' Alle Alternativen zeigen 1" ecaron.sc
Substitution2: "'smcp' Gemeine nach Kapitaelchen 1" ecaron.sc
Colour: ff00ff
EndChar

StartChar: Gcircumflex
Encoding: 284 284 48
Width: 710
VWidth: 999
Flags: HW
HStem: -10 26<314.464 460.634> 284 26<454.361 523.245 630.397 668.639> 631 27<292.38 445.195>
VStem: 32 87<214.802 432.033> 244.6 243 540 79<83.4212 274.003>
LayerCount: 2
Fore
SplineSet
384.6 808 m 1
 414.6 772 451.6 738 487.6 711 c 1
 484.8 701.9 480.7 693.8 471.6 690 c 1
 432.6 708 398.6 726 365.6 751 c 1
 328.6 724 296.6 707 258.6 690 c 1
 249.6 696 246.6 702 244.6 711 c 1
 281.6 739 314.6 774 345.6 808 c 1
 359.6 816.4 369.2 815.7 384.6 808 c 1
374 658 m 0
 496 658 532 613 592 613 c 1
 599.2 577 606.2 527.5 614 459 c 1
 606.7 453.5 600 453 590 453 c 1
 564 539 505 631 360 631 c 0
 233 631 119 502 119 327 c 0
 119 195 214 16 392 16 c 0
 446 16 506 42 540 74 c 1
 540 236 l 2
 540 276.1 512.9 279.8 458 284 c 1
 452 290 452 304 458 310 c 1
 505 309 543 305 582 305 c 0
 622 305 635 309 665 310 c 1
 671 304 671 290 665 284 c 1
 636 281 619 271.2 619 236 c 2
 619 111 l 2
 619 100 624 92 635 83 c 1
 567 25 487 -10 369 -10 c 0
 168 -10 32 134 32 307 c 0
 32 527 202 658 374 658 c 0
EndSplineSet
Position2: "'cpsp' Versalabstaende 1" dx=2 dy=0 dh=5 dv=0
Colour: ff00ff
EndChar

StartChar: gcircumflex
Encoding: 285 285 49
Width: 483
VWidth: 999
Flags: HW
HStem: -246 25<157.852 273.919> -11 52<170.821 350.015> 127 23<178.526 261.741> 396 23<172.904 254.896>
VStem: 29 64<-172.874 -61.5916> 55 57<51.3174 134.562> 60 72<198.018 349.579> 103 253<516 516> 307 72<199.945 352.654> 391 59<-139.244 -48.2085>
LayerCount: 2
Fore
SplineSet
246 633 m 1
 275 586 319 533 355 493 c 1
 350 486 341.4 477.9 332 476 c 1
 294 500 259 528 229 559 c 1
 197 527 164 498 125 476 c 1
 116 478 109 484 103 493 c 1
 139 533 185 587 214 633 c 1
 224.7 635.3 235.2 635.5 246 633 c 1
307 266 m 0
 307 345 272 396 212 396 c 0
 160 396 132 355 132 288 c 0
 132 227 144 150 224 150 c 0
 259 150 307 177 307 266 c 0
126 -10 m 1
 98 -43 93 -77 93 -109 c 0
 93 -174 147 -221 211 -221 c 0
 297 -221 391 -166 391 -97 c 0
 391 -72 379 -49 342 -28 c 0
 314 -13 282 -11 234 -11 c 0
 221 -11 194 -14 164 -14 c 0
 152 -14 136 -13 126 -10 c 1
423 369 m 0
 413 369 401 378 397 386 c 1
 391 395 385 398 378 398 c 0
 366 398 346 385 339 375 c 1
 367 346 379 321 379 276 c 0
 379 183 303 127 219 127 c 0
 182 127 156 137 133 150 c 1
 122 134 112 113 112 94 c 0
 112 59 148 34 176 34 c 0
 181 34 191 35 205 36 c 0
 228 39 252 41 269 41 c 0
 304 41 371 40 408 9 c 0
 436 -14 450 -41 450 -72 c 0
 450 -175 311 -246 182 -246 c 0
 109 -246 29 -211 29 -128 c 0
 29 -87 58 -34 109 -3 c 1
 80 7 55 31 55 71 c 0
 55 112 80 144 107 167 c 1
 80 193 60 223 60 274 c 0
 60 362 135 419 220 419 c 0
 276 419 308 400 319 392 c 1
 344 424 390 440 415 440 c 0
 441 440 459 425 459 405 c 0
 459 386 441 369 423 369 c 0
EndSplineSet
Colour: ff00ff
EndChar

StartChar: Gbreve
Encoding: 286 286 50
Width: 710
VWidth: 999
Flags: HW
HStem: -10 26<314.464 460.634> 284 26<454.361 523.245 630.397 668.639> 631 27<292.38 445.195> 693 52<284.342 442.092> 786 20<227.604 259.604 468.104 499.604>
VStem: 32 87<214.802 432.033> 227.6 28<781.047 806> 471.6 28<780.76 806> 540 79<83.4212 274.003>
LayerCount: 2
Fore
SplineSet
499.6 806 m 1
 493.6 735 429.6 693 363.6 693 c 0
 290.6 693 232.6 736 227.6 806 c 1
 255.6 806 l 1
 263.6 767 310.6 745 363.6 745 c 0
 412.6 745 464.6 767 471.6 806 c 1
 499.6 806 l 1
374 658 m 0
 496 658 532 613 592 613 c 1
 599.2 577 606.2 527.5 614 459 c 1
 606.7 453.5 600 453 590 453 c 1
 564 539 505 631 360 631 c 0
 233 631 119 502 119 327 c 0
 119 195 214 16 392 16 c 0
 446 16 506 42 540 74 c 1
 540 236 l 2
 540 276.1 512.9 279.8 458 284 c 1
 452 290 452 304 458 310 c 1
 505 309 543 305 582 305 c 0
 622 305 635 309 665 310 c 1
 671 304 671 290 665 284 c 1
 636 281 619 271.2 619 236 c 2
 619 111 l 2
 619 100 624 92 635 83 c 1
 567 25 487 -10 369 -10 c 0
 168 -10 32 134 32 307 c 0
 32 527 202 658 374 658 c 0
EndSplineSet
Position2: "'cpsp' Versalabstaende 1" dx=2 dy=0 dh=5 dv=0
Substitution2: "'c2sc' Versale nach Kapitaelchen 1" gbreve.sc
Colour: ff00ff
EndChar

StartChar: gbreve
Encoding: 287 287 51
Width: 483
VWidth: 999
Flags: HW
HStem: -246 25<157.852 273.919> -11 52<170.821 350.015> 127 23<178.526 261.741> 396 23<172.904 254.896> 478 57<155.292 287.981> 605 20<85 117.5 323 355>
VStem: 29 64<-172.874 -61.5916> 55 57<51.3174 134.562> 60 72<198.018 349.579> 85 27<590.641 616.111> 307 72<199.945 352.654> 328 27<589.798 616.111> 391 59<-139.244 -48.2085>
LayerCount: 2
Fore
SplineSet
112 625 m 1
 123 572 166 535 220 535 c 0
 272 535 318 567 328 625 c 1
 355 613 l 1
 343 527 279 478 220 478 c 0
 150 478 99 528 85 613 c 1
 112 625 l 1
307 266 m 0
 307 345 272 396 212 396 c 0
 160 396 132 355 132 288 c 0
 132 227 144 150 224 150 c 0
 259 150 307 177 307 266 c 0
126 -10 m 1
 98 -43 93 -77 93 -109 c 0
 93 -174 147 -221 211 -221 c 0
 297 -221 391 -166 391 -97 c 0
 391 -72 379 -49 342 -28 c 0
 314 -13 282 -11 234 -11 c 0
 221 -11 194 -14 164 -14 c 0
 152 -14 136 -13 126 -10 c 1
423 369 m 0
 413 369 401 378 397 386 c 1
 391 395 385 398 378 398 c 0
 366 398 346 385 339 375 c 1
 367 346 379 321 379 276 c 0
 379 183 303 127 219 127 c 0
 182 127 156 137 133 150 c 1
 122 134 112 113 112 94 c 0
 112 59 148 34 176 34 c 0
 181 34 191 35 205 36 c 0
 228 39 252 41 269 41 c 0
 304 41 371 40 408 9 c 0
 436 -14 450 -41 450 -72 c 0
 450 -175 311 -246 182 -246 c 0
 109 -246 29 -211 29 -128 c 0
 29 -87 58 -34 109 -3 c 1
 80 7 55 31 55 71 c 0
 55 112 80 144 107 167 c 1
 80 193 60 223 60 274 c 0
 60 362 135 419 220 419 c 0
 276 419 308 400 319 392 c 1
 344 424 390 440 415 440 c 0
 441 440 459 425 459 405 c 0
 459 386 441 369 423 369 c 0
EndSplineSet
AlternateSubs2: "'aalt' Alle Alternativen zeigen 1" gbreve.sc
Substitution2: "'smcp' Gemeine nach Kapitaelchen 1" gbreve.sc
Colour: ff00ff
EndChar

StartChar: Gdotaccent
Encoding: 288 288 52
Width: 710
VWidth: 999
Flags: HW
HStem: -10 26<314.464 460.634> 284 26<454.361 523.245 630.397 668.639> 631 27<292.38 445.195> 701 104<316.146 399.062>
VStem: 32 87<214.802 432.033> 305.6 104<711.542 794.458> 540 79<83.4212 274.003>
LayerCount: 2
Fore
SplineSet
305.6 911 m 0
 305.6 939 329.6 963 357.6 963 c 0
 385.6 963 409.6 939 409.6 911 c 0
 409.6 883 385.6 859 357.6 859 c 0
 329.6 859 305.6 883 305.6 911 c 0
374 658 m 0
 496 658 532 613 592 613 c 1
 599.2 577 606.2 527.5 614 459 c 1
 606.7 453.5 600 453 590 453 c 1
 564 539 505 631 360 631 c 0
 233 631 119 502 119 327 c 0
 119 195 214 16 392 16 c 0
 446 16 506 42 540 74 c 1
 540 236 l 2
 540 276.1 512.9 279.8 458 284 c 1
 452 290 452 304 458 310 c 1
 505 309 543 305 582 305 c 0
 622 305 635 309 665 310 c 1
 671 304 671 290 665 284 c 1
 636 281 619 271.2 619 236 c 2
 619 111 l 2
 619 100 624 92 635 83 c 1
 567 25 487 -10 369 -10 c 0
 168 -10 32 134 32 307 c 0
 32 527 202 658 374 658 c 0
EndSplineSet
Position2: "'cpsp' Versalabstaende 1" dx=2 dy=0 dh=5 dv=0
Colour: ff00ff
EndChar

StartChar: gdotaccent
Encoding: 289 289 53
Width: 483
VWidth: 999
Flags: HW
HStem: -246 25<157.852 273.919> -11 52<170.821 350.015> 127 23<178.526 261.741> 396 23<172.904 254.896> 547 98<179.385 257.791>
VStem: 29 64<-172.874 -61.5916> 55 57<51.3174 134.562> 60 72<198.018 349.579> 171 98<557.729 636.615> 307 72<199.945 352.654> 391 59<-139.244 -48.2085>
LayerCount: 2
Fore
SplineSet
170 599 m 0
 170 623 198 647 222 647 c 0
 249 647 270 619 270 595 c 0
 270 573.9 246 547 218 547 c 0
 194 547 170 573 170 599 c 0
307 266 m 0
 307 345 272 396 212 396 c 0
 160 396 132 355 132 288 c 0
 132 227 144 150 224 150 c 0
 259 150 307 177 307 266 c 0
126 -10 m 1
 98 -43 93 -77 93 -109 c 0
 93 -174 147 -221 211 -221 c 0
 297 -221 391 -166 391 -97 c 0
 391 -72 379 -49 342 -28 c 0
 314 -13 282 -11 234 -11 c 0
 221 -11 194 -14 164 -14 c 0
 152 -14 136 -13 126 -10 c 1
423 369 m 0
 413 369 401 378 397 386 c 1
 391 395 385 398 378 398 c 0
 366 398 346 385 339 375 c 1
 367 346 379 321 379 276 c 0
 379 183 303 127 219 127 c 0
 182 127 156 137 133 150 c 1
 122 134 112 113 112 94 c 0
 112 59 148 34 176 34 c 0
 181 34 191 35 205 36 c 0
 228 39 252 41 269 41 c 0
 304 41 371 40 408 9 c 0
 436 -14 450 -41 450 -72 c 0
 450 -175 311 -246 182 -246 c 0
 109 -246 29 -211 29 -128 c 0
 29 -87 58 -34 109 -3 c 1
 80 7 55 31 55 71 c 0
 55 112 80 144 107 167 c 1
 80 193 60 223 60 274 c 0
 60 362 135 419 220 419 c 0
 276 419 308 400 319 392 c 1
 344 424 390 440 415 440 c 0
 441 440 459 425 459 405 c 0
 459 386 441 369 423 369 c 0
EndSplineSet
Colour: ff00ff
EndChar

StartChar: Gcommaaccent
Encoding: 290 290 54
Width: 710
VWidth: 999
Flags: HW
HStem: -226 24<327.919 358.58> -123 82<332.928 397.944> -10 26<314.464 460.634> 284 26<454.361 523.245 630.397 668.639> 631 27<292.38 445.195>
VStem: 32 87<214.802 432.033> 399.6 39<-177.408 -99.958> 540 79<83.4212 274.003>
LayerCount: 2
Fore
SplineSet
376.6 -41 m 0
 414.6 -41 438.6 -75 438.6 -127 c 0
 438.6 -187 389.6 -217 332.6 -226 c 1
 326.6 -220 324.6 -211 324.6 -202 c 1
 373.6 -191 399.6 -167 399.6 -149 c 0
 399.6 -129 386.6 -125 368.6 -123 c 1
 351.6 -120 326.6 -111 326.6 -84 c 0
 326.6 -60 347.6 -41 376.6 -41 c 0
374 658 m 0
 496 658 532 613 592 613 c 1
 599.2 577 606.2 527.5 614 459 c 1
 606.7 453.5 600 453 590 453 c 1
 564 539 505 631 360 631 c 0
 233 631 119 502 119 327 c 0
 119 195 214 16 392 16 c 0
 446 16 506 42 540 74 c 1
 540 236 l 2
 540 276.1 512.9 279.8 458 284 c 1
 452 290 452 304 458 310 c 1
 505 309 543 305 582 305 c 0
 622 305 635 309 665 310 c 1
 671 304 671 290 665 284 c 1
 636 281 619 271.2 619 236 c 2
 619 111 l 2
 619 100 624 92 635 83 c 1
 567 25 487 -10 369 -10 c 0
 168 -10 32 134 32 307 c 0
 32 527 202 658 374 658 c 0
EndSplineSet
Position2: "'cpsp' Versalabstaende 1" dx=2 dy=0 dh=5 dv=0
Colour: ff00ff
EndChar

StartChar: gcommaaccent
Encoding: 291 291 55
Width: 483
VWidth: 999
Flags: HW
HStem: -246 25<157.852 273.919> -11 52<170.821 350.015> 127 23<178.526 261.741> 396 23<172.904 254.896> 511 82<200.44 272.661> 673 20<246.927 275.524>
VStem: 29 64<-172.874 -61.5916> 55 57<51.3174 134.562> 60 72<198.018 349.579> 166 34<566 641.371> 307 72<199.945 352.654> 391 59<-139.244 -48.2085>
LayerCount: 2
Fore
SplineSet
228 511 m 0
 189 511 166 548 166 584 c 0
 166 608 173 630 189 650 c 0
 205.9 671.1 234 688 272 693 c 1
 276 689 277 680 277 673 c 1
 220 661 200 629 200 606 c 0
 200 586.4 204.8 593 229 593 c 0
 269 593 279 569 279 552 c 0
 279 536 263 511 228 511 c 0
307 266 m 0
 307 345 272 396 212 396 c 0
 160 396 132 355 132 288 c 0
 132 227 144 150 224 150 c 0
 259 150 307 177 307 266 c 0
126 -10 m 1
 98 -43 93 -77 93 -109 c 0
 93 -174 147 -221 211 -221 c 0
 297 -221 391 -166 391 -97 c 0
 391 -72 379 -49 342 -28 c 0
 314 -13 282 -11 234 -11 c 0
 221 -11 194 -14 164 -14 c 0
 152 -14 136 -13 126 -10 c 1
423 369 m 0
 413 369 401 378 397 386 c 1
 391 395 385 398 378 398 c 0
 366 398 346 385 339 375 c 1
 367 346 379 321 379 276 c 0
 379 183 303 127 219 127 c 0
 182 127 156 137 133 150 c 1
 122 134 112 113 112 94 c 0
 112 59 148 34 176 34 c 0
 181 34 191 35 205 36 c 0
 228 39 252 41 269 41 c 0
 304 41 371 40 408 9 c 0
 436 -14 450 -41 450 -72 c 0
 450 -175 311 -246 182 -246 c 0
 109 -246 29 -211 29 -128 c 0
 29 -87 58 -34 109 -3 c 1
 80 7 55 31 55 71 c 0
 55 112 80 144 107 167 c 1
 80 193 60 223 60 274 c 0
 60 362 135 419 220 419 c 0
 276 419 308 400 319 392 c 1
 344 424 390 440 415 440 c 0
 441 440 459 425 459 405 c 0
 459 386 441 369 423 369 c 0
EndSplineSet
Colour: ff00ff
EndChar

StartChar: Hcircumflex
Encoding: 292 292 56
Width: 729
VWidth: 999
Flags: HW
HStem: -5 23<15.6328 83.3104 214.694 282.367 442.633 510.31 641.694 709.367> 329 26<189.098 535.864> 627 23<15.6328 83.3104 214.842 282.367 442.633 510.31 641.842 709.367>
VStem: 110 79<30.3891 325.368 358.471 614.607> 248.9 243 536 79<30.3891 325.24 358.164 614.607>
LayerCount: 2
Fore
SplineSet
191 109 m 0
 193 26 207 21 277 18 c 1
 283 12 283 1 277 -5 c 1
 227 -4 199 0 149 0 c 0
 98 0 69 -4 20 -5 c 1
 14 1 14 12 20 18 c 1
 90 21 104 26 106 109 c 0
 108 192 110 238 110 321 c 0
 110 404 108 453 106 536 c 0
 104 619 90 624 20 627 c 1
 14 633 14 644 20 650 c 1
 70 649 97 645 147 645 c 0
 198 645 228 649 277 650 c 1
 283 644 283 633 277 627 c 1
 207 624 193 619 191 536 c 0
 189 466 188 425 188 362 c 1
 195 357 292 355 352 355 c 0
 412 355 529 356 536 362 c 1
 536 424 536 466 534 536 c 0
 532 619 516 624 446 627 c 1
 440 633 440 644 446 650 c 1
 496 649 525 645 575 645 c 0
 626 645 656 649 705 650 c 1
 711 644 711 633 705 627 c 1
 635 624 619 619 617 536 c 0
 615 452 615 403 615 320 c 0
 615 237 615 191 617 109 c 0
 619 26 635 21 705 18 c 1
 711 12 711 1 705 -5 c 1
 655 -4 625 0 575 0 c 0
 524 0 495 -4 446 -5 c 1
 440 1 440 12 446 18 c 1
 516 21 532 26 534 109 c 0
 536 184 535 253 536 322 c 1
 524 328 411 329 351 329 c 0
 291 329 199 327 188 322 c 1
 188 242 189 193 191 109 c 0
388.9 806 m 1
 418.9 770 455.9 736 491.9 709 c 1
 489.1 699.9 485 691.8 475.9 688 c 1
 436.9 706 402.9 724 369.9 749 c 1
 332.9 722 300.9 705 262.9 688 c 1
 253.9 694 250.9 700 248.9 709 c 1
 285.9 737 318.9 772 349.9 806 c 1
 363.9 814.4 373.5 813.7 388.9 806 c 1
EndSplineSet
Position2: "'cpsp' Versalabstaende 1" dx=2 dy=0 dh=5 dv=0
Colour: ff00ff
EndChar

StartChar: hcircumflex
Encoding: 293 293 57
Width: 511
VWidth: 999
Flags: HW
HStem: -5 23<19.1328 72.242 173.902 219.867 299.777 345.83 449.982 499.223> 389 30<252.357 333.342> 654 19<23.7998 76.1763> 678 20<139 155.5>
VStem: 90 69<26.837 319.786 341.151 649.538> 144 243 362 70<26.8583 366.205>
LayerCount: 2
Fore
SplineSet
284 835 m 1
 314 799 351 765 387 738 c 1
 384.2 728.9 380.1 720.8 371 717 c 1
 332 735 298 753 265 778 c 1
 228 751 196 734 158 717 c 1
 149 723 146 729 144 738 c 1
 181 766 214 801 245 835 c 1
 259 843.4 268.6 842.7 284 835 c 1
157 273 m 2
 157 273 157 154 159 104 c 0
 162.2 25.1 168 22 216 18 c 1
 222 12 222 1 216 -5 c 1
 176 -4 162 0 125 0 c 0
 84 0 62 -4 23 -5 c 1
 17 1 17 12 23 18 c 1
 78 22 87.4 25 90 104 c 0
 92 164 92 516 90 576 c 0
 87.3 656 79 651 29 654 c 1
 23 660 21 665 23 673 c 1
 61 676 127 688 151 698 c 1
 160 698 163 696 163 689 c 0
 161.4 653.9 161.5 661 159 599 c 0
 157 549 156 341 156 341 c 2
 156 328 163 337 166 341 c 0
 224 406 283 419 330 419 c 0
 363 419 393 407 409 386 c 0
 431 357 434.1 310 432 258 c 0
 430 208 430 154 432 104 c 0
 435.1 26.1 443 23 496 18 c 1
 501 12 501 1 496 -5 c 1
 455 -4 437 0 398 0 c 0
 360 0 343 -4 303 -5 c 1
 298 1 298 12 303 18 c 1
 353 23 358.9 26.1 362 104 c 0
 364 154 364 211 362 261 c 0
 360.8 290 358 336 348 355 c 0
 337 377 316 389 297 389 c 0
 259 389 209 349 173 313 c 0
 165 305 157 293 157 273 c 2
EndSplineSet
Colour: ff00ff
EndChar

StartChar: Hbar
Encoding: 294 294 58
Width: 729
VWidth: 999
Flags: HW
HStem: -5 23<15.6328 83.3104 214.694 282.367 442.633 510.31 641.694 709.367> 329 26<189.098 535.864> 512 34<33.9385 698.938> 627 23<15.6328 83.3104 214.842 282.367 442.633 510.31 641.842 709.367>
VStem: 110 79<30.3891 325.368 358.471 614.607> 536 79<30.3891 325.24 358.164 614.607>
LayerCount: 2
Fore
SplineSet
191 109 m 0
 193 26 207 21 277 18 c 1
 283 12 283 1 277 -5 c 1
 227 -4 199 0 149 0 c 0
 98 0 69 -4 20 -5 c 1
 14 1 14 12 20 18 c 1
 90 21 104 26 106 109 c 0
 108 192 110 238 110 321 c 0
 110 395.7 108.4 442.8 106.6 512 c 1
 33.9 512 l 1
 33.9 546 l 1
 105.7 546 l 1
 102.7 619.4 87.1 624.1 20 627 c 1
 14 633 14 644 20 650 c 1
 70 649 97 645 147 645 c 0
 198 645 228 649 277 650 c 1
 283 644 283 633 277 627 c 1
 209.9 624.1 194.3 619.4 191.3 546 c 1
 533.7 546 l 1
 530.6 619.4 513.1 624.1 446 627 c 1
 440 633 440 644 446 650 c 1
 496 649 525 645 575 645 c 0
 626 645 656 649 705 650 c 1
 711 644 711 633 705 627 c 1
 637.9 624.1 620.4 619.4 617.3 546 c 1
 698.9 546 l 1
 698.9 512 l 1
 616.5 512 l 1
 615 442 615 394.8 615 320 c 0
 615 237 615 191 617 109 c 0
 619 26 635 21 705 18 c 1
 711 12 711 1 705 -5 c 1
 655 -4 625 0 575 0 c 0
 524 0 495 -4 446 -5 c 1
 440 1 440 12 446 18 c 1
 516 21 532 26 534 109 c 0
 536 184 535 253 536 322 c 1
 524 328 411 329 351 329 c 0
 291 329 199 327 188 322 c 1
 188 242 189 193 191 109 c 0
534.6 512 m 1
 190.3 512 l 1
 188.8 455.9 188 417.5 188 362 c 1
 195 357 292 355 352 355 c 0
 412 355 529 356 536 362 c 1
 536 416.6 534.6 455.7 534.6 512 c 1
EndSplineSet
Position2: "'cpsp' Versalabstaende 1" dx=2 dy=0 dh=5 dv=0
Colour: ff9ccc
EndChar

StartChar: hbar
Encoding: 295 295 59
Width: 511
VWidth: 999
Flags: HW
HStem: -5 23<19.1328 72.242 173.902 219.867 299.777 345.83 449.982 499.223> 389 30<252.357 333.342> 538 31<21.75 276.936> 654 19<23.7998 76.1763> 678 20<139 155.5>
VStem: 90 69<26.837 319.786 341.151 649.538> 362 70<26.8583 366.205>
LayerCount: 2
Fore
SplineSet
273 569 m 2
 278 569 280.7 567 280 563 c 2
 277 546 l 2
 275.8 539.1 265 538 256 538 c 2
 157.7 538 l 1
 156.6 458.4 156 341 156 341 c 2
 156 328 163 337 166 341 c 0
 224 406 283 419 330 419 c 0
 363 419 393 407 409 386 c 0
 431 357 434.1 310 432 258 c 0
 430 208 430 154 432 104 c 0
 435.1 26.1 443 23 496 18 c 1
 501 12 501 1 496 -5 c 1
 455 -4 437 0 398 0 c 0
 360 0 343 -4 303 -5 c 1
 298 1 298 12 303 18 c 1
 353 23 358.9 26.1 362 104 c 0
 364 154 364 211 362 261 c 0
 360.8 290 358 336 348 355 c 0
 337 377 316 389 297 389 c 0
 259 389 209 349 173 313 c 0
 165 305 157 293 157 273 c 2
 157 273 157 154 159 104 c 0
 162.2 25.1 168 22 216 18 c 1
 222 12 222 1 216 -5 c 1
 176 -4 162 0 125 0 c 0
 84 0 62 -4 23 -5 c 1
 17 1 17 12 23 18 c 1
 78 22 87.4 25 90 104 c 0
 91.7 156 92 427.6 90.7 538 c 1
 25 538 l 2
 21 538 19 538.6 20 544 c 2
 22 555 l 2
 23.6 564.1 27 569 44 569 c 2
 90.2 569 l 1
 90.1 571.6 90.1 574 90 576 c 0
 87.3 656 79 651 29 654 c 1
 23 660 21 665 23 673 c 1
 61 676 127 688 151 698 c 1
 160 698 163 696 163 689 c 0
 161.4 653.9 161.5 661 159 599 c 0
 158.7 591.9 158.4 581.5 158.2 569 c 1
 273 569 l 2
EndSplineSet
Colour: ff9ccc
EndChar

StartChar: Itilde
Encoding: 296 296 60
Width: 303
VWidth: 999
Flags: HW
HStem: -5 23<15.6328 83.3107 214.694 282.367> 627 23<15.6328 83.3107 214.842 282.367> 725 53<157.899 247.924> 776 55<47.197 140.118>
VStem: 109.5 79<33.5092 611.486>
LayerCount: 2
Fore
SplineSet
213.4 768 m 0
 235.4 768 246.4 778 260.4 820 c 1
 271.4 821 281.4 818 287.4 814 c 1
 275.4 754 246.4 715 200.4 715 c 0
 178.4 715 157.4 733 136.4 747 c 0
 118.4 758 99.4 766 82.4 766 c 0
 56.4 766 46.4 751 36.4 718 c 1
 25.4 716 15.4 717 9.4 723 c 1
 23.4 782 46.4 821 89.4 821 c 0
 119.4 821 141.4 801 161.4 787 c 0
 177.4 775 194.4 768 213.4 768 c 0
192 109 m 0
 194 26 208.5 21 278.5 18 c 1
 284.5 12 284.5 1 278.5 -5 c 1
 237.5 -2 179.5 0 149.5 0 c 0
 119.5 0 58.5 -3 19.5 -5 c 1
 13.5 1 13.5 12 19.5 18 c 1
 89.5 21 105 26 107 109 c 0
 109 192 110 238 110 321 c 0
 110 404 109 453 107 536 c 0
 105 619 89.5 621 19.5 627 c 1
 13.5 633 13.5 644 19.5 650 c 1
 51.5 648 119 645 149 645 c 0
 179 645 241.5 648 278.5 650 c 1
 284.5 644 284.5 633 278.5 627 c 1
 208.5 622 194.5 619 192 536 c 0
 189.5 452 189 403 189 320 c 0
 189 237 190 191.5 192 109 c 0
EndSplineSet
Position2: "'cpsp' Versalabstaende 1" dx=2 dy=0 dh=5 dv=0
Colour: ff00ff
EndChar

StartChar: itilde
Encoding: 297 297 61
Width: 267
VWidth: 999
Flags: HW
HStem: -5 23<27.1328 83.6629 195.183 251.867> 375 18<35.9609 81.8828> 402 20<154.75 173> 504 53<134.115 215.137> 555 55<34.4831 118.112>
VStem: 105 69<29.5425 365.935>
AnchorPoint: "unten_anhang" 142 -2 basechar 0
AnchorPoint: "unten_punkt" 136 -110 basechar 0
AnchorPoint: "top_akzent" 139 795 basechar 0
LayerCount: 2
Fore
SplineSet
184.1 547 m 0
 203.9 547 213.8 557 226.4 599 c 1
 236.3 600 245.3 597 250.7 593 c 1
 239.9 533 213.8 494 172.4 494 c 0
 152.6 494 133.7 512 114.8 526 c 0
 98.6 537 81.5 545 66.2 545 c 0
 42.8 545 33.8 530 24.8 497 c 1
 14.9 495 5.9 496 0.5 502 c 1
 13.1 561 33.8 600 72.5 600 c 0
 99.5 600 119.3 580 137.3 566 c 0
 151.7 554 167 547 184.1 547 c 0
176 109 m 0
 179 25 187 22 248 18 c 1
 254 12 254 1 248 -5 c 1
 218 -3 171 0 140 0 c 0
 110.3 0 57 -3 31 -5 c 1
 25 1 25 12 31 18 c 1
 92 23 100.5 26 103 109 c 0
 103.9 139 105 190.5 105 220.5 c 0
 105 250.5 104.5 277 103 307 c 0
 100 365 92.5 369.9 38 375 c 1
 36 381 34 387 36 393 c 1
 105 402 140.5 411 169 422 c 1
 177 422 182 419 182 415 c 2
 182 415 178.5 360.9 176 311.3 c 0
 174.5 281 174 249.5 174 219.5 c 0
 174 189.5 174.9 139 176 109 c 0
EndSplineSet
Colour: ff00ff
EndChar

StartChar: Imacron
Encoding: 298 298 62
Width: 303
VWidth: 999
Flags: HW
HStem: -5 23<15.6328 83.3107 214.694 282.367> 627 23<15.6328 83.3107 214.842 282.367> 745 50<20.3287 277.028>
VStem: 18.4 261<745.239 795> 109.5 79<33.5092 611.486>
LayerCount: 2
Fore
SplineSet
255.4 697 m 2
 31.4 697 l 2
 22.4 697 18.4 708 18.4 715 c 0
 18.4 727 29.4 747 40.4 747 c 2
 265.4 747 l 2
 275.4 747 279.4 736 279.4 730 c 0
 279.4 718 268.4 697 255.4 697 c 2
192 109 m 0
 194 26 208.5 21 278.5 18 c 1
 284.5 12 284.5 1 278.5 -5 c 1
 237.5 -2 179.5 0 149.5 0 c 0
 119.5 0 58.5 -3 19.5 -5 c 1
 13.5 1 13.5 12 19.5 18 c 1
 89.5 21 105 26 107 109 c 0
 109 192 110 238 110 321 c 0
 110 404 109 453 107 536 c 0
 105 619 89.5 621 19.5 627 c 1
 13.5 633 13.5 644 19.5 650 c 1
 51.5 648 119 645 149 645 c 0
 179 645 241.5 648 278.5 650 c 1
 284.5 644 284.5 633 278.5 627 c 1
 208.5 622 194.5 619 192 536 c 0
 189.5 452 189 403 189 320 c 0
 189 237 190 191.5 192 109 c 0
EndSplineSet
Position2: "'cpsp' Versalabstaende 1" dx=2 dy=0 dh=5 dv=0
Colour: ff00ff
EndChar

StartChar: imacron
Encoding: 299 299 63
Width: 267
VWidth: 999
Flags: HW
HStem: -5 23<27.1328 83.6629 195.183 251.867> 375 18<35.9609 81.8828> 402 20<154.75 173> 560 50<8.30163 239.331>
VStem: 6.6 234.9<560.239 610> 105 69<29.5425 365.935>
LayerCount: 2
Fore
SplineSet
219.9 510 m 2
 18.3 510 l 2
 10.2 510 6.6 521 6.6 528 c 0
 6.6 540 16.5 560 26.4 560 c 2
 228.9 560 l 2
 237.9 560 241.5 549 241.5 543 c 0
 241.5 531 231.6 510 219.9 510 c 2
176 109 m 0
 179 25 187 22 248 18 c 1
 254 12 254 1 248 -5 c 1
 218 -3 171 0 140 0 c 0
 110.3 0 57 -3 31 -5 c 1
 25 1 25 12 31 18 c 1
 92 23 100.5 26 103 109 c 0
 103.9 139 105 190.5 105 220.5 c 0
 105 250.5 104.5 277 103 307 c 0
 100 365 92.5 369.9 38 375 c 1
 36 381 34 387 36 393 c 1
 105 402 140.5 411 169 422 c 1
 177 422 182 419 182 415 c 2
 182 415 178.5 360.9 176 311.3 c 0
 174.5 281 174 249.5 174 219.5 c 0
 174 189.5 174.9 139 176 109 c 0
EndSplineSet
Colour: ff00ff
EndChar

StartChar: Ibreve
Encoding: 300 300 64
Width: 303
VWidth: 999
Flags: HW
HStem: -5 23<15.6328 83.3107 214.694 282.367> 627 23<15.6328 83.3107 214.842 282.367> 692 52<70.176 227.926> 785 20<13.438 45.438 253.938 285.438>
VStem: 13.4 28<780.047 805> 109.5 79<33.5092 611.486> 257.4 28<779.76 805>
LayerCount: 2
Fore
SplineSet
285.4 805 m 1
 279.4 734 215.4 692 149.4 692 c 0
 76.4 692 18.4 735 13.4 805 c 1
 41.4 805 l 1
 49.4 766 96.4 744 149.4 744 c 0
 198.4 744 250.4 766 257.4 805 c 1
 285.4 805 l 1
192 109 m 0
 194 26 208.5 21 278.5 18 c 1
 284.5 12 284.5 1 278.5 -5 c 1
 237.5 -2 179.5 0 149.5 0 c 0
 119.5 0 58.5 -3 19.5 -5 c 1
 13.5 1 13.5 12 19.5 18 c 1
 89.5 21 105 26 107 109 c 0
 109 192 110 238 110 321 c 0
 110 404 109 453 107 536 c 0
 105 619 89.5 621 19.5 627 c 1
 13.5 633 13.5 644 19.5 650 c 1
 51.5 648 119 645 149 645 c 0
 179 645 241.5 648 278.5 650 c 1
 284.5 644 284.5 633 278.5 627 c 1
 208.5 622 194.5 619 192 536 c 0
 189.5 452 189 403 189 320 c 0
 189 237 190 191.5 192 109 c 0
EndSplineSet
Position2: "'cpsp' Versalabstaende 1" dx=2 dy=0 dh=5 dv=0
Colour: ff00ff
EndChar

StartChar: ibreve
Encoding: 301 301 65
Width: 267
VWidth: 999
Flags: HW
HStem: -5 23<27.1328 83.6629 195.183 251.867> 375 18<35.9609 81.8828> 402 20<154.75 173> 484 57<67.1628 186.583> 611 20<3.9 33.15 218.1 246.9>
VStem: 3.9 24.3<596.641 622.111> 105 69<29.5425 365.935> 222.6 24.3<595.798 622.111>
LayerCount: 2
Fore
SplineSet
28.2 631 m 1
 38.1 578 76.8 541 125.4 541 c 0
 172.2 541 213.6 573 222.6 631 c 1
 246.9 619 l 1
 236.1 533 178.5 484 125.4 484 c 0
 62.4 484 16.5 534 3.9 619 c 1
 28.2 631 l 1
176 109 m 0
 179 25 187 22 248 18 c 1
 254 12 254 1 248 -5 c 1
 218 -3 171 0 140 0 c 0
 110.3 0 57 -3 31 -5 c 1
 25 1 25 12 31 18 c 1
 92 23 100.5 26 103 109 c 0
 103.9 139 105 190.5 105 220.5 c 0
 105 250.5 104.5 277 103 307 c 0
 100 365 92.5 369.9 38 375 c 1
 36 381 34 387 36 393 c 1
 105 402 140.5 411 169 422 c 1
 177 422 182 419 182 415 c 2
 182 415 178.5 360.9 176 311.3 c 0
 174.5 281 174 249.5 174 219.5 c 0
 174 189.5 174.9 139 176 109 c 0
EndSplineSet
Colour: ff00ff
EndChar

StartChar: Iogonek
Encoding: 302 302 66
Width: 303
VWidth: 999
Flags: HW
HStem: -200 38<152.957 236.271> -5 23<15.6328 83.3107 214.694 282.367> -2 17<225.122 251.438> 627 23<15.6328 83.3107 214.842 282.367>
VStem: 83.4 62<-155.299 -63.1465> 109.5 79<33.5092 611.486>
AnchorPoint: "top_akzent" 146 850 basechar 0
LayerCount: 2
Fore
SplineSet
281.4 -135 m 1
 252.4 -180 212.4 -200 171.4 -200 c 0
 121.4 -200 83.4 -180 83.4 -126 c 0
 83.4 -84.7 118.9 -27.5 178.9 -0.4 c 1
 167.7 -0.1 157.6 0 149.5 0 c 0
 119.5 0 58.5 -3 19.5 -5 c 1
 13.5 1 13.5 12 19.5 18 c 1
 89.5 21 105 26 107 109 c 0
 109 192 110 238 110 321 c 0
 110 404 109 453 107 536 c 0
 105 619 89.5 621 19.5 627 c 1
 13.5 633 13.5 644 19.5 650 c 1
 51.5 648 119 645 149 645 c 0
 179 645 241.5 648 278.5 650 c 1
 284.5 644 284.5 633 278.5 627 c 1
 208.5 622 194.5 619 192 536 c 0
 189.5 452 189 403 189 320 c 0
 189 237 190 191.5 192 109 c 0
 194 26 208.5 21 278.5 18 c 1
 284.5 12 284.5 1 278.5 -5 c 1
 269.4 -4.3 259.5 -3.8 249.3 -3.2 c 1
 187.1 -12.3 145.4 -72.6 145.4 -115 c 0
 145.4 -141 158.4 -162 195.4 -162 c 0
 224.4 -162 240.4 -146 262.4 -124 c 1
 271.4 -124 277.4 -128 281.4 -135 c 1
EndSplineSet
Position2: "'cpsp' Versalabstaende 1" dx=2 dy=0 dh=5 dv=0
Colour: ff9ccc
EndChar

StartChar: iogonek
Encoding: 303 303 67
Width: 267
VWidth: 999
Flags: HW
HStem: -200 38<130.519 213.833> -2 17<202.684 229> -2 33<26.625 88.875 194.125 256.375> 422 20<157.75 176> 547 98<99.3848 177.791>
VStem: 61 62<-155.299 -63.1465> 91 98<557.729 636.615> 102 79<40.8314 380.346>
AnchorPoint: "top_akzent" 132 775 basechar 0
LayerCount: 2
Fore
SplineSet
259 -135 m 1
 230 -180 190 -200 149 -200 c 0
 99 -200 61 -180 61 -126 c 0
 61 -84.6 96.6 -27.2 156.8 -0.2 c 1
 150.8 0 145.2 0 140 0 c 0
 110.3 0 57 -3 31 -5 c 1
 25 1 25 12 31 18 c 1
 92 23 100.5 26 103 109 c 0
 103.9 139 105 190.5 105 220.5 c 0
 105 250.5 104.5 277 103 307 c 0
 100 365 92.5 369.9 38 375 c 1
 36 381 34 387 36 393 c 1
 105 402 140.5 411 169 422 c 1
 177 422 182 419 182 415 c 2
 182 415 178.5 360.9 176 311.3 c 0
 174.5 281 174 249.5 174 219.5 c 0
 174 189.5 174.9 139 176 109 c 0
 179 25 187 22 248 18 c 1
 254 12 254 1 248 -5 c 1
 241 -4.5 233.2 -4 224.8 -3.5 c 1
 163.8 -13.6 123 -73 123 -115 c 0
 123 -141 136 -162 173 -162 c 0
 202 -162 218 -146 240 -124 c 1
 249 -124 255 -128 259 -135 c 1
80 599 m 0
 80 623 108 647 132 647 c 0
 159 647 180 619 180 595 c 0
 180 573.9 156 547 128 547 c 0
 104 547 80 573 80 599 c 0
EndSplineSet
Colour: ff9ccc
EndChar

StartChar: Idotaccent
Encoding: 304 304 68
Width: 303
VWidth: 999
Flags: HW
HStem: -5 23<15.6328 83.3107 214.694 282.367> 627 23<15.6328 83.3107 214.842 282.367> 746 104<104.542 187.458>
VStem: 94 104<756.542 839.458> 109.5 79<33.5092 611.486>
LayerCount: 2
Fore
SplineSet
94 798 m 0
 94 826 118 850 146 850 c 0
 174 850 198 826 198 798 c 0
 198 770 174 746 146 746 c 0
 118 746 94 770 94 798 c 0
192 109 m 0
 194 26 208.5 21 278.5 18 c 1
 284.5 12 284.5 1 278.5 -5 c 1
 237.5 -2 179.5 0 149.5 0 c 0
 119.5 0 58.5 -3 19.5 -5 c 1
 13.5 1 13.5 12 19.5 18 c 1
 89.5 21 105 26 107 109 c 0
 109 192 110 238 110 321 c 0
 110 404 109 453 107 536 c 0
 105 619 89.5 621 19.5 627 c 1
 13.5 633 13.5 644 19.5 650 c 1
 51.5 648 119 645 149 645 c 0
 179 645 241.5 648 278.5 650 c 1
 284.5 644 284.5 633 278.5 627 c 1
 208.5 622 194.5 619 192 536 c 0
 189.5 452 189 403 189 320 c 0
 189 237 190 191.5 192 109 c 0
EndSplineSet
Substitution2: "'c2sc' Versale nach Kapitaelchen 1" idotaccent.sc
Position2: "'cpsp' Versalabstaende 1" dx=2 dy=0 dh=5 dv=0
Colour: ff00ff
EndChar

StartChar: afii10057
Encoding: 1032 1032 69
Width: 384
VWidth: 999
Flags: HW
HStem: -7.3 40.3<106.417 176.927> 614 33<109.625 191.5 311 375.375>
VStem: 210 85<100.045 600.635>
LayerCount: 2
Fore
SplineSet
295 523 m 2
 295 225 l 2
 295 125 263.1 58.7 215 24 c 0
 182.6 0.700001 149.7 -7.3 122.6 -7.3 c 0
 96.9 -7.3 10 4.5 10 54 c 0
 10 76 34 90 48 90 c 0
 79 90 90.3 76.2 100 63 c 0
 107.3 53 114 33 128 33 c 0
 161 33 210 42 210 203 c 2
 210 523 l 2
 210 606 193 611 113 614 c 1
 107 620 107 641 113 647 c 1
 163 646 198 645 252 645 c 0
 299 645 323 646 372 647 c 1
 378 641 378 620 372 614 c 1
 312 611 295 606 295 523 c 2
EndSplineSet
EndChar

StartChar: afii10061
Encoding: 1036 1036 70
Width: 606
VWidth: 999
Flags: HW
HStem: -2 29<20 52 246 278 576 599> 324 42<191 293.192> 590 61<425.487 520.042> 618 29<20 52 246 278> 698 122
VStem: 106 85<35.2953 324 366 609.248> 288 201
LayerCount: 2
Fore
SplineSet
427 820 m 1
 455.6 806.7 476.3 789.3 489 768 c 1
 345 710 l 2
 324 701 312 698 303 698 c 0
 294 698 288 705 288 713 c 0
 288 720 290 725 303 734 c 2
 427 820 l 1
192 109 m 0
 194 26 208.5 21 278.5 18 c 1
 284.5 12 284.5 1 278.5 -5 c 1
 237.5 -2 179.5 0 149.5 0 c 0
 119.5 0 58.5 -3 19.5 -5 c 1
 13.5 1 13.5 12 19.5 18 c 1
 89.5 21 105 26 107 109 c 0
 109 192 110 238 110 321 c 0
 110 404 109 453 107 536 c 0
 105 619 89.5 621 19.5 627 c 1
 13.5 633 13.5 644 19.5 650 c 1
 51.5 648 119 645 149 645 c 0
 179 645 241.5 648 278.5 650 c 1
 284.5 644 284.5 633 278.5 627 c 1
 208.5 622 194.5 619 192 536 c 0
 189.9 466.4 189.3 420.8 189.1 360 c 1
 225.1 361 274.9 363.2 299 377 c 0
 350.5 406.5 371 477 380 533 c 0
 390 595 427.2 651 495 651 c 0
 548 651 566 622 566 599 c 0
 566 570 543 559 522 559 c 0
 509 559 495 564 485 574 c 0
 474 585 466 590 453 590 c 0
 423 590 416 557 411 528 c 0
 400 466 379 379 303 351 c 1
 304 348 l 1
 373 348 411 304 438 234 c 0
 468.1 155.8 497.9 100.1 524.4 66.5 c 0
 549.4 34.5 563 25.5 594 18 c 1
 600 12 600 1 594 -5 c 1
 566.2 -5 534.9 -2.7 520 -1 c 0
 442 7.8 406 81 363 191 c 0
 324 291 303 323 189 328 c 1
 189 320 l 2
 189 237 190 191.5 192 109 c 0
EndSplineSet
LCarets2: 1 0 
Colour: ff00ff
EndChar

StartChar: uni040D
Encoding: 1037 1037 71
Width: 710
VWidth: 999
Flags: HW
HStem: -35.5 7.9<7.45864 144.877 149.278 289.17 414.459 551.877 556.278 696.17> -5 23<15.1328 82.8102 214.194 281.867 422.133 489.81 621.194 688.867> 41.4 7.8<5.4415 49.1656 249.001 290.863 412.441 456.166 656.001 697.863> 596.2 7.8<6.98051 48.7468 248.85 292.402 413.98 455.747 655.85 699.402> 627 23<15.1328 82.8102 214.341 281.867 422.133 489.81 621.341 688.867> 668 8<11.3456 287.309 418.346 694.309> 673 8.1<8.67366 148.566 152.967 290.385 415.674 555.566 559.967 697.385> 698 120
VStem: 78 8<84.4885 563.687> 109 79<33.5092 611.486> 211 8<88.047 545.097> 223 212 485 8<84.4885 563.687> 516 79<33.5092 611.486> 618 8<88.047 545.097>
LayerCount: 2
Fore
SplineSet
299 818 m 1
 420 734 l 2
 431 726 435 720 435 713 c 0
 435 705 428 698 420 698 c 0
 412 698 398 701 377 710 c 2
 223 773 l 1
 241.3 790.7 264.8 806.4 299 818 c 1
599 109 m 0
 601 26 615.5 21 685.5 18 c 1
 691.5 12 691.5 1 685.5 -5 c 1
 644.5 -2 586.5 0 556.5 0 c 0
 526.5 0 465.5 -3 426.5 -5 c 1
 420.5 1 420.5 12 426.5 18 c 1
 496.5 21 512 26 514 109 c 0
 516 192 517 238 517 321 c 0
 517 382.7 516.4 425.5 515.3 477.5 c 1
 507.9 475.3 500.7 470.6 496 465 c 2
 222 125 l 2
 211.7 111.5 200.7 95.5 193.6 79.4 c 1
 198.9 24.7 218 20.6 278.5 18 c 1
 284.5 12 284.5 1 278.5 -5 c 1
 237.5 -2 179.5 0 149.5 0 c 0
 119.5 0 58.5 -3 19.5 -5 c 1
 13.5 1 13.5 12 19.5 18 c 1
 89.5 21 105 26 107 109 c 0
 109 192 110 238 110 321 c 0
 110 404 109 453 107 536 c 0
 105 619 89.5 621 19.5 627 c 1
 13.5 633 13.5 644 19.5 650 c 1
 51.5 648 119 645 149 645 c 0
 179 645 241.5 648 278.5 650 c 1
 284.5 644 284.5 633 278.5 627 c 1
 208.5 622 194.5 619 192 536 c 0
 189.5 452 189 403 189 320 c 0
 189 258.6 189.5 217.7 190.6 167.1 c 1
 195.6 167.8 202.7 171.7 209 178 c 2
 483 520 l 2
 493.9 533.2 505.4 550.2 512.3 565.5 c 1
 506.8 619.6 487 621.8 426.5 627 c 1
 420.5 633 420.5 644 426.5 650 c 1
 458.5 648 526 645 556 645 c 0
 586 645 648.5 648 685.5 650 c 1
 691.5 644 691.5 633 685.5 627 c 1
 615.5 622 601.5 619 599 536 c 0
 596.5 452 596 403 596 320 c 0
 596 237 597 191.5 599 109 c 0
EndSplineSet
LCarets2: 1 0 
Colour: ff00ff
EndChar

StartChar: afii10062
Encoding: 1038 1038 72
Width: 594
VWidth: 999
Flags: HW
HStem: -22 62<133 229.447> 614 33<1.46875 58.6416 176.509 232.375 383.625 442.046 535.176 587.375> 697 31<266.585 357.415>
VStem: 187 69<734.873 803.004> 368 69<736.589 803.004>
LayerCount: 2
Fore
SplineSet
312 728 m 0
 345 728 368 745 368 762 c 0
 368 767 367 770.3 367 775 c 0
 367 790 377 805 400 805 c 0
 427 805 437 791 437 772 c 0
 437 720 378 697 312 697 c 0
 246 697 187 720 187 772 c 0
 187 791 197 805 224 805 c 0
 247 805 257 790 257 775 c 0
 257 770.8 256 767 256 762 c 0
 256 745 279 728 312 728 c 0
107.5 523 m 1
 75 594 63 619 8 624 c 1
 2 630 1 641 7 647 c 1
 34 646 83.7 645 111 645 c 0
 138.7 645 195 646 232 647 c 1
 238 641 238 630 232 624 c 1
 156 617 165 591 191.4 534 c 1
 236.4 428.9 283.1 328.6 330 229 c 1
 336 229 l 1
 445 528 l 2
 465 584 472.3 620.3 390 624 c 1
 384 630 384 641 390 647 c 1
 427 646 472 645 495 645 c 0
 518 645 557 646 587 647 c 1
 593 641 593 630 587 624 c 1
 524.7 619.3 505 569 486.7 521 c 2
 345 161 l 2
 302 52 247 -22 157 -22 c 0
 115 -22 67 1 67 33 c 0
 67 61 86 81 116 81 c 0
 130 81 152 74 162 62 c 0
 169 53 184 40 198 40 c 0
 230 40 262 58 293 133 c 1
 236.9 265 169.4 396.1 107.5 523 c 1
EndSplineSet
LCarets2: 1 0 
Colour: ff00ff
EndChar

StartChar: afii10020
Encoding: 1043 1043 73
Width: 481
VWidth: 999
Flags: HW
HStem: -2 33<8.625 81.75 201.25 274.375> 605 40<185.978 404.91> 614 33<8.625 81.75>
VStem: 99 85<43.3808 601.619> 452 29<487.513 529.662>
LayerCount: 2
Fore
SplineSet
141 645 m 1
 346 645 l 1
 346 645 427 646 466 647 c 1
 471.5 613.2 476.9 574.3 481 490 c 1
 471.3 485.7 461.7 484.8 452 486 c 1
 431 555 418 605 343 605 c 2
 220 605 l 2
 196 605 184 595 184 571 c 2
 184 122 l 2
 184 39 201 34 271 31 c 1
 277 25 277 4 271 -2 c 1
 221 -1 192 0 142 0 c 0
 91 0 61 -1 12 -2 c 1
 6 4 6 25 12 31 c 1
 82 34 99 39 99 122 c 2
 99 523 l 2
 99 606 82 611 12 614 c 1
 6 620 6 641 12 647 c 1
 62 646 141 645 141 645 c 1
EndSplineSet
Colour: ff00ff
EndChar

StartChar: afii10021
Encoding: 1044 1044 74
Width: 659
VWidth: 999
Flags: HW
HStem: 0 39<182.009 462.022> 605 40<269.132 462.578> 618 29<151 187 586 621>
VStem: 34 27<-140 -94.0922> 464 85<40.4891 603.884> 599 27<-140 -98.3137>
LayerCount: 2
Fore
SplineSet
112 47 m 0
 138.1 73.1 156 145 188 301 c 1
 210 415 222 518 222 581 c 0
 222 602 213 612.4 187 615 c 2
 157 618 l 2
 152 618 149 620 149 624 c 2
 149 645 l 1
 151 647 l 1
 151 647 221 645 251 645 c 2
 512 645 l 2
 542 645 621 647 621 647 c 1
 623 645 l 1
 623 626 l 2
 623 620 619 618.3 615 618 c 2
 586 616 l 2
 553.8 613.8 549 601 549 565 c 2
 549 78 l 2
 549 41 571.5 30 589 27 c 0
 610.7 23.3 618.4 20 619 8 c 2
 626 -140 l 1
 599 -140 599 -141 599 -141 c 1
 587 -85 551 0 471 0 c 2
 181 0 l 2
 98 0 72 -89 61 -141 c 1
 34 -140 l 1
 41 8 l 2
 41.6 20 52.1 25.5 62 27 c 0
 81.5 30 97.5 32.5 112 47 c 0
427 605 m 2
 304 605 l 2
 277 605 267 591 265 566 c 0
 257 465 241 361 229 293 c 0
 207 176 182 77 182 56 c 0
 182 44 195 39 209 39 c 2
 428 39 l 2
 452 39 464 42 464 79 c 2
 464 566 l 2
 464 597 458 605 427 605 c 2
EndSplineSet
EndChar

StartChar: afii10024
Encoding: 1046 1046 75
Width: 863
Flags: HW
HStem: -2 29<6 28 303 335 529 561 835 856> 324 42<294.678 389 474 568.322> 590 61<79.7859 169.758 693.242 783.214> 618 29<303 335 529 561>
VStem: 389 85<35.2953 324 366 609.248>
LayerCount: 2
Fore
SplineSet
6 0 m 1
 6 19 l 2
 6 24 8 27 13 27 c 2
 28 28 l 2
 60 31 107 99 155 234 c 1
 181 304 218 347 284 347 c 1
 284 352 l 1
 212 380 191 466 181 528 c 0
 176 557 170 590 142 590 c 0
 130 590 122 585 112 574 c 0
 103 564 90 559 78 559 c 0
 58 559 37 570 37 599 c 0
 37 622 54 651 104 651 c 0
 179 651 205 595 214 533 c 0
 222 477 236 413 291 381 c 1
 313 367 355 366 389 366 c 1
 389 574 l 2
 389 604 374 613 335 616 c 2
 309 618 l 2
 305 618 301 621 301 626 c 2
 301 645 l 1
 303 647 l 1
 353 646 381 645 431 645 c 0
 481 645 512 646 561 647 c 1
 563 645 l 1
 563 626 l 2
 563 621 560 618 555 618 c 2
 529 616 l 2
 489 613 474 602 474 574 c 2
 474 366 l 1
 508 366 550 367 572 381 c 1
 627 413 641 477 649 533 c 0
 658 595 684 651 759 651 c 0
 809 651 826 622 826 599 c 0
 826 570 805 559 785 559 c 0
 773 559 760 564 751 574 c 0
 741 585 733 590 721 590 c 0
 693 590 687 557 682 528 c 0
 672 466 651 380 579 352 c 1
 579 347 l 1
 645 347 682 304 708 234 c 1
 756 99 803 31 835 28 c 2
 850 27 l 2
 855 27 857 24 857 19 c 2
 857 0 l 1
 856 -2 l 1
 782 -1 l 2
 708 0 674 81 633 191 c 1
 597 291 579 324 474 324 c 1
 474 71 l 2
 474 41 489 32 529 29 c 2
 555 27 l 2
 559 27 563 24 563 19 c 2
 563 0 l 1
 561 -2 l 1
 513 0 482 0 432 0 c 0
 382 0 352 0 303 -2 c 1
 301 0 l 1
 301 19 l 2
 301 24 304 27 308 27 c 2
 335 29 l 2
 377 32 389 43 389 71 c 2
 389 324 l 1
 284 324 266 291 230 191 c 1
 189 81 155 0 81 -1 c 2
 6 -2 l 1
 6 0 l 1
EndSplineSet
Colour: ff9ccc
EndChar

StartChar: afii10025
Encoding: 1047 1047 76
Width: 578
Flags: HW
HStem: -12 36<200.078 368.458> 317 49<169.194 379.155> 624 34<212.7 364.797>
VStem: 68 30<465.533 503.865> 421 88<427.266 574.759> 445 92<91.578 257.488>
LayerCount: 2
Fore
SplineSet
44 115 m 0
 44 139 57 155 77 155 c 0
 105 155 120 129 133 103 c 0
 158 56 209 24 287 24 c 0
 386 24 445 85 445 176 c 0
 445 249 408 323 287 323 c 0
 254 323 225 317 198 317 c 0
 186 317 169 322 169 342 c 0
 169 362 186 366 198 366 c 0
 225 366 261 360 288 360 c 0
 394 360 421 429 421 498 c 0
 421 568 382 624 296 624 c 0
 182 624 124 552 98 464 c 1
 68 466 l 1
 92 626 l 1
 163 633 229 658 304 658 c 0
 443 658 509 587 509 505 c 0
 509 421 448 372 378 352 c 1
 378 346 l 1
 472 331 537 262 537 177 c 0
 537 46 415 -12 288 -12 c 0
 188 -12 120 12 90 39 c 0
 63 63 44 82 44 115 c 0
EndSplineSet
EndChar

StartChar: afii10026
Encoding: 1048 1048 77
Width: 710
VWidth: 999
Flags: HW
HStem: -5 23<15.6328 83.5141 214.897 282.367 422.633 490.514 621.897 689.367> 627 23<15.6328 80.5781 216.456 282.367 422.633 487.578 623.456 689.367>
VStem: 110 79<33.5092 610.366> 517 79<33.5092 610.366>
DStem2: 209 178 222 125 0.625251 0.780423<-20.9395 426.395>
LayerCount: 2
Fore
SplineSet
599 109 m 0
 601 26 615.5 21 685.5 18 c 1
 691.5 12 691.5 1 685.5 -5 c 1
 644.5 -2 586.5 0 556.5 0 c 0
 526.5 0 465.5 -3 426.5 -5 c 1
 420.5 1 420.5 12 426.5 18 c 1
 496.5 21 512 26 514 109 c 0
 516 192 517 238 517 321 c 0
 517 382.7 516.4 425.5 515.3 477.5 c 1
 507.9 475.3 500.7 470.6 496 465 c 2
 222 125 l 2
 211.7 111.5 200.7 95.5 193.6 79.4 c 1
 198.9 24.7 218 20.6 278.5 18 c 1
 284.5 12 284.5 1 278.5 -5 c 1
 237.5 -2 179.5 0 149.5 0 c 0
 119.5 0 58.5 -3 19.5 -5 c 1
 13.5 1 13.5 12 19.5 18 c 1
 89.5 21 105 26 107 109 c 0
 109 192 110 238 110 321 c 0
 110 404 109 453 107 536 c 0
 105 619 89.5 621 19.5 627 c 1
 13.5 633 13.5 644 19.5 650 c 1
 51.5 648 119 645 149 645 c 0
 179 645 241.5 648 278.5 650 c 1
 284.5 644 284.5 633 278.5 627 c 1
 208.5 622 194.5 619 192 536 c 0
 189.5 452 189 403 189 320 c 0
 189 258.6 189.5 217.7 190.6 167.1 c 1
 195.6 167.8 202.7 171.7 209 178 c 2
 483 520 l 2
 493.9 533.2 505.4 550.2 512.3 565.5 c 1
 506.8 619.6 487 621.8 426.5 627 c 1
 420.5 633 420.5 644 426.5 650 c 1
 458.5 648 526 645 556 645 c 0
 586 645 648.5 648 685.5 650 c 1
 691.5 644 691.5 633 685.5 627 c 1
 615.5 622 601.5 619 599 536 c 0
 596.5 452 596 403 596 320 c 0
 596 237 597 191.5 599 109 c 0
EndSplineSet
EndChar

StartChar: afii10027
Encoding: 1049 1049 78
Width: 710
VWidth: 999
Flags: HW
HStem: -5 23<15.6328 83.5141 214.897 282.367 422.633 490.514 621.897 689.367> 627 23<15.6328 80.5781 216.456 282.367 422.633 487.578 623.456 689.367> 697 31<305.585 396.415>
VStem: 110 79<33.5092 610.366> 226 69<734.873 803.004> 407 69<736.589 803.004> 517 79<33.5092 610.366>
DStem2: 209 178 222 125 0.625251 0.780423<-20.9395 426.395>
LayerCount: 2
Fore
SplineSet
351 728 m 0
 384 728 407 745 407 762 c 0
 407 767 406 770.3 406 775 c 0
 406 790 416 805 439 805 c 0
 466 805 476 791 476 772 c 0
 476 720 417 697 351 697 c 0
 285 697 226 720 226 772 c 0
 226 791 236 805 263 805 c 0
 286 805 296 790 296 775 c 0
 296 770.8 295 767 295 762 c 0
 295 745 318 728 351 728 c 0
599 109 m 0
 601 26 615.5 21 685.5 18 c 1
 691.5 12 691.5 1 685.5 -5 c 1
 644.5 -2 586.5 0 556.5 0 c 0
 526.5 0 465.5 -3 426.5 -5 c 1
 420.5 1 420.5 12 426.5 18 c 1
 496.5 21 512 26 514 109 c 0
 516 192 517 238 517 321 c 0
 517 382.7 516.4 425.5 515.3 477.5 c 1
 507.9 475.3 500.7 470.6 496 465 c 2
 222 125 l 2
 211.7 111.5 200.7 95.5 193.6 79.4 c 1
 198.9 24.7 218 20.6 278.5 18 c 1
 284.5 12 284.5 1 278.5 -5 c 1
 237.5 -2 179.5 0 149.5 0 c 0
 119.5 0 58.5 -3 19.5 -5 c 1
 13.5 1 13.5 12 19.5 18 c 1
 89.5 21 105 26 107 109 c 0
 109 192 110 238 110 321 c 0
 110 404 109 453 107 536 c 0
 105 619 89.5 621 19.5 627 c 1
 13.5 633 13.5 644 19.5 650 c 1
 51.5 648 119 645 149 645 c 0
 179 645 241.5 648 278.5 650 c 1
 284.5 644 284.5 633 278.5 627 c 1
 208.5 622 194.5 619 192 536 c 0
 189.5 452 189 403 189 320 c 0
 189 258.6 189.5 217.7 190.6 167.1 c 1
 195.6 167.8 202.7 171.7 209 178 c 2
 483 520 l 2
 493.9 533.2 505.4 550.2 512.3 565.5 c 1
 506.8 619.6 487 621.8 426.5 627 c 1
 420.5 633 420.5 644 426.5 650 c 1
 458.5 648 526 645 556 645 c 0
 586 645 648.5 648 685.5 650 c 1
 691.5 644 691.5 633 685.5 627 c 1
 615.5 622 601.5 619 599 536 c 0
 596.5 452 596 403 596 320 c 0
 596 237 597 191.5 599 109 c 0
EndSplineSet
LCarets2: 1 0 
Colour: ff00ff
EndChar

StartChar: afii10033
Encoding: 1055 1055 79
Width: 667
VWidth: 999
Flags: HW
HStem: -2 33<13.625 86.75 206.25 279.375 387.625 460.75 580.25 653.375> 605 40<199.245 467.755> 614 33<13.625 86.75 580.25 653.375>
VStem: 104 85<43.3808 598.5> 478 85<43.3808 598.5>
LayerCount: 2
Fore
SplineSet
521 645 m 2
 548 645 596 649 646 650 c 1
 652 644 652 633 646 627 c 1
 576 624 559 616 559 533 c 2
 559 112 l 2
 559 29 576 21 646 18 c 1
 652 12 652 1 646 -5 c 1
 597 -4 569.2 0 520 0 c 0
 471.2 0 445 -4 395 -5 c 1
 389 1 389 12 395 18 c 1
 465 21 482 29 482 112 c 2
 482 541 l 2
 482 603 460 615 436 615 c 2
 231 615 l 2
 207 615 185 603 185 541 c 2
 185 112 l 2
 185 29 202 21 272 18 c 1
 278 12 278 1 272 -5 c 1
 222 -4 195.8 0 147 0 c 0
 97.8 0 70 -4 21 -5 c 1
 15 1 15 12 21 18 c 1
 91 21 108 29 108 112 c 2
 108 533 l 2
 108 616 91 624 21 627 c 1
 15 633 15 644 21 650 c 1
 71 649 123 645 146 645 c 2
 521 645 l 2
EndSplineSet
Colour: ff00ff
EndChar

StartChar: afii10034
Encoding: 1056 1056 80
Width: 529
VWidth: 999
Flags: HW
HStem: -2 33<-225.409 -152.284 -28.284 55.341> 282 34<-49.249 108.506> 618 34<-223.33 -156.175 -59.729 115.041>
VStem: -135 85<47.6546 292 318.199 600.635> 175 93<395.93 561.649>
LayerCount: 2
Fore
SplineSet
187 296 m 1
 187 224 188 160 189 85 c 0
 190 27 223 22 292 18 c 1
 298 12 298 1 292 -5 c 1
 242 -4 206 0 150 0 c 0
 99 0 69 -4 20 -5 c 1
 14 1 14 12 20 18 c 1
 90 21 104 25 106 109 c 0
 108 192 108 238 108 321 c 0
 108 404 107 453 106 536 c 0
 105 619 90 624 20 627 c 1
 14 633 14 644 20 650 c 1
 70 649 98 645 148 645 c 0
 188 645 258 655 284 655 c 0
 469 655 506 545 506 486 c 0
 506 401 454 287 272 287 c 0
 238 287 209 289 187 296 c 1
189 583 m 0
 188 500 187 404 187 321 c 2
 187 316 l 1
 200 313 242 311 266 311 c 0
 363 311 418 360 418 468 c 0
 418 595 347 631 278 631 c 0
 206 631 190 612 189 583 c 0
EndSplineSet
Colour: ff00ff
EndChar

StartChar: afii10035
Encoding: 1057 1057 81
Width: 650
VWidth: 999
Flags: HW
HStem: -10 41<268.215 458.261> 621 37<270.584 441.041>
VStem: 33 91<201.241 442.946> 562 33<454.756 496.422>
LayerCount: 2
Fore
SplineSet
351 -10 m 0
 136 -10 37 138.2 37 315 c 0
 37 503.4 164 658 362 658 c 0
 485 658 530 618 581 613 c 1
 591 558 598 510 603 458 c 1
 595.8 453.2 589.2 452.2 580 453 c 1
 554 539 495 631 357 631 c 0
 231.9 631 127 497.9 127 334 c 0
 127 188 205 31 360 31 c 0
 453 31 521 62 592 140 c 1
 603 140 610 134 615 125 c 1
 547 36 448 -10 351 -10 c 0
EndSplineSet
Colour: ff00ff
EndChar

StartChar: afii10036
Encoding: 1058 1058 82
Width: 597
VWidth: 999
Flags: HW
HStem: -2 33<164.625 246.5 368.5 450.375> 606 39<98.3488 251.688 363.118 494.389>
VStem: 3 34<502.785 541.578> 265 85<44.3649 597.249> 557 34<505.143 543.266>
LayerCount: 2
Fore
SplineSet
266 536 m 0
 264.3 597 255 616 218 616 c 2
 159 616 l 2
 93 616 47 580 27 500 c 1
 15 500 13 501 3 505 c 1
 14 553 24 608 28 653 c 0
 28 654 30 656 32 656 c 0
 70 653 188 645 265 645 c 2
 351 645 l 2
 430 645 541 653 575 656 c 0
 576 656 578 654 578 653 c 0
 579 608 584 554 591 508 c 1
 582 504 578 503 567 503 c 1
 550 580 503 616 428 616 c 2
 396 616 l 2
 360 616 351 600 349 536 c 0
 346.3 451.3 347 403 347 320 c 0
 347 237 347 191.5 349 109 c 0
 351 26 377 21 447 18 c 1
 453 12 453 1 447 -5 c 1
 397 -4 362.2 0 308 0 c 0
 253.4 0 217 -4 168 -5 c 1
 162 1 162 12 168 18 c 1
 238 21 264 26 266 109 c 0
 268 192 268 238 268 321 c 0
 268 404 268.3 453.7 266 536 c 0
EndSplineSet
Colour: ff00ff
EndChar

StartChar: afii10037
Encoding: 1059 1059 83
Width: 594
VWidth: 999
Flags: HW
HStem: -22 62<136 232.885> 624 23<3.90088 48.9018 186.543 235.867 386.133 439.903 547.604 590.867>
DStem2: 191.449 534 107.469 523 0.441082 -0.897467<-71.5234 334.84> 293 133 345 161 0.366175 0.930546<-86.0671 14.3462 105.078 487.021>
LayerCount: 2
Fore
SplineSet
107.5 523 m 1
 75 594 63 619 8 624 c 1
 2 630 1 641 7 647 c 1
 34 646 83.7 645 111 645 c 0
 138.7 645 195 646 232 647 c 1
 238 641 238 630 232 624 c 1
 156 617 165 591 191.4 534 c 1
 236.4 428.9 283.1 328.6 330 229 c 1
 336 229 l 1
 445 528 l 2
 465 584 472.3 620.3 390 624 c 1
 384 630 384 641 390 647 c 1
 427 646 472 645 495 645 c 0
 518 645 557 646 587 647 c 1
 593 641 593 630 587 624 c 1
 524.7 619.3 505 569 486.7 521 c 2
 345 161 l 2
 302 52 247 -22 157 -22 c 0
 115 -22 67 1 67 33 c 0
 67 61 86 81 116 81 c 0
 130 81 152 74 162 62 c 0
 169 53 184 40 198 40 c 0
 230 40 262 58 293 133 c 1
 236.9 265 169.4 396.1 107.5 523 c 1
EndSplineSet
EndChar

StartChar: afii10039
Encoding: 1061 1061 84
Width: 677
VWidth: 999
Flags: HW
HStem: -5 23<8.63281 56.7041 169.047 211.367 439.633 480.166 624.859 668.599> 627 23<19.4009 67.3633 207.854 248.367 453.633 495.724 608.394 656.367>
DStem2: 228 559.75 138.165 547 0.571806 -0.820389<-57.0258 218.075 285.539 579.827> 138.504 93.0049 173.501 73.002 0.593257 0.805013<-32.3477 256.593 360.897 631.679>
LayerCount: 2
Fore
SplineSet
551.5 102 m 2
 593.9 43.7 622.5 21 664.5 18 c 1
 670.5 12 671.5 1 665.5 -5 c 1
 635.5 -4 602.5 0 563.5 0 c 0
 523.5 0 483.5 -4 443.5 -5 c 1
 437.5 1 437.5 12 443.5 18 c 1
 499.5 21 488.3 44.9 460 85.2 c 2
 336.5 261 l 2
 329.2 271.4 325.5 277 321.5 277 c 0
 318.5 277 313 268.4 305.5 258 c 2
 173.5 73 l 2
 149.3 39 163.2 21 207.5 18 c 1
 213.5 12 213.5 1 207.5 -5 c 1
 167.5 -4 125.5 0 102.5 0 c 0
 79.5 0 42.5 -4 12.5 -5 c 1
 6.5 1 6.5 12 12.5 18 c 1
 57.2 22.3 104.2 47.1 138.5 93 c 2
 286.5 291 l 2
 293.3 300.1 294.5 308 294.5 314 c 0
 294.5 324 292.8 326.5 280.5 344 c 2
 138.2 547 l 2
 97 605.7 65.5 624 23.5 627 c 1
 17.5 633 16.5 644 22.5 650 c 1
 52.5 649 85.5 645 124.5 645 c 0
 164.5 645 204.5 649 244.5 650 c 1
 250.5 644 250.5 633 244.5 627 c 1
 188.5 624 199.8 599.8 228 559.8 c 1
 338.5 396 l 2
 346.2 384.5 351.5 382 354.5 382 c 0
 358.5 382 359 383.4 368.5 397 c 2
 491.5 572 l 2
 515 605.4 501.8 624 457.5 627 c 1
 451.5 633 451.5 644 457.5 650 c 1
 497.5 649 539.5 645 562.5 645 c 0
 585.5 645 622.5 649 652.5 650 c 1
 658.5 644 658.5 633 652.5 627 c 1
 607.8 622.7 561.2 596.9 526.5 552 c 2
 389.5 375 l 2
 378 360.1 378.5 355 378.5 346 c 0
 378.5 338.3 388.7 325.4 398.5 312 c 2
 551.5 102 l 2
EndSplineSet
Colour: ff00ff
EndChar

StartChar: afii10040
Encoding: 1062 1062 85
Width: 674
VWidth: 487
Flags: HW
HStem: -2 33<10.625 83.75> 0 39<194.443 469.051> 614 33<10.625 83.75 203.25 276.375 382.625 455.75 575.25 648.375>
VStem: 101 85<45.451 601.619> 473 85<39.9611 601.619> 609 33<-144.75 -92.9922>
LayerCount: 2
Fore
SplineSet
558 523 m 2
 558 122 l 2
 558 39 582 34 606 31 c 0
 630.8 27.9 635 20 636 11 c 0
 640 -37 642 -90 642 -141 c 1
 633 -148.1 618 -149 609 -142 c 1
 595 -71 547 0 470 0 c 2
 144 0 l 2
 124 0 63 -1 14 -2 c 1
 8 4 8 25 14 31 c 1
 84 34 101 39 101 122 c 2
 101 523 l 2
 101 606 84 611 14 614 c 1
 8 620 8 641 14 647 c 1
 64 646 93 645 143 645 c 0
 194 645 224 646 273 647 c 1
 279 641 279 620 273 614 c 1
 203 611 186 606 186 523 c 2
 186 89 l 2
 186 58 204 39 233 39 c 2
 436 39 l 2
 468 38.7 473 44 473 122 c 2
 473 523 l 2
 473 606 456 611 386 614 c 1
 380 620 380 641 386 647 c 1
 436 646 465 645 515 645 c 0
 566 645 596 646 645 647 c 1
 651 641 651 620 645 614 c 1
 575 611 558 606 558 523 c 2
EndSplineSet
EndChar

StartChar: afii10041
Encoding: 1063 1063 86
Width: 650
VWidth: 999
Flags: HW
HStem: -5 23<358.633 426.514 557.897 625.367> 250 58<218.957 371.066> 627 23<14.1328 81.0328 214.853 280.867 358.633 423.578 559.456 625.367>
VStem: 106 79<342.988 609.994> 453 79<33.5092 610.366>
LayerCount: 2
Fore
SplineSet
535 109 m 0
 537 26 551.5 21 621.5 18 c 1
 627.5 12 627.5 1 621.5 -5 c 1
 580.5 -2 522.5 0 492.5 0 c 0
 462.5 0 401.5 -3 362.5 -5 c 1
 356.5 1 356.5 12 362.5 18 c 1
 432.5 21 448 26 450 109 c 0
 452 190 453 235.7 453 314.9 c 1
 381.1 265.5 314.2 250 257 250 c 0
 133 250 104.1 329.3 106 428 c 2
 108 533 l 2
 109.6 616 88 624 18 627 c 1
 12 633 12 644 18 650 c 1
 61 647 117.7 645 147 645 c 0
 176.7 645 231 647 277 650 c 1
 283 644 283 633 277 627 c 1
 207 624 188.4 616 187 533 c 2
 185 417 l 2
 183.6 336 227 302 299 302 c 0
 327.5 302 390 305.9 453 347 c 1
 452.8 415.1 451.8 462 450 536 c 0
 448 619 432.5 621 362.5 627 c 1
 356.5 633 356.5 644 362.5 650 c 1
 394.5 648 462 645 492 645 c 0
 522 645 584.5 648 621.5 650 c 1
 627.5 644 627.5 633 621.5 627 c 1
 551.5 622 537.5 619 535 536 c 0
 532.5 452 532 403 532 320 c 0
 532 237 533 191.5 535 109 c 0
EndSplineSet
EndChar

StartChar: afii10042
Encoding: 1064 1064 87
Width: 969
VWidth: 487
Flags: HW
HStem: 0 37<18.1958 95.1693 200.678 431.849 534.377 768.806 873.831 950.804> 614 33<15.625 88.75 208.25 281.375 349.625 422.75 542.25 615.375 687.625 760.75 880.25 953.375>
VStem: 106 85<43.3808 601.619> 440 85<41.6898 601.619> 778 85<43.3808 601.619>
LayerCount: 2
Fore
SplineSet
820 0 m 2
 149 0 l 1
 149 0 68 -1 19 -2 c 1
 13 4 13 25 19 31 c 1
 89 34 106 39 106 122 c 2
 106 523 l 2
 106 606 89 611 19 614 c 1
 13 620 13 641 19 647 c 1
 69 646 98 645 148 645 c 0
 199 645 229 646 278 647 c 1
 284 641 284 620 278 614 c 1
 208 611 191 606 191 523 c 2
 191 122 l 2
 191 40 208 37 250 37 c 2
 389 37 l 2
 426 37 440 40 440 122 c 2
 440 523 l 2
 440 606 423 611 353 614 c 1
 347 620 347 641 353 647 c 1
 403 646 432 645 482 645 c 0
 533 645 563 646 612 647 c 1
 618 641 618 620 612 614 c 1
 542 611 525 606 525 523 c 2
 525 122 l 2
 525 40 542 37 580 37 c 2
 709 37 l 2
 765 37 778 40 778 122 c 2
 778 523 l 2
 778 606 761 611 691 614 c 1
 685 620 685 641 691 647 c 1
 740 646 770 645 821 645 c 0
 871 645 900 646 950 647 c 1
 956 641 956 620 950 614 c 1
 880 611 863 606 863 523 c 2
 863 122 l 2
 863 39 880 34 950 31 c 1
 956 25 956 4 950 -2 c 1
 901 -1 868 0 820 0 c 2
EndSplineSet
EndChar

StartChar: afii10043
Encoding: 1065 1065 88
Width: 979
VWidth: 487
Flags: HW
HStem: 0 37<18.1958 95.1693 200.678 431.849 534.377 768.806> 614 33<15.625 88.75 208.25 281.375 349.625 422.75 542.25 615.375 687.625 760.75 880.25 953.375>
VStem: 106 85<43.3808 601.619> 440 85<41.6898 601.619> 778 85<43.3808 601.619> 914 33<-144.75 -92.9922>
LayerCount: 2
Fore
SplineSet
775 0 m 2
 149 0 l 1
 149 0 68 -1 19 -2 c 1
 13 4 13 25 19 31 c 1
 89 34 106 39 106 122 c 2
 106 523 l 2
 106 606 89 611 19 614 c 1
 13 620 13 641 19 647 c 1
 69 646 98 645 148 645 c 0
 199 645 229 646 278 647 c 1
 284 641 284 620 278 614 c 1
 208 611 191 606 191 523 c 2
 191 122 l 2
 191 40 208 37 250 37 c 2
 389 37 l 2
 426 37 440 40 440 122 c 2
 440 523 l 2
 440 606 423 611 353 614 c 1
 347 620 347 641 353 647 c 1
 403 646 432 645 482 645 c 0
 533 645 563 646 612 647 c 1
 618 641 618 620 612 614 c 1
 542 611 525 606 525 523 c 2
 525 122 l 2
 525 40 542 37 580 37 c 2
 709 37 l 2
 765 37 778 40 778 122 c 2
 778 523 l 2
 778 606 761 611 691 614 c 1
 685 620 685 641 691 647 c 1
 740 646 770 645 821 645 c 0
 871 645 900 646 950 647 c 1
 956 641 956 620 950 614 c 1
 880 611 863 606 863 523 c 2
 863 122 l 2
 863 39 887 34 911 31 c 0
 935.8 27.9 940 20 941 11 c 0
 945 -37 947 -90 947 -141 c 1
 938 -148.1 923 -149 914 -142 c 1
 900 -71 852 0 775 0 c 2
EndSplineSet
EndChar

StartChar: afii10044
Encoding: 1066 1066 89
Width: 723
VWidth: 999
Flags: HW
HStem: -2 33<174.625 247.75 371.537 520.434> 333 40<350 518.724> 605 40<115.773 256.866> 614 33<367.25 440.375>
VStem: 26 30<470.147 516.776> 265 85<46.5258 333 373 599.457> 594 93<87.5271 266.225>
LayerCount: 2
Fore
SplineSet
433 31 m 0
 585 31 594 121 594 183 c 0
 594 243 566 333 437 333 c 2
 350 333 l 1
 350 98 l 2
 350 65 363 31 433 31 c 0
454 -2 m 0
 365 -2 351 0 308 0 c 0
 257 0 227 -1 178 -2 c 1
 172 4 172 25 178 31 c 1
 248 34 265 39 265 122 c 2
 265 523 l 2
 265 598 253 605 206 605 c 2
 164 605 l 2
 98 605 64 512 56 469 c 1
 42 466 33.7 468.5 26 474 c 1
 30 530 36 582 42 645 c 1
 307 645 l 2
 357 645 388 646 437 647 c 1
 443 641 443 620 437 614 c 1
 367 611 350 606 350 523 c 2
 350 373 l 1
 410 373 l 2
 656 373 687 272 687 183 c 0
 687 16 575 -2 454 -2 c 0
EndSplineSet
EndChar

StartChar: afii10045
Encoding: 1067 1067 90
Width: 796
VWidth: 999
Flags: HW
HStem: -4 23<517.633 585.311 716.694 784.367> -2 33<13.625 86.75 203.821 338.719> 333 40<189 350.404> 614 33<13.625 86.75 206.25 279.375> 628 23<517.633 585.311 716.842 784.367>
VStem: 104 85<43.498 333 373 601.619> 429 93<101.953 262.707> 611.5 79<34.5092 612.486>
LayerCount: 2
Fore
SplineSet
694 110 m 0
 696 27 710.5 22 780.5 19 c 1
 786.5 13 786.5 2 780.5 -4 c 1
 739.5 -1 681.5 1 651.5 1 c 0
 621.5 1 560.5 -2 521.5 -4 c 1
 515.5 2 515.5 13 521.5 19 c 1
 591.5 22 607 27 609 110 c 0
 611 193 612 239 612 322 c 0
 612 405 611 454 609 537 c 0
 607 620 591.5 622 521.5 628 c 1
 515.5 634 515.5 645 521.5 651 c 1
 553.5 649 621 646 651 646 c 0
 681 646 743.5 649 780.5 651 c 1
 786.5 645 786.5 634 780.5 628 c 1
 710.5 623 696.5 620 694 537 c 0
 691.5 453 691 404 691 321 c 0
 691 238 692 192.5 694 110 c 0
246 31 m 0
 398 31 429 121 429 183 c 0
 429 243 392 333 264 333 c 2
 189 333 l 1
 189 98 l 2
 189 65 198 31 246 31 c 0
104 122 m 2
 104 523 l 2
 104 606 87 611 17 614 c 1
 11 620 11 641 17 647 c 1
 67 646 96 645 146 645 c 0
 197 645 227 646 276 647 c 1
 282 641 282 620 276 614 c 1
 206 611 189 606 189 523 c 2
 189 373 l 1
 277 373 l 2
 496 373 522 272 522 183 c 0
 522 49.9 435.5 -2 244 -2 c 0
 208 -2 176 0 147 0 c 0
 96 0 66 -1 17 -2 c 1
 11 4 11 25 17 31 c 1
 87 34 104 39 104 122 c 2
EndSplineSet
Colour: ff00ff
EndChar

StartChar: afii10046
Encoding: 1068 1068 91
Width: 558
VWidth: 999
Flags: HW
HStem: -2 33<13.625 86.75 203.821 338.719> 333 40<189 350.404> 614 33<13.625 86.75 206.25 279.375>
VStem: 104 85<43.498 333 373 601.619> 429 93<101.953 262.707>
LayerCount: 2
Fore
SplineSet
246 31 m 0
 398 31 429 121 429 183 c 0
 429 243 392 333 264 333 c 2
 189 333 l 1
 189 98 l 2
 189 65 198 31 246 31 c 0
104 122 m 2
 104 523 l 2
 104 606 87 611 17 614 c 1
 11 620 11 641 17 647 c 1
 67 646 96 645 146 645 c 0
 197 645 227 646 276 647 c 1
 282 641 282 620 276 614 c 1
 206 611 189 606 189 523 c 2
 189 373 l 1
 277 373 l 2
 496 373 522 272 522 183 c 0
 522 49.9 435.5 -2 244 -2 c 0
 208 -2 176 0 147 0 c 0
 96 0 66 -1 17 -2 c 1
 11 4 11 25 17 31 c 1
 87 34 104 39 104 122 c 2
EndSplineSet
EndChar

StartChar: afii10047
Encoding: 1069 1069 92
Width: 622
Flags: HMW
HStem: -10 35<188.603 354.115> 291 50<151.594 280.008> 323 56<306.833 443.595> 621 37<205.922 372.452>
VStem: 46 91<72.2243 143.539> 53 30<457.067 493.656> 498 87<334 461.696>
LayerCount: 2
Fore
SplineSet
271 -10 m 0
 174 -10 46 50 46 124 c 0
 46 144 55 163 80 163 c 0
 109 163 124 136 137 99 c 0
 151 59 191 25 267 25 c 0
 415 25 487 143 497 301 c 1
 464 316 435 323 397 323 c 0
 339 323 310 291 243 291 c 0
 184 291 121 320 121 345 c 0
 121 353 126 357 130 357 c 0
 138 357 154 341 192 341 c 0
 251 341 294 379 357 379 c 0
 370 379 436 367 497 333 c 1
 498 334 l 1
 498 547 383 621 304 621 c 0
 166 621 109 540 83 454 c 1
 72.2 450.6 62 453.3 53 459 c 1
 63 511 71 559 75 613 c 1
 132 616 172 658 299 658 c 0
 465 658 585 544 585 335 c 0
 585 150 486 -10 271 -10 c 0
EndSplineSet
EndChar

StartChar: afii10048
Encoding: 1070 1070 93
Width: 905
VWidth: 999
Flags: HW
HStem: -10 28<531.277 648.192> -5 23<15.6328 83.5141 214.897 282.367> 305 39<187 285> 627 23<15.6328 80.5781 216.456 282.367> 629 29<507.71 633.387>
VStem: 110 79<33.5092 610.366> 285 93<190.662 305 344 446.869> 773 93<190.258 459.262>
LayerCount: 2
Fore
SplineSet
562 629 m 0
 478 629 378 537 378 327 c 0
 378 135 484 18 592 18 c 0
 695 18 773 131 773 310 c 0
 773 518 687 629 562 629 c 0
192 109 m 0
 194 26 208.5 21 278.5 18 c 1
 284.5 12 284.5 1 278.5 -5 c 1
 237.5 -2 179.5 0 149.5 0 c 0
 119.5 0 58.5 -3 19.5 -5 c 1
 13.5 1 13.5 12 19.5 18 c 1
 89.5 21 105 26 107 109 c 0
 109 192 110 238 110 321 c 0
 110 404 109 453 107 536 c 0
 105 619 89.5 621 19.5 627 c 1
 13.5 633 13.5 644 19.5 650 c 1
 51.5 648 119 645 149 645 c 0
 179 645 241.5 648 278.5 650 c 1
 284.5 644 284.5 633 278.5 627 c 1
 208.5 622 194.5 619 192 536 c 0
 189.8 460.4 189.1 413.2 189 344 c 1
 286 344 l 1
 299 523 417 658 573 658 c 0
 741 658 866 527 866 329 c 0
 866 129 752 -10 574 -10 c 0
 416 -10 287 111 285 305 c 1
 189 305 l 1
 189.1 231.2 190.1 186.4 192 109 c 0
EndSplineSet
EndChar

StartChar: afii10049
Encoding: 1071 1071 94
Width: 583
VWidth: 999
Flags: HW
HStem: -5 23<295.633 363.514 494.897 562.367> -2 29<7 22> 329 33<310.125 390> 611 35<218.791 400.681> 627 23<496.456 562.367>
VStem: 88 81<416.839 570.598> 390 79<33.5092 324 362 592.404>
AnchorPoint: "unten_anhang" 267.4 1 basechar 0
AnchorPoint: "unten_punkt" 267.4 -110 basechar 0
AnchorPoint: "top_akzent" 270.4 850 basechar 0
LayerCount: 2
Fore
SplineSet
387 536 m 0
 387 569 384.5 621 301 621 c 0
 245 621 169 595 169 502 c 0
 169 396 231 362 314 362 c 2
 389.9 362 l 1
 389.6 422.3 388.6 467.6 387 536 c 0
390 324 m 1
 284 324 266 295 224 189 c 0
 181 80.5 144 0 73 -1 c 2
 7 -2 l 1
 6 0 l 1
 6 19 l 2
 6 24 9 27 13 27 c 2
 22 28 l 2
 54 32 103.6 86.4 155 220 c 0
 180 285 210 310 237 326 c 1
 237 329 l 1
 169 339 88 389 88 491 c 0
 88 560 122 646 308 646 c 0
 343 646 402 645 435 645 c 0
 465 645 521.5 648 558.5 650 c 1
 564.5 644 564.5 633 558.5 627 c 1
 488.5 622 474.5 619 472 536 c 0
 469.5 452 469 403 469 320 c 0
 469 237 470 191.5 472 109 c 0
 474 26 488.5 21 558.5 18 c 1
 564.5 12 564.5 1 558.5 -5 c 1
 517.5 -2 459.5 0 429.5 0 c 0
 399.5 0 338.5 -3 299.5 -5 c 1
 293.5 1 293.5 12 299.5 18 c 1
 369.5 21 385 26 387 109 c 0
 389 192 390 238 390 321 c 2
 390 324 l 1
EndSplineSet
EndChar

StartChar: afii10089
Encoding: 1095 1095 95
Width: 510
VWidth: 999
Flags: HW
HStem: -2 29<274 294 450 470> 146 35<165.488 293.187> 402 29<18 30 186 206 275 294 415.352 480>
VStem: 71 75<194.637 397.49> 335 75<32.4718 189 207.909 398.291>
LayerCount: 2
Fore
SplineSet
335 353 m 2
 335 392 328.8 398.7 294 401 c 2
 279 402 l 2
 275 402.3 273 403 273 407 c 2
 273 429 l 1
 275 431 l 1
 275 431 331.7 429 368 429 c 0
 411.7 429 480 431 480 431 c 1
 481 429 l 1
 481 407 l 2
 481 404 479 402.1 476 402 c 2
 450 401 l 2
 419.1 399.8 410 394 410 353 c 2
 410 78 l 2
 410 40 413.4 33.3 450 29 c 2
 467 27 l 2
 470 26.6 472 25 472 22 c 2
 472 0 l 1
 470 -2 l 1
 470 -2 411 0 374 0 c 0
 333 0 274 -2 274 -2 c 1
 272 0 l 1
 272 21 l 2
 272 25 274 26.5 278 27 c 2
 294 29 l 2
 330.2 33.5 335 39 335 78 c 2
 335 189 l 1
 296 160 264 146 204 146 c 0
 106 146 71 191 71 297 c 2
 71 354 l 2
 71 392 64.3 396.7 30 401 c 2
 22 402 l 2
 19 402.4 17 403 17 407 c 2
 17 429 l 1
 18 431 l 1
 18 431 71.7 429 106 429 c 0
 145 429 206 431 206 431 c 1
 207 429 l 1
 207 408 l 2
 207 404 205 402.3 201 402 c 2
 186 401 l 2
 153.2 398.8 146 391 146 359 c 2
 146 293 l 2
 146 215 153 181 215 181 c 0
 264 181 303 193 335 225 c 1
 335 353 l 2
EndSplineSet
EndChar

StartChar: afii10090
Encoding: 1096 1096 96
Width: 818
VWidth: 999
Flags: HW
HStem: -2 29<33 63 750 784> 0 34<182.117 365.221 449.273 630.268> 402 29<33 63 219 242 305 329 484 513 565 594 750 775>
VStem: 103 75<35.9712 397.122> 369 75<36.284 396.916> 635 75<36.4002 397.278>
CounterMasks: 1 1c
LayerCount: 2
Fore
SplineSet
710 353 m 2
 710 71 l 2
 710 35 717.1 31.1 750 29 c 2
 781 27 l 2
 785 26.7 787 24 787 21 c 2
 787 0 l 1
 784 -2 l 1
 784 -2 700 0 670 0 c 2
 137 0 l 2
 107 0 33 -2 33 -2 c 1
 32 0 l 1
 32 22 l 2
 32 25 33 26.5 37 27 c 2
 63 29 l 2
 97.8 31.7 103 39 103 72 c 2
 103 353 l 2
 103 391 98.9 397.2 63 400 c 2
 37 402 l 2
 34 402.2 32 403 32 407 c 2
 32 429 l 1
 33 431 l 1
 141 429 l 1
 242 431 l 1
 244 429 l 1
 244 408 l 2
 244 404 242 402.4 238 402 c 2
 219 400 l 2
 185.6 396.5 178 394 178 353 c 2
 178 85 l 2
 178 45 184 34 219 34 c 2
 329 34 l 2
 364 34 369 47 369 84 c 2
 369 352 l 2
 369 391 361.8 396.7 329 400 c 2
 309 402 l 2
 306 402.3 304 403 304 407 c 2
 304 429 l 1
 305 431 l 1
 405 429 l 1
 513 431 l 1
 514 429 l 1
 514 407 l 2
 514 404 512 402.3 508 402 c 2
 484 400 l 2
 453.4 397.4 444 393 444 352 c 2
 444 85 l 2
 444 43 456 34 484 34 c 2
 595 34 l 2
 632 34 635 54 635 85 c 2
 635 353 l 2
 635 391 630.6 397 594 400 c 2
 570 402 l 2
 566 402.3 564 403 564 407 c 2
 564 429 l 1
 565 431 l 1
 669 429 l 1
 775 431 l 1
 776 429 l 1
 776 408 l 2
 776 404 774 402.3 771 402 c 2
 750 400 l 2
 718.4 397 710 394 710 353 c 2
EndSplineSet
EndChar

StartChar: afii10091
Encoding: 1097 1097 97
Width: 809
VWidth: 999
Flags: HMW
HStem: -2 29<33 63> 0 34<181.744 365.221 448.881 630.687> 402 29<33 63 219 242 305 329 484 513 565 594 750 775>
VStem: 104 74<35.7845 397.151> 369 75<36.1619 397.035> 635 74<36.5977 397.021>
CounterMasks: 1 1c
LayerCount: 2
Fore
SplineSet
709 353 m 2
 709 74 l 2
 709 49 723 30 746 27 c 0
 758.9 25.3 773 23 774 5 c 2
 780 -128 l 1
 755 -129 l 1
 743 -80 716 0 636 0 c 2
 137 0 l 2
 107 0 33 -2 33 -2 c 1
 32 0 l 1
 32 21 l 2
 32 25 33 26.5 37 27 c 2
 63 29 l 2
 96.4 31.6 104 37 104 72 c 2
 104 353 l 2
 104 391 97.9 397.3 63 400 c 2
 37 402 l 2
 34 402.2 32 403 32 407 c 2
 32 429 l 1
 33 431 l 1
 140 429 l 1
 242 431 l 1
 244 429 l 1
 244 408 l 2
 244 404 242 402.4 238 402 c 2
 219 400 l 2
 185.6 396.5 178 394 178 353 c 2
 178 83 l 2
 178 44 184 34 219 34 c 2
 329 34 l 2
 364 34 369 46 369 83 c 2
 369 352 l 2
 369 391 362.5 396.7 329 400 c 2
 309 402 l 2
 306 402.3 304 403 304 407 c 2
 304 429 l 1
 305 431 l 1
 406 429 l 1
 513 431 l 1
 514 429 l 1
 514 407 l 2
 514 404 512 402.3 508 402 c 2
 484 400 l 2
 449 397.1 444 393 444 352 c 2
 444 83 l 2
 444 42 456 34 485 34 c 2
 594 34 l 2
 631 34 635 51 635 84 c 2
 635 353 l 2
 635 391 626.6 397.3 594 400 c 2
 570 402 l 2
 566 402.3 564 403 564 407 c 2
 564 429 l 1
 565 431 l 1
 667 429 l 1
 775 431 l 1
 776 429 l 1
 776 408 l 2
 776 404 774 402.3 771 402 c 2
 750 400 l 2
 715.1 396.7 709 394 709 353 c 2
EndSplineSet
EndChar

StartChar: afii10092
Encoding: 1098 1098 98
Width: 537
VWidth: 999
Flags: HMW
HStem: -2 31<128 153 280.978 394.853> 224 32<271 396.312> 392 37<95.6091 193.705> 402 29<311 345>
VStem: 196 75<35.7372 224 256 391.315> 431 75<61.062 196.916>
LayerCount: 2
Fore
SplineSet
196 74 m 2
 196 347 l 2
 196 384 189 392 167 392 c 0
 85 392 70 357 53 275 c 1
 26 280 l 1
 33 326 37 371 38 429 c 1
 234 429 l 1
 345 431 l 1
 347 429 l 1
 347 407 l 2
 347 403 345 402.2 342 402 c 2
 311 400 l 2
 275.1 397.7 271 392 271 357 c 2
 271 256 l 1
 328 256 l 2
 424 256 506 230 506 136 c 0
 506 52 445 -2 333 -2 c 1
 333 -2 270.8 0 231 0 c 0
 190.8 0 128 -2 128 -2 c 1
 126 0 l 1
 126 19 l 2
 126 24 129 26.5 134 27 c 2
 153 29 l 2
 188.8 32.8 196 45 196 74 c 2
431 126 m 0
 431 179 409 224 338 224 c 2
 271 224 l 1
 271 78 l 2
 271 42 288 29 334 29 c 0
 384 29 431 44 431 126 c 0
EndSplineSet
EndChar

StartChar: afii10093
Encoding: 1099 1099 99
Width: 681
VWidth: 999
Flags: HW
HStem: -2 31<38 63 188.805 304.466> -2 33<432.625 494.875 600.125 662.375> 224 32<181 306.312> 398 33<432.625 494.875 600.125 662.375> 401 29<38 63 224 249>
VStem: 106 75<34.4717 224 256 394.233> 341 75<61.062 196.916> 508 79<40.8314 388.169>
LayerCount: 2
Fore
SplineSet
579 302 m 0
 577 252 577 156 579 106 c 0
 582.2 27.1 589 21 647 17 c 1
 653 11 653 1 647 -5 c 1
 606 -4 583 0 542 0 c 0
 500.2 0 475 -4 435 -5 c 1
 429 1 429 11 435 17 c 1
 493 22 499.8 27.1 503 106 c 0
 505 156 505 252 503 302 c 0
 499.8 380.9 493 387 435 391 c 1
 429 397 429 408 435 414 c 1
 476 413 499.6 409 541 409 c 0
 582.4 409 607 413 647 414 c 1
 653 408 653 397 647 391 c 1
 589 386 582.2 380.9 579 302 c 0
341 126 m 0
 341 179 319 224 248 224 c 2
 181 224 l 1
 181 74 l 2
 181 39 198 29 244 29 c 0
 294 29 341 44 341 126 c 0
106 74 m 2
 106 355 l 2
 106 384 98.6 395.3 63 399 c 2
 44 401 l 2
 39 401.5 36 404 36 410 c 2
 36 428 l 1
 38 430 l 1
 38 430 106 429 142 429 c 0
 181 429 249 430 249 430 c 1
 251 428 l 1
 251 410 l 2
 251 404 247 401.4 243 401 c 2
 224 399 l 2
 191.3 395.6 181 384 181 355 c 2
 181 256 l 1
 238 256 l 2
 334 256 416 230 416 136 c 0
 416 52 354 -2 243 -2 c 0
 203.6 -2 181.4 0 142 0 c 0
 101.4 0 38 -2 38 -2 c 1
 36 0 l 1
 36 19 l 2
 36 24 39 26.5 44 27 c 2
 63 29 l 2
 99.4 32.8 106 45 106 74 c 2
EndSplineSet
Colour: ff00ff
EndChar

StartChar: afii10094
Encoding: 1100 1100 100
Width: 447
VWidth: 999
Flags: HW
HStem: -2 31<38 63 188.805 304.466> 224 32<181 306.312> 401 29<38 63 224 249>
VStem: 106 75<34.4717 224 256 394.233> 341 75<61.062 196.916>
LayerCount: 2
Fore
SplineSet
341 126 m 0
 341 179 319 224 248 224 c 2
 181 224 l 1
 181 74 l 2
 181 39 198 29 244 29 c 0
 294 29 341 44 341 126 c 0
106 74 m 2
 106 355 l 2
 106 384 98.6 395.3 63 399 c 2
 44 401 l 2
 39 401.5 36 404 36 410 c 2
 36 428 l 1
 38 430 l 1
 38 430 106 429 142 429 c 0
 181 429 249 430 249 430 c 1
 251 428 l 1
 251 410 l 2
 251 404 247 401.4 243 401 c 2
 224 399 l 2
 191.3 395.6 181 384 181 355 c 2
 181 256 l 1
 238 256 l 2
 334 256 416 230 416 136 c 0
 416 52 354 -2 243 -2 c 0
 203.6 -2 181.4 0 142 0 c 0
 101.4 0 38 -2 38 -2 c 1
 36 0 l 1
 36 19 l 2
 36 24 39 26.5 44 27 c 2
 63 29 l 2
 99.4 32.8 106 45 106 74 c 2
EndSplineSet
EndChar

StartChar: afii10095
Encoding: 1101 1101 101
Width: 432
Flags: HMW
HStem: -10 33<135.868 248.983> 188 40<96.8259 189.858> 210 46<168.145 303.228> 408 31<137.092 253.245>
VStem: 35 72<45.2656 105.438> 51 25<298.88 331.675> 315 81<106.985 208.09 230 333.791>
LayerCount: 2
Fore
SplineSet
35 82 m 0
 35 98 46 111 64 111 c 0
 81 111 93 106 107 74 c 0
 119 47 146 23 186 23 c 0
 270 23 315 82 315 201 c 1
 303 206 290 210 277 210 c 0
 239 210 221 188 176 188 c 0
 133 188 87 206 87 220 c 0
 87 224 89 234 95 234 c 0
 102 234 114 228 127 228 c 0
 162 228 189 256 232 256 c 0
 261 256 288 244 314 228 c 1
 317 230 l 1
 317 322 287 408 198 408 c 0
 124 408 93 360 76 296 c 1
 51 300 l 1
 61 348 66 382 69 420 c 1
 118 423 159 439 206 439 c 0
 339 439 396 342 396 221 c 0
 396 60 296 -10 197 -10 c 0
 106 -10 35 29 35 82 c 0
EndSplineSet
EndChar

StartChar: afii10096
Encoding: 1102 1102 102
Width: 686
VWidth: 999
Flags: HW
HStem: -10 35<422.78 523.403> -2 29<29 54 214 240> 198 39<171 268> 402 29<29 54 214 240> 406 33<403.08 503.112>
VStem: 97 74<33.7976 198 237 394.785> 268 80<113.871 198 237 323.327> 569 80<107.111 329.997>
LayerCount: 2
Fore
SplineSet
449 406 m 0
 375 406 348 313 348 226 c 0
 348 149 381 25 475 25 c 0
 516 25 569 53 569 185 c 0
 569 331 527 406 449 406 c 0
269 237 m 1
 279 356 344 439 459 439 c 0
 603 439 649 321 649 217 c 0
 649 117 597 -10 458 -10 c 0
 330 -10 270 97 268 198 c 1
 171 198 l 1
 171 74 l 2
 171 45 181.6 32.4 214 29 c 2
 233 27 l 2
 238 26.5 242 24 242 19 c 2
 242 0 l 1
 240 -2 l 1
 240 -2 171 0 132 0 c 0
 97 0 29 -2 29 -2 c 1
 27 0 l 1
 27 19 l 2
 27 24 30 26.5 35 27 c 2
 54 29 l 2
 86.4 32.4 97 45 97 74 c 2
 97 356 l 2
 97 384 86.8 396.5 54 400 c 2
 35 402 l 2
 30 402.5 27 405 27 410 c 2
 27 429 l 1
 29 431 l 1
 29 431 97 429 132 429 c 0
 171 429 240 431 240 431 c 1
 242 429 l 1
 242 410 l 2
 242 405 238 402.5 233 402 c 2
 214 400 l 2
 183.2 396.8 171 384 171 356 c 2
 171 237 l 1
 269 237 l 1
EndSplineSet
EndChar

StartChar: afii10097
Encoding: 1103 1103 103
Width: 439
Flags: HW
HStem: -2 29<17 32 224 245 360.133 408> 196 34<214.641 280> 204 26<167.232 185> 402 29<162.408 277.495 380 406>
VStem: 57 75<253.842 376.353> 280 75<29.6205 196 230 399.607>
LayerCount: 2
Fore
SplineSet
14 0 m 1
 14 19 l 2
 14 26 20 27 24 27 c 2
 32 28 l 2
 59 31 92 94 107 131 c 0
 124 172 157 196 185 201 c 1
 185 204 l 1
 130 204 57 239 57 310 c 0
 57 339 66 431 237 431 c 0
 313 431 287 429 319 429 c 0
 353 429 406 431 406 431 c 1
 408 429 l 1
 408 405 l 2
 408 403 407 402 405 402 c 2
 380 400 l 2
 362 399 355 391 355 370 c 2
 355 77 l 2
 355 51 360 29 376 28 c 2
 398 27 l 2
 406 27 408 20 408 18 c 2
 408 -2 l 1
 408 -2 352 0 317 0 c 0
 281 0 224 -2 224 -2 c 1
 224 20 l 2
 224 24 226 27 230 27 c 2
 245 28 l 2
 278 30 280 38 280 77 c 2
 280 196 l 1
 255 196 l 2
 215 196 187 155 163 89 c 0
 145 40 112 0 80 -1 c 2
 17 -2 l 1
 14 0 l 1
132 321 m 0
 132 271 156 230 213 230 c 2
 280 230 l 1
 280 366 l 2
 280 398 273 402 234 402 c 0
 148 402 132 368 132 321 c 0
EndSplineSet
EndChar

StartChar: uni04AE
Encoding: 1198 1198 104
Width: 610
VWidth: 999
Flags: HW
HStem: -2 33<-43.1539 38.7211 160.721 242.596> 614 33<-192.31 -132.801 -28.2999 29.5961 197.145 254.331 311.006 377.297>
VStem: 57.2 85<44.3649 325.991>
DStem2: -19.7789 576 -95.1134 547 0.510948 -0.859612<-29.6148 264.07> 247.221 576 159.753 334 0.483796 0.875181<-260.327 28.8238>
LayerCount: 2
Fore
SplineSet
359 109 m 2
 360.5 28 376 21 456 18 c 1
 462 12 462 1 456 -5 c 1
 406 -4 371.2 0 317 0 c 0
 262.4 0 226 -4 177 -5 c 1
 171 1 171 12 177 18 c 1
 257 21 272.4 28 274 109 c 2
 277 259 l 2
 277 296 270.6 296.5 253.1 326 c 2
 121.7 547 l 2
 81.1 615.4 50 624 8 627 c 1
 2 633 1 644 7 650 c 1
 37 649 80 645 119 645 c 0
 159 645 197 649 237 650 c 1
 243 644 243 633 237 627 c 1
 181 624 166.8 618.6 191 576 c 2
 317.2 354 l 2
 326 338 333.1 335 342.1 352 c 2
 461 576 l 2
 483.3 618.1 458.3 624 414 627 c 1
 408 633 408 643 414 649 c 1
 454 648 487 645 510 645 c 0
 533 645 573 648 603 649 c 1
 609 643 609 633 603 627 c 1
 558.3 622.7 524.3 615.7 496.3 565 c 2
 368.6 334 l 2
 361.7 321.5 356 307.5 356 267.7 c 2
 359 109 l 2
EndSplineSet
Colour: ff00ff
EndChar

StartChar: uni04C0
Encoding: 1216 1216 105
Width: 303
VWidth: 999
Flags: HW
HStem: -35.5 7.9<-152.104 -14.6855 -10.2845 129.608> -5 23<-144.43 -76.7523 54.6315 122.305> 41.4 7.8<-154.121 -110.397 89.4385 131.301> 596.2 7.8<-152.582 -110.816 89.2875 132.84> 627 23<-144.43 -76.7523 54.7785 122.305> 668 8<-148.217 127.746> 673 8.1<-150.889 -10.9965 -6.5955 130.823>
VStem: -81.6 8<84.4885 563.687> -50.6 79<33.5092 611.486> 51.4 8<88.047 545.097>
CounterMasks: 1 01c0
LayerCount: 2
Fore
SplineSet
192 109 m 0
 194 26 208.5 21 278.5 18 c 1
 284.5 12 284.5 1 278.5 -5 c 1
 237.5 -2 179.5 0 149.5 0 c 0
 119.5 0 58.5 -3 19.5 -5 c 1
 13.5 1 13.5 12 19.5 18 c 1
 89.5 21 105 26 107 109 c 0
 109 192 110 238 110 321 c 0
 110 404 109 453 107 536 c 0
 105 619 89.5 621 19.5 627 c 1
 13.5 633 13.5 644 19.5 650 c 1
 51.5 648 119 645 149 645 c 0
 179 645 241.5 648 278.5 650 c 1
 284.5 644 284.5 633 278.5 627 c 1
 208.5 622 194.5 619 192 536 c 0
 189.5 452 189 403 189 320 c 0
 189 237 190 191.5 192 109 c 0
EndSplineSet
Colour: ff00ff
EndChar

StartChar: uni04D0
Encoding: 1232 1232 106
Width: 699
VWidth: 999
Flags: HW
HStem: -2 33<-151.73 -87.2642 3.726 72.02 281.27 358.596 465.793 533.02> 241 42<85.664 284.645> 638 20<226.145 240.848> 698 31<158.23 249.06>
VStem: 78.6 69<735.873 804.004> 259.6 69<737.589 804.004>
DStem2: -48.372 102 -0.354996 79 0.390001 0.920814<-30.5131 181.817 227.512 466.368> 178.645 638 184.645 555 0.390001 0.920814<-561.337 -408.806 -359.549 -74.0876> 233.645 658 190.645 555 0.338836 -0.940845<82.3371 370.098 415.035 619.885>
LayerCount: 2
Fore
SplineSet
362.6 729 m 0
 395.6 729 418.6 746 418.6 763 c 0
 418.6 768 417.6 771.3 417.6 776 c 0
 417.6 791 427.6 806 450.6 806 c 0
 477.6 806 487.6 792 487.6 773 c 0
 487.6 721 428.6 698 362.6 698 c 0
 296.6 698 237.6 721 237.6 773 c 0
 237.6 792 247.6 806 274.6 806 c 0
 297.6 806 307.6 791 307.6 776 c 0
 307.6 771.8 306.6 768 306.6 763 c 0
 306.6 746 329.6 729 362.6 729 c 0
260.5 278 m 2
 439.5 278 l 1
 343.5 555 l 1
 340.5 555 l 1
 235.3 296.3 l 2
 231.1 286.1 238.5 278 260.5 278 c 2
147.5 69 m 2
 131.3 27.3 178.9 20.6 216.5 18 c 1
 222.5 12 222.5 1 216.5 -5 c 1
 179.5 -4 149.5 0 108.5 0 c 0
 69.5 0 46.5 -4 9.5 -5 c 1
 3.5 1 3.5 12 9.5 18 c 1
 53 21 83.7 31.3 109.5 92 c 2
 341.5 638 l 1
 354.5 638 378.5 649 393.5 658 c 1
 602.5 76 l 2
 620.5 25 653.7 21.5 692.5 18 c 1
 698.5 12 698.5 1 692.5 -5 c 1
 655.5 -4 612.5 0 571.5 0 c 0
 532.5 0 477.5 -4 440.5 -5 c 1
 434.5 1 434.5 12 440.5 18 c 1
 488.1 21.4 528.6 21 514.5 62 c 2
 451 246 l 1
 242.5 246 l 2
 218.5 246 212.5 237 207.5 224 c 2
 147.5 69 l 2
EndSplineSet
LCarets2: 1 0 
Colour: ff00ff
EndChar

StartChar: uni04D1
Encoding: 1233 1233 107
Width: 454
VWidth: 999
Flags: HW
HStem: -10 41<139.654 240.143 343.315 429.949> 406 33<144.709 258.364> 503 31<171.971 246.548>
VStem: 36 83<50.144 160.39> 55 74<295.655 377.387> 88 73<540.553 619.612> 257 73<541.079 620.243> 293 78<68.9033 233 264.049 372.119>
DStem2: 201 243 214 212 0.971457 0.237216<-61.6983 87.0019>
LayerCount: 2
Fore
SplineSet
330 590 m 0
 330 535 272 503 208 503 c 0
 143 503 88 536 88 590 c 0
 88 608 104 623 127 623 c 0
 149 623 161 609 161 593 c 0
 161 590 161 588 160 585 c 0
 159 582 159 579 159 577 c 0
 159 555 179 534 209 534 c 0
 238 534 259 554 259 576 c 0
 259 579 259 582 258 585 c 0
 257 587 257 589 257 592 c 0
 257 609 274 623 292 623 c 0
 316 623 330 609 330 590 c 0
293 212 m 1
 211 192 l 2
 139.8 174.6 115 129.5 115 92 c 0
 115 62 141 20 189 20 c 0
 216 20 250 51 275 71 c 0
 283 77 287.5 83.1 288 95 c 2
 293 212 l 1
288 46 m 1
 286 46 l 1
 267 31 l 2
 225 -1 205 -10 161 -10 c 0
 94 -10 42 15 42 88 c 0
 42 153 106.4 201.4 199 222 c 2
 289 242 l 2
 292 243 294 256 294 263 c 0
 294 371 251 397 219 397 c 0
 183 397 142 382 142 352 c 0
 142 342 143 336 144 333 c 0
 146 329 147 323 147 316 c 0
 147 304 131 279 103 279 c 0
 81 279 65 295 65 318 c 0
 65 369 149 419 227 419 c 0
 297 419 367.7 390.8 363 257 c 2
 358 115 l 2
 356.1 60 361 30 398 30 c 0
 418 30 421 46 427 46 c 0
 431 46 441 40 441 33 c 0
 441 28 407 -10 360 -10 c 0
 309 -10 294 26 288 46 c 1
EndSplineSet
LCarets2: 1 0 
Colour: ff00ff
EndChar

StartChar: uni04D2
Encoding: 1234 1234 108
Width: 699
VWidth: 999
Flags: HW
HStem: -2 33<-151.73 -87.2642 3.726 72.02 281.27 358.596 465.793 533.02> 241 42<85.664 284.645> 638 20<226.145 240.848> 711 95<79.661 157.629 248.661 326.629>
VStem: 71.6 94<718.394 798.312> 240.6 94<718.394 798.312>
DStem2: -48.372 102 -0.354996 79 0.390001 0.920814<-30.5131 181.817 227.512 466.368> 178.645 638 184.645 555 0.390001 0.920814<-561.337 -408.806 -359.549 -74.0876> 233.645 658 190.645 555 0.338836 -0.940845<82.3371 370.098 415.035 619.885>
LayerCount: 2
Fore
SplineSet
231.6 758 m 0
 231.6 784 252.6 806 278.6 806 c 0
 304.6 806 325.6 784 325.6 758 c 0
 325.6 732 304.6 711 278.6 711 c 0
 252.6 711 231.6 732 231.6 758 c 0
400.6 758 m 0
 400.6 784 421.6 806 447.6 806 c 0
 473.6 806 494.6 784 494.6 758 c 0
 494.6 732 473.6 711 447.6 711 c 0
 421.6 711 400.6 732 400.6 758 c 0
260.5 278 m 2
 439.5 278 l 1
 343.5 555 l 1
 340.5 555 l 1
 235.3 296.3 l 2
 231.1 286.1 238.5 278 260.5 278 c 2
147.5 69 m 2
 131.3 27.3 178.9 20.6 216.5 18 c 1
 222.5 12 222.5 1 216.5 -5 c 1
 179.5 -4 149.5 0 108.5 0 c 0
 69.5 0 46.5 -4 9.5 -5 c 1
 3.5 1 3.5 12 9.5 18 c 1
 53 21 83.7 31.3 109.5 92 c 2
 341.5 638 l 1
 354.5 638 378.5 649 393.5 658 c 1
 602.5 76 l 2
 620.5 25 653.7 21.5 692.5 18 c 1
 698.5 12 698.5 1 692.5 -5 c 1
 655.5 -4 612.5 0 571.5 0 c 0
 532.5 0 477.5 -4 440.5 -5 c 1
 434.5 1 434.5 12 440.5 18 c 1
 488.1 21.4 528.6 21 514.5 62 c 2
 451 246 l 1
 242.5 246 l 2
 218.5 246 212.5 237 207.5 224 c 2
 147.5 69 l 2
EndSplineSet
LCarets2: 1 0 
Colour: ff00ff
EndChar

StartChar: uni04D3
Encoding: 1235 1235 109
Width: 454
VWidth: 999
Flags: HW
HStem: -10 41<139.654 240.143 343.315 429.949> 406 33<144.709 258.364> 528 95<91.0156 168.984 260.016 337.984>
VStem: 36 83<50.144 160.39> 55 74<295.655 377.387> 83 94<535.394 615.312> 252 94<535.394 615.312> 293 78<68.9033 233 264.049 372.119>
DStem2: 201 243 214 212 0.971457 0.237216<-61.6983 87.0019>
LayerCount: 2
Fore
SplineSet
83 575 m 0
 83 601 104 623 130 623 c 0
 156 623 177 601 177 575 c 0
 177 549 156 528 130 528 c 0
 104 528 83 549 83 575 c 0
252 575 m 0
 252 601 273 623 299 623 c 0
 325 623 346 601 346 575 c 0
 346 549 325 528 299 528 c 0
 273 528 252 549 252 575 c 0
293 212 m 1
 211 192 l 2
 139.8 174.6 115 129.5 115 92 c 0
 115 62 141 20 189 20 c 0
 216 20 250 51 275 71 c 0
 283 77 287.5 83.1 288 95 c 2
 293 212 l 1
288 46 m 1
 286 46 l 1
 267 31 l 2
 225 -1 205 -10 161 -10 c 0
 94 -10 42 15 42 88 c 0
 42 153 106.4 201.4 199 222 c 2
 289 242 l 2
 292 243 294 256 294 263 c 0
 294 371 251 397 219 397 c 0
 183 397 142 382 142 352 c 0
 142 342 143 336 144 333 c 0
 146 329 147 323 147 316 c 0
 147 304 131 279 103 279 c 0
 81 279 65 295 65 318 c 0
 65 369 149 419 227 419 c 0
 297 419 367.7 390.8 363 257 c 2
 358 115 l 2
 356.1 60 361 30 398 30 c 0
 418 30 421 46 427 46 c 0
 431 46 441 40 441 33 c 0
 441 28 407 -10 360 -10 c 0
 309 -10 294 26 288 46 c 1
EndSplineSet
LCarets2: 1 0 
Colour: ff00ff
EndChar

StartChar: uni04D4
Encoding: 1236 1236 110
Width: 891
VWidth: 999
Flags: HW
HStem: -2 29<4 35 167 201 342 374> 0 39<514.23 740.226> 266 39<271 429> 329 34<512 654.005> 605 40<517.062 711.984> 618 28<296 333>
VStem: 429 83<40.8651 266 305 329 363 597.745> 671 33<247 312.081 407 445>
DStem2: 102.87 85 148 68 0.46188 0.886943<-25.6807 228.955 272.783 581.116>
LayerCount: 2
Fore
SplineSet
431.5 271 m 1
 244 271 l 1
 144 79 l 2
 123.7 40 176.4 20.6 214 18 c 1
 220 12 220 1 214 -5 c 1
 177 -4 136 0 95 0 c 0
 56 0 34 -4 -3 -5 c 1
 -9 1 -9 12 -3 18 c 1
 40.5 21 79.3 42.7 111 102 c 2
 354 557 l 2
 370.2 587.7 364 624 294 627 c 1
 288 633 288 644 294 650 c 1
 344 649 436.3 645 468 645 c 2
 766.5 645 l 2
 790.5 645 798.5 649 815.5 652 c 0
 818.5 652 819.5 651 819.5 649 c 0
 821.5 641 836.5 542 841.5 501 c 1
 831.7 496.3 830.9 494.2 818.5 496 c 1
 796.5 565 780.5 618 705.5 618 c 2
 550.5 618 l 2
 526.5 618 515.4 598 514.5 574 c 0
 511.5 492 512.5 356 512.5 356 c 1
 628.5 357 l 2
 713.5 357.7 716.5 369 719.5 424 c 1
 725.5 430 736.5 430 742.5 424 c 1
 741.5 394 737.5 371.6 737.5 338 c 0
 737.5 307.5 741.5 295 742.5 260 c 1
 736.5 254 725.5 254 719.5 260 c 1
 716.5 305 713.5 326.3 628.5 327 c 2
 512.5 328 l 1
 512.5 328 511.5 152.5 514.5 69 c 0
 515.5 42 528.5 26 550.5 26 c 2
 706.5 26 l 2
 782.5 26 817.5 98 837.5 170 c 1
 850.6 173.2 852.1 171 862.5 165 c 1
 854.5 114 839.5 45 825.5 -5 c 1
 825.5 -5 745.5 0 697.5 0 c 2
 472.5 0 l 2
 442.5 0 391.5 -4 342.5 -5 c 1
 336.5 1 336.5 12 342.5 18 c 1
 412.5 21 427 26 429.5 109 c 0
 431.5 173.4 431.5 215.9 431.5 271 c 1
429.5 536 m 0
 428.5 574 423 606 419 608 c 1
 258 300 l 1
 431.5 300 l 1
 431.5 306.8 431.5 313.7 431.5 321 c 0
 431.5 404 431.6 455 429.5 536 c 0
EndSplineSet
Colour: ff00ff
EndChar

StartChar: uni04D5
Encoding: 1237 1237 111
Width: 687
VWidth: 999
Flags: HW
HStem: -10 42<132.793 243.1> -10 49<444.327 573.669> 218 35<215.914 298 372 518.524> 406 33<139.076 257.423 437.083 538.999>
VStem: 39 72<52.4808 155.985> 50 73<295.734 386.997> 298 73<125.441 215> 572 76<285.698 380.924>
AnchorPoint: "top_akzent" 341 645 basechar 0
LayerCount: 2
Fore
SplineSet
252 375 m 0
 238 390 210 396 190 396 c 0
 153 396 117 375 117 347 c 0
 117 337 118 331 120 328 c 0
 122 324 123 318 123 311 c 0
 123 296 110 279 86 279 c 0
 57 279 48 303 48 322 c 0
 48 377 122 419 200 419 c 0
 223 419 296 417 331 353 c 1
 362 396 412 419 466 419 c 0
 574 419 616 356 616 324 c 0
 616 247 571 212 352 209 c 1
 352 165.4 359.6 121.9 383.3 89.5 c 0
 406.4 57.9 445 27 480 27 c 0
 531 27 565 61 593 94 c 1
 601 93 609 84 612 79 c 1
 584 28 529 -10 466 -10 c 0
 380 -10 343 35 323 58 c 0
 315 67 311 63 300 51 c 0
 256 6 208 -10 173 -10 c 0
 139 -10 105 -4 84 8 c 0
 51 27 37 57 37 97 c 0
 37 135 63 177 97 197 c 0
 138 221 201 234 283 240 c 1
 282 315 274 352 252 375 c 0
283 206 m 1
 217 201 170 185 141 163 c 0
 118 146 105 124 105 102 c 0
 105 61 121 20 174 20 c 0
 223 20 264 71 278 109 c 1
 282 127 283 158 283 206 c 1
353 242 m 1
 498 244 543 263 543 321 c 0
 543 351 511 396 465 396 c 0
 400 396 361 323 353 242 c 1
EndSplineSet
Colour: ff00ff
EndChar

StartChar: uni04D6
Encoding: 1238 1238 112
Width: 567
VWidth: 999
Flags: HW
HStem: -2 33<-218.936 -145.811> 0 39<-38.842 193.336> 323 38<-43.561 124.761> 605 40<-38.499 163.991> 614 33<-218.303 -145.811> 698 31<3.024 93.854>
VStem: -128.6 85<43.3808 323 361 601.619> -76.6 69<735.873 804.004> 104.4 69<737.589 804.004> 138.4 33<251.625 306.925 373.446 432.375> 210.4 33<498.32 539.828> 259.4 35<122.11 168.353>
LayerCount: 2
Fore
SplineSet
298.4 729 m 0
 331.4 729 354.4 746 354.4 763 c 0
 354.4 768 353.4 771.3 353.4 776 c 0
 353.4 791 363.4 806 386.4 806 c 0
 413.4 806 423.4 792 423.4 773 c 0
 423.4 721 364.4 698 298.4 698 c 0
 232.4 698 173.4 721 173.4 773 c 0
 173.4 792 183.4 806 210.4 806 c 0
 233.4 806 243.4 791 243.4 776 c 0
 243.4 771.8 242.4 768 242.4 763 c 0
 242.4 746 265.4 729 298.4 729 c 0
304 357 m 2
 389 357.7 393 369 396 424 c 1
 402 430 412 430 418 424 c 1
 417 394 414 371.6 414 338 c 0
 414 307.5 417 295 418 260 c 1
 412 254 402 254 396 260 c 1
 393 305 389 326.3 304 327 c 2
 187 328 l 1
 187 328 186 153 189 69 c 0
 190 42 204 26 226 26 c 2
 382 26 l 2
 458 26 494 98 514 170 c 1
 527 173 528 171 538 165 c 1
 530 114 516 45 502 -5 c 1
 502 -5 422 0 374 0 c 2
 152 0 l 2
 122 0 69 -4 20 -5 c 1
 14 1 14 12 20 18 c 1
 90 21 103 26 106 109 c 0
 108 191 108 238 108 321 c 0
 108 404 108 454 106 536 c 0
 103 619 90 624 20 627 c 1
 14 633 14 644 20 650 c 1
 70 649 120 645 150 645 c 2
 442 645 l 2
 466 645 475 649 492 652 c 0
 495 652 496 651 496 649 c 0
 498 641 513 542 518 501 c 1
 508 496 506 494 494 496 c 1
 472 565 457 618 382 618 c 2
 226 618 l 2
 202 618 190 598 189 574 c 0
 186 492 187 356 187 356 c 1
 304 357 l 2
EndSplineSet
LCarets2: 1 0 
Colour: ff00ff
EndChar

StartChar: uni04D7
Encoding: 1239 1239 113
Width: 435
VWidth: 999
Flags: HW
HStem: -10 49<198.819 330.136> 248 34<124 319.997> 404 33<182.425 285.355> 503 31<186.971 261.548>
VStem: 37 84<130.927 248 282 306.625> 103 73<540.553 619.612> 272 73<541.079 620.243> 320 86<257.5 365.153>
LayerCount: 2
Fore
SplineSet
345 590 m 0
 345 535 287 503 223 503 c 0
 158 503 103 536 103 590 c 0
 103 608 119 623 142 623 c 0
 164 623 176 609 176 593 c 0
 176 590 176 588 175 585 c 0
 174 582 174 579 174 577 c 0
 174 555 194 534 224 534 c 0
 253 534 274 554 274 576 c 0
 274 579 274 582 273 585 c 0
 272 587 272 589 272 592 c 0
 272 609 289 623 307 623 c 0
 331 623 345 609 345 590 c 0
114 259 m 1
 307 264 l 2
 317 264.3 321 268 321 277 c 0
 321 357 277 396 231 396 c 0
 195 396 132 367 114 259 c 1
378 89 m 1
 389 88 395 83 398 73 c 1
 360 23 303 -10 231 -10 c 0
 162 -10 112 13 80 51 c 0
 49 87 35 140 35 193 c 0
 35 338 140.9 419 231 419 c 0
 364 419 397 331 397 251 c 0
 397 241 390 234.2 379 234 c 2
 111 230 l 1
 111 175 122 127 141 96 c 0
 171 47 221 27 255 27 c 0
 310 27 343 53 378 89 c 1
EndSplineSet
LCarets2: 1 0 
Colour: ff00ff
EndChar

StartChar: uni04D8
Encoding: 1240 1240 114
Width: 644
VWidth: 999
Flags: HW
HStem: -12 34<246.269 393.278> 216 44<122 511> 624 34<207.892 368.818>
VStem: 521 90<221.919 443.038>
LayerCount: 2
Fore
SplineSet
97 523 m 1
 74 547 l 1
 153 621 200 658 310 658 c 0
 525 658 611 485 611 326 c 0
 611 131 509 -12 316 -12 c 0
 124 -12 53 118 42 260 c 1
 520 260 l 1
 521 271 521 283 521 297 c 0
 521 483 429 624 294 624 c 0
 201 624 150 575 97 523 c 1
122 216 m 1
 153 86 225 22 323 22 c 0
 429 22 493 116 511 216 c 1
 122 216 l 1
EndSplineSet
Colour: ff00ff
EndChar

StartChar: afii10846
Encoding: 1241 1241 115
Width: 435
VWidth: 999
Flags: HW
HStem: -9 33<142.645 245.575> 146 34<108.003 304> 389 49<97.864 229.181>
VStem: 22 86<62.847 170.5> 307 84<121.375 146 180 297.073>
AnchorPoint: "top_akzent" 211 645 basechar 0
LayerCount: 2
Fore
SplineSet
314 149 m 1
 121 144 l 2
 111 143.7 107 140 107 131 c 0
 107 51 151 12 197 12 c 0
 233 12 296 41 314 149 c 1
50 319 m 1
 39 320 33 325 30 335 c 1
 68 385 125 418 197 418 c 0
 266 418 316 395 348 357 c 0
 379 321 393 268 393 215 c 0
 393 70 287.1 -11 197 -11 c 0
 64 -11 31 77 31 157 c 0
 31 167 38 173.8 49 174 c 2
 317 178 l 1
 317 233 306 281 287 312 c 0
 257 361 207 381 173 381 c 0
 118 381 85 355 50 319 c 1
EndSplineSet
Colour: ff00ff
EndChar

StartChar: uni04DA
Encoding: 1242 1242 116
Width: 644
VWidth: 999
Flags: HW
HStem: -12 34<246.269 393.278> 216 44<122 511> 624 34<207.892 368.818> 711 96<191.332 270.668 380.332 459.668>
VStem: 183 96<719.332 798.668> 372 96<719.332 798.668> 521 90<221.919 443.038>
LayerCount: 2
Fore
SplineSet
372 759 m 0
 372 785 394 807 420 807 c 0
 446 807 468 785 468 759 c 0
 468 733 446 711 420 711 c 0
 394 711 372 733 372 759 c 0
183 759 m 0
 183 785 205 807 231 807 c 0
 257 807 279 785 279 759 c 0
 279 733 257 711 231 711 c 0
 205 711 183 733 183 759 c 0
97 523 m 1
 74 547 l 1
 153 621 200 658 310 658 c 0
 525 658 611 485 611 326 c 0
 611 131 509 -12 316 -12 c 0
 124 -12 53 118 42 260 c 1
 520 260 l 1
 521 271 521 283 521 297 c 0
 521 483 429 624 294 624 c 0
 201 624 150 575 97 523 c 1
122 216 m 1
 153 86 225 22 323 22 c 0
 429 22 493 116 511 216 c 1
 122 216 l 1
EndSplineSet
LCarets2: 1 0 
Colour: ff00ff
EndChar

StartChar: uni04DB
Encoding: 1243 1243 117
Width: 435
VWidth: 999
Flags: HW
HStem: -9 33<142.645 245.575> 146 34<108.003 304> 389 49<97.864 229.181> 526 95<91.0156 168.984 260.016 337.984>
VStem: 22 86<62.847 170.5> 83 94<533.394 613.312> 252 94<533.394 613.312> 307 84<121.375 146 180 297.073>
LayerCount: 2
Fore
SplineSet
83 573 m 0
 83 599 104 621 130 621 c 0
 156 621 177 599 177 573 c 0
 177 547 156 526 130 526 c 0
 104 526 83 547 83 573 c 0
252 573 m 0
 252 599 273 621 299 621 c 0
 325 621 346 599 346 573 c 0
 346 547 325 526 299 526 c 0
 273 526 252 547 252 573 c 0
314 149 m 1
 121 144 l 2
 111 143.7 107 140 107 131 c 0
 107 51 151 12 197 12 c 0
 233 12 296 41 314 149 c 1
50 319 m 1
 39 320 33 325 30 335 c 1
 68 385 125 418 197 418 c 0
 266 418 316 395 348 357 c 0
 379 321 393 268 393 215 c 0
 393 70 287.1 -11 197 -11 c 0
 64 -11 31 77 31 157 c 0
 31 167 38 173.8 49 174 c 2
 317 178 l 1
 317 233 306 281 287 312 c 0
 257 361 207 381 173 381 c 0
 118 381 85 355 50 319 c 1
EndSplineSet
LCarets2: 1 0 
Colour: ff00ff
EndChar

StartChar: uni04E6
Encoding: 1254 1254 120
Width: 695
VWidth: 999
Flags: HW
HStem: -10 34<141.205 288.828> 624 34<110.338 258.703> 711 96<59.832 139.168 248.832 328.168>
VStem: -115.5 96<199.09 441.882> 51.5 96<719.332 798.668> 240.5 96<719.332 798.668> 417.5 96<196.124 451.881>
LayerCount: 2
Fore
SplineSet
400.5 759 m 0
 400.5 785 422.5 807 448.5 807 c 0
 474.5 807 496.5 785 496.5 759 c 0
 496.5 733 474.5 711 448.5 711 c 0
 422.5 711 400.5 733 400.5 759 c 0
211.5 759 m 0
 211.5 785 233.5 807 259.5 807 c 0
 285.5 807 307.5 785 307.5 759 c 0
 307.5 733 285.5 711 259.5 711 c 0
 233.5 711 211.5 733 211.5 759 c 0
327 634 m 0
 236 634 126 537 126 327 c 0
 126 135 244 14 366 14 c 0
 480 14 569 131 569 310 c 0
 569 512 459 634 327 634 c 0
659 329 m 0
 659 245 639 172.7 599.2 116 c 0
 544.3 37.7 456.8 -10 346 -10 c 0
 176 -10 36 113 36 310 c 0
 36 397.2 58.4 475.7 102.3 536 c 0
 157.1 611.2 240.7 658 340 658 c 0
 519 658 659 536 659 329 c 0
EndSplineSet
LCarets2: 1 0 
Colour: ff00ff
EndChar

StartChar: uni04E7
Encoding: 1255 1255 121
Width: 482
VWidth: 999
Flags: HW
HStem: -10 33<208.521 319.011> 406 33<182.113 294.766> 528 95<129.016 206.984 298.016 375.984>
VStem: 41 86<115.624 315.171> 121 94<535.394 615.312> 290 94<535.394 615.312> 377 86<111.049 316.574>
LayerCount: 2
Fore
SplineSet
110 575 m 0
 110 601 131 623 157 623 c 0
 183 623 204 601 204 575 c 0
 204 549 183 528 157 528 c 0
 131 528 110 549 110 575 c 0
279 575 m 0
 279 601 300 623 326 623 c 0
 352 623 373 601 373 575 c 0
 373 549 352 528 326 528 c 0
 300 528 279 549 279 575 c 0
40 195 m 0
 40 255 58 311 93 352 c 0
 128 393 179 419 242 419 c 0
 388 419 442 303 442 204 c 0
 442 146 423 86 380 44 c 0
 347 12 301 -10 240 -10 c 0
 105 -10 40 98 40 195 c 0
228 396 m 0
 142 396 116 300 116 217 c 0
 116 144 155 13 254 13 c 0
 299 13 366 54 366 174 c 0
 366 311 310 396 228 396 c 0
EndSplineSet
LCarets2: 1 0 
Colour: ff00ff
EndChar

StartChar: uni04E8
Encoding: 1256 1256 122
Width: 695
VWidth: 999
Flags: HW
HStem: -10 24<305.392 425.817> 266 51<378.824 525.892> 312 52<168.836 331.602> 634 24<273.782 390.949>
VStem: 36 90<198.309 447.988> 91.5 15<264.133 269.16> 569 90<193.813 452.752>
LayerCount: 2
Fore
SplineSet
327 634 m 0
 236 634 126 537 126 327 c 0
 126 324 126 321.1 126.1 318.2 c 1
 165.3 349.6 227.1 364 264.5 364 c 0
 362.5 364 392.5 317 455.5 317 c 0
 487.6 317 534.7 329.8 567.2 353.7 c 1
 552.5 529.5 449.2 634 327 634 c 0
659 329 m 0
 659 245 639 172.7 599.2 116 c 0
 544.3 37.7 456.8 -10 346 -10 c 0
 176 -10 36 113 36 310 c 0
 36 397.2 58.4 475.7 102.3 536 c 0
 157.1 611.2 240.7 658 340 658 c 0
 519 658 659 536 659 329 c 0
568.9 317.6 m 1
 526.6 277.8 475.9 266 437.5 266 c 0
 345.5 266 321.5 312 246.5 312 c 0
 216.9 312 162.8 306.8 128.1 283.2 c 1
 144.5 116.8 253.5 14 366 14 c 0
 480 14 569 131 569 310 c 0
 569 312.6 568.9 315.1 568.9 317.6 c 1
EndSplineSet
Colour: ff00ff
EndChar

StartChar: uni04E9
Encoding: 1257 1257 123
Width: 482
VWidth: 999
Flags: HW
HStem: -10 33<208.521 319.011> 179 50<214.959 359.048> 207 42<127.26 244.294> 406 33<182.113 294.766>
VStem: 41 86<115.624 315.171> 377 86<111.049 316.574>
AnchorPoint: "unten_punkt" 246 -107 basechar 0
AnchorPoint: "top_akzent" 236 645 basechar 0
LayerCount: 2
Fore
SplineSet
40 195 m 0
 40 255 58 311 93 352 c 0
 128 393 179 419 242 419 c 0
 388 419 442 303 442 204 c 0
 442 146 423 86 380 44 c 0
 347 12 301 -10 240 -10 c 0
 105 -10 40 98 40 195 c 0
365.1 203.9 m 1
 342.6 191.7 312.1 179 284 179 c 0
 241 179 207 207 172 207 c 0
 160 207 129 200 122 200 c 0
 119.4 200 117.6 201.2 116.4 203 c 1
 121 128.5 161.1 13 254 13 c 0
 299 13 366 54 366 174 c 0
 366 184.3 365.7 194.2 365.1 203.9 c 1
362 234.4 m 1
 347.8 335.5 297.2 396 228 396 c 0
 142.3 396 116.2 300.6 116 217.8 c 1
 127.3 232.1 184.4 249 223 249 c 0
 268 249 290 229 328 229 c 0
 339.7 229 351.4 231.2 362 234.4 c 1
EndSplineSet
Colour: ff9ccc
EndChar

StartChar: uni04EA
Encoding: 1258 1258 124
Width: 695
VWidth: 999
Flags: HW
HStem: -10 24<305.392 425.817> 266 51<378.824 525.892> 312 52<168.836 331.602> 634 24<273.782 390.949> 713 96<206.832 286.168 395.832 475.168>
VStem: 36 90<198.309 447.988> 91.5 15<264.133 269.16> 198.5 96<721.332 800.668> 387.5 96<721.332 800.668> 569 90<193.813 452.752>
LayerCount: 2
Fore
SplineSet
387.5 761 m 0
 387.5 787 409.5 809 435.5 809 c 0
 461.5 809 483.5 787 483.5 761 c 0
 483.5 735 461.5 713 435.5 713 c 0
 409.5 713 387.5 735 387.5 761 c 0
198.5 761 m 0
 198.5 787 220.5 809 246.5 809 c 0
 272.5 809 294.5 787 294.5 761 c 0
 294.5 735 272.5 713 246.5 713 c 0
 220.5 713 198.5 735 198.5 761 c 0
327 634 m 0
 236 634 126 537 126 327 c 0
 126 324 126 321.1 126.1 318.2 c 1
 165.3 349.6 227.1 364 264.5 364 c 0
 362.5 364 392.5 317 455.5 317 c 0
 487.6 317 534.7 329.8 567.2 353.7 c 1
 552.5 529.5 449.2 634 327 634 c 0
659 329 m 0
 659 245 639 172.7 599.2 116 c 0
 544.3 37.7 456.8 -10 346 -10 c 0
 176 -10 36 113 36 310 c 0
 36 397.2 58.4 475.7 102.3 536 c 0
 157.1 611.2 240.7 658 340 658 c 0
 519 658 659 536 659 329 c 0
568.9 317.6 m 1
 526.6 277.8 475.9 266 437.5 266 c 0
 345.5 266 321.5 312 246.5 312 c 0
 216.9 312 162.8 306.8 128.1 283.2 c 1
 144.5 116.8 253.5 14 366 14 c 0
 480 14 569 131 569 310 c 0
 569 312.6 568.9 315.1 568.9 317.6 c 1
EndSplineSet
LCarets2: 1 0 
Colour: ff00ff
EndChar

StartChar: uni04EB
Encoding: 1259 1259 125
Width: 482
VWidth: 999
Flags: HW
HStem: -10 33<208.521 319.011> 179 50<214.959 359.048> 207 42<127.26 244.294> 406 33<182.113 294.766> 526 95<124.016 201.984 293.016 370.984>
VStem: 41 86<115.624 315.171> 116 94<533.394 613.312> 285 94<533.394 613.312> 377 86<111.049 316.574>
LayerCount: 2
Fore
SplineSet
40 195 m 0
 40 255 58 311 93 352 c 0
 128 393 179 419 242 419 c 0
 388 419 442 303 442 204 c 0
 442 146 423 86 380 44 c 0
 347 12 301 -10 240 -10 c 0
 105 -10 40 98 40 195 c 0
116 573 m 0
 116 599 137 621 163 621 c 0
 189 621 210 599 210 573 c 0
 210 547 189 526 163 526 c 0
 137 526 116 547 116 573 c 0
285 573 m 0
 285 599 306 621 332 621 c 0
 358 621 379 599 379 573 c 0
 379 547 358 526 332 526 c 0
 306 526 285 547 285 573 c 0
365.1 203.9 m 1
 342.6 191.7 312.1 179 284 179 c 0
 241 179 207 207 172 207 c 0
 160 207 129 200 122 200 c 0
 119.4 200 117.6 201.2 116.4 203 c 1
 121 128.5 161.1 13 254 13 c 0
 299 13 366 54 366 174 c 0
 366 184.3 365.7 194.2 365.1 203.9 c 1
362 234.4 m 1
 347.8 335.5 297.2 396 228 396 c 0
 142.3 396 116.2 300.6 116 217.8 c 1
 127.3 232.1 184.4 249 223 249 c 0
 268 249 290 229 328 229 c 0
 339.7 229 351.4 231.2 362 234.4 c 1
EndSplineSet
LCarets2: 1 0 
Colour: ff00ff
EndChar

StartChar: uni04EF
Encoding: 1263 1263 126
Width: 495
VWidth: 999
Flags: HW
HStem: -232 80<67.752 163.025> 398 33<12.625 62.5342 164.928 213.375 337.625 389.171 461.975 506.375> 518 50<139.891 396.59>
VStem: 138 261<518.239 568>
DStem2: 177.233 333 94.9014 323 0.395053 -0.918658<-54.1669 236.484> 222 -34 245 -74 0.397404 0.917644<-98.3122 43.0767 162.026 450.625>
LayerCount: 2
Fore
SplineSet
185 -173 m 0
 151 -234 113 -241 93 -241 c 0
 67 -241 48 -226 48 -206 c 0
 48 -194 59 -173 87 -173 c 0
 97 -173 105 -178 118 -178 c 0
 142 -178 163 -159 173 -140 c 1
 187 -110 200 -84 211 -52 c 0
 221 -25 218.8 8.7 198 57 c 2
 90 308 l 2
 64 369 52 387 10 391 c 1
 4 397 4 408 10 414 c 1
 29 411.9 67 408.9 87 409 c 0
 115 409 165 412 195 414 c 1
 201 408 201 397 195 391 c 1
 137 386 146 357 163 317 c 2
 248 119 l 2
 263.9 81.9 268.2 81.6 284 118 c 2
 379 337 l 2
 394 371 360 388 330 391 c 1
 324 397 324 408 330 414 c 1
 361 411 394.7 409 417 409 c 0
 440 409 461 411 485 414 c 1
 491 408 491 397 485 391 c 1
 450 388 415 346 402 318 c 0
 351 211 301 93 225 -91 c 0
 213 -119 200 -146 185 -173 c 0
375 510 m 2
 151 510 l 2
 142 510 138 521 138 528 c 0
 138 540 149 560 160 560 c 2
 385 560 l 2
 395 560 399 549 399 543 c 0
 399 531 388 510 375 510 c 2
EndSplineSet
LCarets2: 1 0 
Colour: ff00ff
EndChar

StartChar: uni04F1
Encoding: 1265 1265 127
Width: 495
VWidth: 999
Flags: HW
HStem: -232 80<67.752 163.025> 398 33<12.625 62.5342 164.928 213.375 337.625 389.171 461.975 506.375> 526 95<157.016 234.984 326.016 403.984>
VStem: 149 94<533.394 613.312> 318 94<533.394 613.312>
DStem2: 177.233 333 94.9014 323 0.395053 -0.918658<-54.1669 236.484> 222 -34 245 -74 0.397404 0.917644<-98.3122 43.0767 162.026 450.625>
LayerCount: 2
Fore
SplineSet
185 -173 m 0
 151 -234 113 -241 93 -241 c 0
 67 -241 48 -226 48 -206 c 0
 48 -194 59 -173 87 -173 c 0
 97 -173 105 -178 118 -178 c 0
 142 -178 163 -159 173 -140 c 1
 187 -110 200 -84 211 -52 c 0
 221 -25 218.8 8.7 198 57 c 2
 90 308 l 2
 64 369 52 387 10 391 c 1
 4 397 4 408 10 414 c 1
 29 411.9 67 408.9 87 409 c 0
 115 409 165 412 195 414 c 1
 201 408 201 397 195 391 c 1
 137 386 146 357 163 317 c 2
 248 119 l 2
 263.9 81.9 268.2 81.6 284 118 c 2
 379 337 l 2
 394 371 360 388 330 391 c 1
 324 397 324 408 330 414 c 1
 361 411 394.7 409 417 409 c 0
 440 409 461 411 485 414 c 1
 491 408 491 397 485 391 c 1
 450 388 415 346 402 318 c 0
 351 211 301 93 225 -91 c 0
 213 -119 200 -146 185 -173 c 0
149 573 m 0
 149 599 170 621 196 621 c 0
 222 621 243 599 243 573 c 0
 243 547 222 526 196 526 c 0
 170 526 149 547 149 573 c 0
318 573 m 0
 318 599 339 621 365 621 c 0
 391 621 412 599 412 573 c 0
 412 547 391 526 365 526 c 0
 339 526 318 547 318 573 c 0
EndSplineSet
LCarets2: 1 0 
Colour: ff00ff
EndChar

StartChar: uni04F3
Encoding: 1267 1267 128
Width: 495
VWidth: 999
Flags: HW
HStem: -232 80<67.752 163.025> 398 33<12.625 62.5342 164.928 213.375 337.625 389.171 461.975 506.375>
DStem2: 177.233 333 94.9014 323 0.395053 -0.918658<-54.1669 236.484> 222 -34 245 -74 0.397404 0.917644<-98.3122 43.0767 162.026 450.625>
LayerCount: 2
Fore
SplineSet
185 -173 m 0
 151 -234 113 -241 93 -241 c 0
 67 -241 48 -226 48 -206 c 0
 48 -194 59 -173 87 -173 c 0
 97 -173 105 -178 118 -178 c 0
 142 -178 163 -159 173 -140 c 1
 187 -110 200 -84 211 -52 c 0
 221 -25 218.8 8.7 198 57 c 2
 90 308 l 2
 64 369 52 387 10 391 c 1
 4 397 4 408 10 414 c 1
 29 411.9 67 408.9 87 409 c 0
 115 409 165 412 195 414 c 1
 201 408 201 397 195 391 c 1
 137 386 146 357 163 317 c 2
 248 119 l 2
 263.9 81.9 268.2 81.6 284 118 c 2
 379 337 l 2
 394 371 360 388 330 391 c 1
 324 397 324 408 330 414 c 1
 361 411 394.7 409 417 409 c 0
 440 409 461 411 485 414 c 1
 491 408 491 397 485 391 c 1
 450 388 415 346 402 318 c 0
 351 211 301 93 225 -91 c 0
 213 -119 200 -146 185 -173 c 0
462 615 m 0
 462 609 461 602 455 596 c 2
 341 486 l 2
 339 484 337 484 335 484 c 0
 330 484 321 489 321 497 c 0
 321 498 321 500 322 501 c 2
 400 640 l 2
 405 649 412 652 424 652 c 0
 445 652 462 633.6 462 615 c 0
330 621 m 0
 330 616 329 610 325 605 c 2
 223 484 l 2
 221 482 218 481 215 481 c 0
 209 481 201 486 201 494 c 0
 201 495 201 496 202 497 c 2
 266 643 l 2
 272 656 288 657 292 657 c 0
 312.9 657 330 641.5 330 621 c 0
EndSplineSet
LCarets2: 1 0 
Colour: ff00ff
EndChar

StartChar: uni1E00
Encoding: 7680 7680 129
Width: 699
VWidth: 999
Flags: HW
HStem: -217 32<295.284 365.457> -79 32<295.284 366.2> -5 23<5.63281 58.3144 161.826 220.367 436.633 506.769 639.689 696.367> 246 32<235.325 439.5> 638 20<386 400.682>
VStem: 242.6 40<-175.635 -88.102> 378.6 40<-175.413 -87.748>
DStem2: 109.484 92 147.5 69 0.391092 0.920352<-35.0279 195.03 229.853 516.471> 393.5 658 343.5 555 0.337975 -0.941155<80.0402 373.186 407.189 629.822>
LayerCount: 2
Fore
SplineSet
330.6 -79 m 0
 299.6 -79 282.6 -102 282.6 -132 c 0
 282.6 -160 299.6 -185 330.6 -185 c 0
 361.6 -185 378.6 -160 378.6 -132 c 0
 378.6 -101 360.6 -79 330.6 -79 c 0
242.6 -132 m 0
 242.6 -86 284.6 -47 330.6 -47 c 0
 376.6 -47 418.6 -85 418.6 -132 c 0
 418.6 -177 378.6 -217 330.6 -217 c 0
 284.6 -217 242.6 -178 242.6 -132 c 0
260.5 278 m 2
 439.5 278 l 1
 343.5 555 l 1
 340.5 555 l 1
 235.3 296.3 l 2
 231.1 286.1 238.5 278 260.5 278 c 2
147.5 69 m 2
 131.3 27.3 178.9 20.6 216.5 18 c 1
 222.5 12 222.5 1 216.5 -5 c 1
 179.5 -4 149.5 0 108.5 0 c 0
 69.5 0 46.5 -4 9.5 -5 c 1
 3.5 1 3.5 12 9.5 18 c 1
 53 21 83.7 31.3 109.5 92 c 2
 341.5 638 l 1
 354.5 638 378.5 649 393.5 658 c 1
 602.5 76 l 2
 620.5 25 653.7 21.5 692.5 18 c 1
 698.5 12 698.5 1 692.5 -5 c 1
 655.5 -4 612.5 0 571.5 0 c 0
 532.5 0 477.5 -4 440.5 -5 c 1
 434.5 1 434.5 12 440.5 18 c 1
 488.1 21.4 528.6 21 514.5 62 c 2
 451 246 l 1
 242.5 246 l 2
 218.5 246 212.5 237 207.5 224 c 2
 147.5 69 l 2
EndSplineSet
LCarets2: 1 0 
Colour: ff00ff
EndChar

StartChar: uni1E01
Encoding: 7681 7681 130
Width: 454
VWidth: 999
Flags: HW
HStem: -218 32<188.639 258.812> -80 32<188.639 259.555> -10 41<139.654 240.143 343.315 429.949> 406 33<144.709 258.364>
VStem: 36 83<50.144 160.39> 55 74<295.655 377.387> 136 40<-176.635 -89.102> 272 40<-176.413 -88.748> 293 78<68.9033 233 264.049 372.119>
DStem2: 201 243 214 212 0.971457 0.237216<-61.6983 87.0019>
LayerCount: 2
Fore
SplineSet
224 -80 m 0
 193 -80 176 -103 176 -133 c 0
 176 -161 193 -186 224 -186 c 0
 255 -186 272 -161 272 -133 c 0
 272 -102 254 -80 224 -80 c 0
136 -133 m 0
 136 -87 178 -48 224 -48 c 0
 270 -48 312 -86 312 -133 c 0
 312 -178 272 -218 224 -218 c 0
 178 -218 136 -179 136 -133 c 0
293 212 m 1
 211 192 l 2
 139.8 174.6 115 129.5 115 92 c 0
 115 62 141 20 189 20 c 0
 216 20 250 51 275 71 c 0
 283 77 287.5 83.1 288 95 c 2
 293 212 l 1
288 46 m 1
 286 46 l 1
 267 31 l 2
 225 -1 205 -10 161 -10 c 0
 94 -10 42 15 42 88 c 0
 42 153 106.4 201.4 199 222 c 2
 289 242 l 2
 292 243 294 256 294 263 c 0
 294 371 251 397 219 397 c 0
 183 397 142 382 142 352 c 0
 142 342 143 336 144 333 c 0
 146 329 147 323 147 316 c 0
 147 304 131 279 103 279 c 0
 81 279 65 295 65 318 c 0
 65 369 149 419 227 419 c 0
 297 419 367.7 390.8 363 257 c 2
 358 115 l 2
 356.1 60 361 30 398 30 c 0
 418 30 421 46 427 46 c 0
 431 46 441 40 441 33 c 0
 441 28 407 -10 360 -10 c 0
 309 -10 294 26 288 46 c 1
EndSplineSet
LCarets2: 1 0 
Colour: ff00ff
EndChar

StartChar: uni1E02
Encoding: 7682 7682 131
Width: 584
VWidth: 999
Flags: HW
HStem: -2 33<16.125 89.25 213.037 378.443> 332 34<191.5 352.427> 613 34<16.4238 91.5861 195.034 343.01> 702 104<235.042 317.958>
VStem: 106.5 85<46.5258 332 366 601.619> 224.5 104<712.542 795.458> 407.5 81<427.388 560.634> 454.5 93<98.7984 251.316>
LayerCount: 2
Fore
SplineSet
224 798 m 0
 224 826 248 850 276 850 c 0
 304 850 328 826 328 798 c 0
 328 770 304 746 276 746 c 0
 248 746 224 770 224 798 c 0
187.5 361 m 1
 264.5 361 l 2
 347.5 361 409.5 396 409.5 481 c 0
 409.5 583 333.5 626 277.5 626 c 0
 190.5 626 190 616 189.5 583 c 0
 188.4 512.9 187.7 433.9 187.5 361 c 1
147.5 645 m 0
 190.5 645 237.5 650 272.5 650 c 0
 458.5 650 484.5 560 484.5 493 c 0
 484.5 438.7 442.6 387.4 392.5 362 c 1
 392.5 360 l 1
 479.5 335 543.5 280 543.5 184 c 0
 543.5 98 493.5 -5 294.5 -5 c 0
 205.5 -5 191.5 0 148.5 0 c 0
 97.8 0 68.5 -4 19.5 -5 c 1
 13.5 1 13.5 12 19.5 18 c 1
 89.5 21 104.8 25.3 106.5 109 c 0
 108.2 192 108.5 238 108.5 321 c 0
 108.5 404 107.8 453 106.5 536 c 0
 105.2 618.7 89.5 624 19.5 627 c 1
 13.5 633 13.5 644 19.5 650 c 1
 69.5 649 97.2 645 147.5 645 c 0
189.5 85 m 0
 190.2 52 203.5 18 273.5 18 c 0
 425.5 18 456.5 92 456.5 165 c 0
 456.5 255 396.5 337 259.5 337 c 2
 187.5 337 l 1
 187.5 331.7 187.5 326.5 187.5 321.3 c 0
 187.5 238.3 187.8 168 189.5 85 c 0
EndSplineSet
LCarets2: 1 0 
Colour: ff00ff
EndChar

StartChar: uni1E03
Encoding: 7683 7683 132
Width: 471
VWidth: 999
Flags: HW
HStem: -10 34<186.009 292.19> 395 44<199.559 311.679> 547 98<227.385 305.791> 641 30<10.0654 68.3801> 678 20<135.5 152.5>
VStem: 78 79<47.054 367.15 399 635.885> 219 98<557.729 636.615> 370 86<133.468 324.177>
LayerCount: 2
Fore
SplineSet
218 599 m 0
 218 623 246 647 270 647 c 0
 297 647 318 619 318 595 c 0
 318 573.9 294 547 266 547 c 0
 242 547 218 573 218 599 c 0
166 356 m 0
 154 345 148 336 148 316 c 2
 148 316 148 108 150 58 c 1
 169 34 188 13 218 13 c 0
 309 13 359 105 359 214 c 0
 359 261.5 347.6 308 325.7 340 c 0
 305.2 370 275.1 387 247 387 c 0
 219 387 191 378 166 356 c 0
159 376 m 0
 189 403 225 419 266 419 c 0
 349 419 435 347 435 231 c 0
 435 79 321 -10 224 -10 c 0
 190 -10 158 1 136 19 c 0
 126 28 120 27 110 16 c 0
 103 7 85 -6 79 -11 c 1
 68 -11 69 -8 64 0 c 1
 67 13 75.5 31 77 68 c 0
 79 118 80.2 526 78 576 c 0
 75 644 67 651 17 654 c 1
 11 660 10 665 12 673 c 1
 50 676 117 688 141 698 c 1
 150 698 153 696 153 689 c 2
 153 689 152.5 661 150 599 c 0
 148 549 148 380 148 380 c 2
 148 371 153 371 159 376 c 0
EndSplineSet
LCarets2: 1 0 
Colour: ff00ff
EndChar

StartChar: uni1E04
Encoding: 7684 7684 133
Width: 584
VWidth: 999
Flags: HW
HStem: -208 98<229.885 308.291> -2 33<16.125 89.25 213.037 378.443> 332 34<191.5 352.427> 613 34<16.4238 91.5861 195.034 343.01>
VStem: 106.5 85<46.5258 332 366 601.619> 221.5 98<-197.271 -118.385> 407.5 81<427.388 560.634> 454.5 93<98.7984 251.316>
LayerCount: 2
Fore
SplineSet
220.5 -156 m 0
 220.5 -132 248.5 -108 272.5 -108 c 0
 299.5 -108 320.5 -136 320.5 -160 c 0
 320.5 -181.1 296.5 -208 268.5 -208 c 0
 244.5 -208 220.5 -182 220.5 -156 c 0
187.5 361 m 1
 264.5 361 l 2
 347.5 361 409.5 396 409.5 481 c 0
 409.5 583 333.5 626 277.5 626 c 0
 190.5 626 190 616 189.5 583 c 0
 188.4 512.9 187.7 433.9 187.5 361 c 1
147.5 645 m 0
 190.5 645 237.5 650 272.5 650 c 0
 458.5 650 484.5 560 484.5 493 c 0
 484.5 438.7 442.6 387.4 392.5 362 c 1
 392.5 360 l 1
 479.5 335 543.5 280 543.5 184 c 0
 543.5 98 493.5 -5 294.5 -5 c 0
 205.5 -5 191.5 0 148.5 0 c 0
 97.8 0 68.5 -4 19.5 -5 c 1
 13.5 1 13.5 12 19.5 18 c 1
 89.5 21 104.8 25.3 106.5 109 c 0
 108.2 192 108.5 238 108.5 321 c 0
 108.5 404 107.8 453 106.5 536 c 0
 105.2 618.7 89.5 624 19.5 627 c 1
 13.5 633 13.5 644 19.5 650 c 1
 69.5 649 97.2 645 147.5 645 c 0
189.5 85 m 0
 190.2 52 203.5 18 273.5 18 c 0
 425.5 18 456.5 92 456.5 165 c 0
 456.5 255 396.5 337 259.5 337 c 2
 187.5 337 l 1
 187.5 331.7 187.5 326.5 187.5 321.3 c 0
 187.5 238.3 187.8 168 189.5 85 c 0
EndSplineSet
LCarets2: 1 0 
Colour: ff00ff
EndChar

StartChar: uni1E05
Encoding: 7685 7685 134
Width: 471
VWidth: 999
Flags: HW
HStem: -208 98<184.385 262.791> -10 34<186.009 292.19> 395 44<199.559 311.679> 641 30<10.0654 68.3801> 678 20<135.5 152.5>
VStem: 78 79<47.054 367.15 399 635.885> 176 98<-197.271 -118.385> 370 86<133.468 324.177>
LayerCount: 2
Fore
SplineSet
175 -156 m 0
 175 -132 203 -108 227 -108 c 0
 254 -108 275 -136 275 -160 c 0
 275 -181.1 251 -208 223 -208 c 0
 199 -208 175 -182 175 -156 c 0
166 356 m 0
 154 345 148 336 148 316 c 2
 148 316 148 108 150 58 c 1
 169 34 188 13 218 13 c 0
 309 13 359 105 359 214 c 0
 359 261.5 347.6 308 325.7 340 c 0
 305.2 370 275.1 387 247 387 c 0
 219 387 191 378 166 356 c 0
159 376 m 0
 189 403 225 419 266 419 c 0
 349 419 435 347 435 231 c 0
 435 79 321 -10 224 -10 c 0
 190 -10 158 1 136 19 c 0
 126 28 120 27 110 16 c 0
 103 7 85 -6 79 -11 c 1
 68 -11 69 -8 64 0 c 1
 67 13 75.5 31 77 68 c 0
 79 118 80.2 526 78 576 c 0
 75 644 67 651 17 654 c 1
 11 660 10 665 12 673 c 1
 50 676 117 688 141 698 c 1
 150 698 153 696 153 689 c 2
 153 689 152.5 661 150 599 c 0
 148 549 148 380 148 380 c 2
 148 371 153 371 159 376 c 0
EndSplineSet
LCarets2: 1 0 
Colour: ff00ff
EndChar

StartChar: uni1E06
Encoding: 7686 7686 135
Width: 584
VWidth: 999
Flags: HW
HStem: -131 44<157.558 395.138> -2 33<16.125 89.25 213.037 378.443> 332 34<191.5 352.427> 613 34<16.4238 91.5861 195.034 343.01>
VStem: 106.5 85<46.5258 332 366 601.619> 156.5 240<-130.948 -87> 407.5 81<427.388 560.634> 454.5 93<98.7984 251.316>
LayerCount: 2
Fore
SplineSet
373.5 -131 m 2
 168.5 -131 l 2
 160.5 -131 156.5 -123 156.5 -116 c 0
 156.5 -104 166.5 -87 178.5 -87 c 2
 383.5 -87 l 2
 392.5 -87 396.5 -94 396.5 -101 c 0
 396.5 -113 386.5 -131 373.5 -131 c 2
187.5 361 m 1
 264.5 361 l 2
 347.5 361 409.5 396 409.5 481 c 0
 409.5 583 333.5 626 277.5 626 c 0
 190.5 626 190 616 189.5 583 c 0
 188.4 512.9 187.7 433.9 187.5 361 c 1
147.5 645 m 0
 190.5 645 237.5 650 272.5 650 c 0
 458.5 650 484.5 560 484.5 493 c 0
 484.5 438.7 442.6 387.4 392.5 362 c 1
 392.5 360 l 1
 479.5 335 543.5 280 543.5 184 c 0
 543.5 98 493.5 -5 294.5 -5 c 0
 205.5 -5 191.5 0 148.5 0 c 0
 97.8 0 68.5 -4 19.5 -5 c 1
 13.5 1 13.5 12 19.5 18 c 1
 89.5 21 104.8 25.3 106.5 109 c 0
 108.2 192 108.5 238 108.5 321 c 0
 108.5 404 107.8 453 106.5 536 c 0
 105.2 618.7 89.5 624 19.5 627 c 1
 13.5 633 13.5 644 19.5 650 c 1
 69.5 649 97.2 645 147.5 645 c 0
189.5 85 m 0
 190.2 52 203.5 18 273.5 18 c 0
 425.5 18 456.5 92 456.5 165 c 0
 456.5 255 396.5 337 259.5 337 c 2
 187.5 337 l 1
 187.5 331.7 187.5 326.5 187.5 321.3 c 0
 187.5 238.3 187.8 168 189.5 85 c 0
EndSplineSet
LCarets2: 1 0 
Colour: ff00ff
EndChar

StartChar: uni1E07
Encoding: 7687 7687 136
Width: 471
VWidth: 999
Flags: HW
HStem: -131 44<127.058 364.638> -10 34<186.009 292.19> 395 44<199.559 311.679> 641 30<10.0654 68.3801> 678 20<135.5 152.5>
VStem: 78 79<47.054 367.15 399 635.885> 126 240<-130.948 -87> 370 86<133.468 324.177>
LayerCount: 2
Fore
SplineSet
343 -131 m 2
 138 -131 l 2
 130 -131 126 -123 126 -116 c 0
 126 -104 136 -87 148 -87 c 2
 353 -87 l 2
 362 -87 366 -94 366 -101 c 0
 366 -113 356 -131 343 -131 c 2
166 356 m 0
 154 345 148 336 148 316 c 2
 148 316 148 108 150 58 c 1
 169 34 188 13 218 13 c 0
 309 13 359 105 359 214 c 0
 359 261.5 347.6 308 325.7 340 c 0
 305.2 370 275.1 387 247 387 c 0
 219 387 191 378 166 356 c 0
159 376 m 0
 189 403 225 419 266 419 c 0
 349 419 435 347 435 231 c 0
 435 79 321 -10 224 -10 c 0
 190 -10 158 1 136 19 c 0
 126 28 120 27 110 16 c 0
 103 7 85 -6 79 -11 c 1
 68 -11 69 -8 64 0 c 1
 67 13 75.5 31 77 68 c 0
 79 118 80.2 526 78 576 c 0
 75 644 67 651 17 654 c 1
 11 660 10 665 12 673 c 1
 50 676 117 688 141 698 c 1
 150 698 153 696 153 689 c 2
 153 689 152.5 661 150 599 c 0
 148 549 148 380 148 380 c 2
 148 371 153 371 159 376 c 0
EndSplineSet
LCarets2: 1 0 
Colour: ff00ff
EndChar

StartChar: uni1E08
Encoding: 7688 7688 137
Width: 650
VWidth: 999
Flags: HW
HStem: -200 29<286.047 386.231> -96 32<361.31 391.355> -10 41<268.215 458.261> 621 37<270.584 441.041> 697 122
VStem: 33 91<201.241 442.946> 265 201 396 62<-165.259 -97.4563> 562 33<454.756 496.422>
DStem2: 312 -96 361 -67 0.384615 0.923077<45.6154 104>
LayerCount: 2
Fore
SplineSet
404 819 m 1
 432.6 805.7 453.3 788.3 466 767 c 1
 322 709 l 2
 301 700 289 697 280 697 c 0
 271 697 265 704 265 712 c 0
 265 719 267 724 280 733 c 2
 404 819 l 1
363 -96 m 0
 344 -96 334 -97 318 -102 c 1
 312 -96 l 1
 347.8 -10 l 1
 135 -8.6 37 139.1 37 315 c 0
 37 503.4 164 658 362 658 c 0
 485 658 530 618 581 613 c 1
 591 558 598 510 603 458 c 1
 595.8 453.2 589.2 452.2 580 453 c 1
 554 539 495 631 357 631 c 0
 231.9 631 127 497.9 127 334 c 0
 127 188 205 31 360 31 c 0
 453 31 521 62 592 140 c 1
 603 140 610 134 615 125 c 1
 554.4 45.7 469.3 0.5 382.9 -8.4 c 1
 361 -67 l 1
 369 -65 378 -64 387 -64 c 0
 427 -64 458 -88 458 -126 c 0
 458 -169 412 -200 351 -200 c 0
 319 -200 302 -194 277 -183 c 1
 277 -171 280 -164 287 -157 c 1
 314 -167 325 -171 345 -171 c 0
 375 -171 396 -157 396 -131 c 0
 396 -110 386 -96 363 -96 c 0
EndSplineSet
LCarets2: 1 0 
Colour: ff00ff
EndChar

StartChar: uni1E09
Encoding: 7689 7689 138
Width: 419
VWidth: 999
Flags: HW
HStem: -200 29<151.047 251.231> -96 32<226.31 256.355> -10 49<194.596 322.53> 406 33<186.285 287.961>
VStem: 37 86<123.239 310.572> 261 62<-165.259 -97.4563> 308 87<307.358 390.405>
DStem2: 177 -96 226 -67 0.384615 0.923077<45.6154 104>
LayerCount: 2
Fore
SplineSet
286 619 m 1
 289 620 295 621 300 621 c 0
 306.4 621 332 620 355 598 c 1
 358 587 l 1
 243 478 l 2
 228 463 220 459 213 459 c 0
 206 459 199 465 199 472 c 0
 199 483.2 202.3 487.2 210.4 500 c 2
 286 619 l 1
228 -96 m 0
 209 -96 199 -97 183 -102 c 1
 177 -96 l 1
 213 -9.5 l 1
 102.4 -2.3 35 80.5 35 198 c 0
 35 333 142 419 236 419 c 0
 328 419 388 380 388 328 c 0
 388 298 362 286 342 286 c 0
 322 286 309 293 306 320 c 0
 302.3 353 287 396 231 396 c 0
 168 396 111 324 111 219 c 0
 111 99 175 27 250 27 c 0
 291 27 342 55 374 97 c 1
 383 96 385 96 389 87 c 1
 346.2 17.5 297.9 -5.2 247.5 -9.3 c 1
 226 -67 l 1
 234 -65 243 -64 252 -64 c 0
 292 -64 323 -88 323 -126 c 0
 323 -169 277 -200 216 -200 c 0
 184 -200 167 -194 142 -183 c 1
 142 -171 145 -164 152 -157 c 1
 179 -167 190 -171 210 -171 c 0
 240 -171 261 -157 261 -131 c 0
 261 -110 251 -96 228 -96 c 0
EndSplineSet
LCarets2: 1 0 
Colour: ff00ff
EndChar

StartChar: uni1E0A
Encoding: 7690 7690 139
Width: 705
VWidth: 999
Flags: HW
HStem: -5 24<16.4888 84.7557 227.239 401.619> 626 24<16.4888 84.7557 216.684 366.266> 746 104<248.979 331.896>
VStem: 110 78<42.91 609.13> 238.4 104<756.542 839.458> 579 90<178.393 416.821>
LayerCount: 2
Fore
SplineSet
238.4 798 m 0
 238.4 826 262.4 850 290.4 850 c 0
 318.4 850 342.4 826 342.4 798 c 0
 342.4 770 318.4 746 290.4 746 c 0
 262.4 746 238.4 770 238.4 798 c 0
192 109 m 0
 194 47 201 19 309 19 c 0
 450 19 579 82 579 284 c 0
 579 438 500 626 284 626 c 0
 192 626 194 598 192 536 c 0
 190 452 188 403 188 320 c 0
 188 237 189 191 192 109 c 0
148 645 m 0
 186 645 254 650 322 650 c 0
 514 650 669 494 669 308 c 0
 669 62 481 -5 340 -5 c 0
 237 -5 186 0 150 0 c 0
 99 0 69 -4 20 -5 c 1
 14 1 14 12 20 18 c 1
 90 21 104 26 106 109 c 0
 108 192 110 238 110 321 c 0
 110 404 108 453 106 536 c 0
 104 619 90 624 20 627 c 1
 14 633 14 644 20 650 c 1
 70 649 98 645 148 645 c 0
EndSplineSet
LCarets2: 1 0 
Colour: ff00ff
EndChar

StartChar: uni1E0B
Encoding: 7691 7691 140
Width: 487
VWidth: 999
Flags: HW
HStem: -178 8<-992 -8> 547 98<102.385 180.791> 814 8<-992 -8>
VStem: -1000 8<-170 814> -8 8<-170 814> 94 98<557.729 636.615>
LayerCount: 2
Fore
SplineSet
93 599 m 0
 93 623 121 647 145 647 c 0
 172 647 193 619 193 595 c 0
 193 573.9 169 547 141 547 c 0
 117 547 93 573 93 599 c 0
329 108 m 0
 331 158 331 309 331 309 c 2
 331 339 328 346 315 361 c 0
 296 383 269 395 235 395 c 0
 216 395 171 392 141 347 c 0
 127 327 113 280 113 211 c 0
 113 92 173 25 224 25 c 0
 248 25 279 40 314 71 c 0
 327 83 328.3 90 329 108 c 0
318 48 m 0
 271 10 236 -10 199 -10 c 0
 96 -10 37 77 37 194 c 0
 37 265 62 320 103 361 c 1
 141 397 183 419 246 419 c 0
 277 419 318 402 322 402 c 0
 329 402 331 404 331 411 c 2
 331 411 331 526 329 576 c 0
 325.8 655.9 318 651 268 654 c 1
 262 660 260 665 262 673 c 1
 300 676 366 688 390 698 c 1
 399 698 402 696 402 689 c 2
 402 689 400.5 661 398 599 c 0
 396 549 396 164 398 114 c 0
 399.9 67 407 49 468 44 c 1
 474 38 474 35 468 29 c 1
 410 22 379 7 358 -10 c 1
 350 -12 348 -13 340 -10 c 1
 340 -10 330 24 330 47 c 0
 330 54 323 52 318 48 c 0
EndSplineSet
LCarets2: 1 0 
Colour: ff00ff
EndChar

StartChar: uni1E0C
Encoding: 7692 7692 141
Width: 705
VWidth: 999
Flags: HW
HStem: -208 98<113.822 192.228>
VStem: 105.4 98<-197.271 -118.385>
LayerCount: 2
Fore
SplineSet
104.4 -156 m 0
 104.4 -132 132.4 -108 156.4 -108 c 0
 183.4 -108 204.4 -136 204.4 -160 c 0
 204.4 -181.1 180.4 -208 152.4 -208 c 0
 128.4 -208 104.4 -182 104.4 -156 c 0
192 109 m 0
 194 47 201 19 309 19 c 0
 450 19 579 82 579 284 c 0
 579 438 500 626 284 626 c 0
 192 626 194 598 192 536 c 0
 190 452 188 403 188 320 c 0
 188 237 189 191 192 109 c 0
148 645 m 0
 186 645 254 650 322 650 c 0
 514 650 669 494 669 308 c 0
 669 62 481 -5 340 -5 c 0
 237 -5 186 0 150 0 c 0
 99 0 69 -4 20 -5 c 1
 14 1 14 12 20 18 c 1
 90 21 104 26 106 109 c 0
 108 192 110 238 110 321 c 0
 110 404 108 453 106 536 c 0
 104 619 90 624 20 627 c 1
 14 633 14 644 20 650 c 1
 70 649 98 645 148 645 c 0
EndSplineSet
LCarets2: 1 0 
Colour: ff00ff
EndChar

StartChar: uni1E0D
Encoding: 7693 7693 142
Width: 487
VWidth: 999
Flags: HW
HStem: -208 98<159.385 237.791> -178 8<-992 -8> 814 8<-992 -8>
VStem: -1000 8<-170 814> -8 8<-170 814> 151 98<-197.271 -118.385>
LayerCount: 2
Fore
SplineSet
150 -156 m 0
 150 -132 178 -108 202 -108 c 0
 229 -108 250 -136 250 -160 c 0
 250 -181.1 226 -208 198 -208 c 0
 174 -208 150 -182 150 -156 c 0
329 108 m 0
 331 158 331 309 331 309 c 2
 331 339 328 346 315 361 c 0
 296 383 269 395 235 395 c 0
 216 395 171 392 141 347 c 0
 127 327 113 280 113 211 c 0
 113 92 173 25 224 25 c 0
 248 25 279 40 314 71 c 0
 327 83 328.3 90 329 108 c 0
318 48 m 0
 271 10 236 -10 199 -10 c 0
 96 -10 37 77 37 194 c 0
 37 265 62 320 103 361 c 1
 141 397 183 419 246 419 c 0
 277 419 318 402 322 402 c 0
 329 402 331 404 331 411 c 2
 331 411 331 526 329 576 c 0
 325.8 655.9 318 651 268 654 c 1
 262 660 260 665 262 673 c 1
 300 676 366 688 390 698 c 1
 399 698 402 696 402 689 c 2
 402 689 400.5 661 398 599 c 0
 396 549 396 164 398 114 c 0
 399.9 67 407 49 468 44 c 1
 474 38 474 35 468 29 c 1
 410 22 379 7 358 -10 c 1
 350 -12 348 -13 340 -10 c 1
 340 -10 330 24 330 47 c 0
 330 54 323 52 318 48 c 0
EndSplineSet
LCarets2: 1 0 
Colour: ff00ff
EndChar

StartChar: uni1E0E
Encoding: 7694 7694 143
Width: 705
VWidth: 999
Flags: HW
HStem: -131 44<28.4955 266.076>
VStem: 27.4 240<-130.948 -87>
LayerCount: 2
Fore
SplineSet
244.4 -131 m 2
 39.4 -131 l 2
 31.4 -131 27.4 -123 27.4 -116 c 0
 27.4 -104 37.4 -87 49.4 -87 c 2
 254.4 -87 l 2
 263.4 -87 267.4 -94 267.4 -101 c 0
 267.4 -113 257.4 -131 244.4 -131 c 2
192 109 m 0
 194 47 201 19 309 19 c 0
 450 19 579 82 579 284 c 0
 579 438 500 626 284 626 c 0
 192 626 194 598 192 536 c 0
 190 452 188 403 188 320 c 0
 188 237 189 191 192 109 c 0
148 645 m 0
 186 645 254 650 322 650 c 0
 514 650 669 494 669 308 c 0
 669 62 481 -5 340 -5 c 0
 237 -5 186 0 150 0 c 0
 99 0 69 -4 20 -5 c 1
 14 1 14 12 20 18 c 1
 90 21 104 26 106 109 c 0
 108 192 110 238 110 321 c 0
 110 404 108 453 106 536 c 0
 104 619 90 624 20 627 c 1
 14 633 14 644 20 650 c 1
 70 649 98 645 148 645 c 0
EndSplineSet
LCarets2: 1 0 
Colour: ff00ff
EndChar

StartChar: uni1E0F
Encoding: 7695 7695 144
Width: 487
VWidth: 999
Flags: HW
HStem: -178 8<-992 -8> -131 44<80.058 317.638> 814 8<-992 -8>
VStem: -1000 8<-170 814> -8 8<-170 814> 79 240<-130.948 -87>
LayerCount: 2
Fore
SplineSet
296 -131 m 2
 91 -131 l 2
 83 -131 79 -123 79 -116 c 0
 79 -104 89 -87 101 -87 c 2
 306 -87 l 2
 315 -87 319 -94 319 -101 c 0
 319 -113 309 -131 296 -131 c 2
329 108 m 0
 331 158 331 309 331 309 c 2
 331 339 328 346 315 361 c 0
 296 383 269 395 235 395 c 0
 216 395 171 392 141 347 c 0
 127 327 113 280 113 211 c 0
 113 92 173 25 224 25 c 0
 248 25 279 40 314 71 c 0
 327 83 328.3 90 329 108 c 0
318 48 m 0
 271 10 236 -10 199 -10 c 0
 96 -10 37 77 37 194 c 0
 37 265 62 320 103 361 c 1
 141 397 183 419 246 419 c 0
 277 419 318 402 322 402 c 0
 329 402 331 404 331 411 c 2
 331 411 331 526 329 576 c 0
 325.8 655.9 318 651 268 654 c 1
 262 660 260 665 262 673 c 1
 300 676 366 688 390 698 c 1
 399 698 402 696 402 689 c 2
 402 689 400.5 661 398 599 c 0
 396 549 396 164 398 114 c 0
 399.9 67 407 49 468 44 c 1
 474 38 474 35 468 29 c 1
 410 22 379 7 358 -10 c 1
 350 -12 348 -13 340 -10 c 1
 340 -10 330 24 330 47 c 0
 330 54 323 52 318 48 c 0
EndSplineSet
LCarets2: 1 0 
Colour: ff00ff
EndChar

StartChar: uni1E10
Encoding: 7696 7696 145
Width: 705
VWidth: 999
Flags: HW
HStem: -200 29<71.485 171.669> -96 32<146.748 176.793> -5 24<16.4888 84.7557 227.239 401.619> 626 24<16.4888 84.7557 216.684 366.266>
VStem: 110 78<42.91 609.13> 181.4 62<-165.259 -97.4563> 579 90<178.393 416.821>
DStem2: 97.438 -96 146.438 -67 0.384615 0.923077<45.6154 104>
LayerCount: 2
Fore
SplineSet
298.4 -96 m 0
 279.4 -96 269.4 -97 253.4 -102 c 1
 247.4 -96 l 1
 285.6 -4.5 l 1
 217.8 -3.2 179 0 150 0 c 0
 99 0 69 -4 20 -5 c 1
 14 1 14 12 20 18 c 1
 90 21 104 26 106 109 c 0
 108 192 110 238 110 321 c 0
 110 404 108 453 106 536 c 0
 104 619 90 624 20 627 c 1
 14 633 14 644 20 650 c 1
 70 649 98 645 148 645 c 0
 186 645 254 650 322 650 c 0
 514 650 669 494 669 308 c 0
 669 62 481 -5 340 -5 c 0
 333 -5 326.2 -4.9 319.6 -4.9 c 1
 296.4 -67 l 1
 304.4 -65 313.4 -64 322.4 -64 c 0
 362.4 -64 393.4 -88 393.4 -126 c 0
 393.4 -169 347.4 -200 286.4 -200 c 0
 254.4 -200 237.4 -194 212.4 -183 c 1
 212.4 -171 215.4 -164 222.4 -157 c 1
 249.4 -167 260.4 -171 280.4 -171 c 0
 310.4 -171 331.4 -157 331.4 -131 c 0
 331.4 -110 321.4 -96 298.4 -96 c 0
192 109 m 0
 194 47 201 19 309 19 c 0
 450 19 579 82 579 284 c 0
 579 438 500 626 284 626 c 0
 192 626 194 598 192 536 c 0
 190 452 188 403 188 320 c 0
 188 237 189 191 192 109 c 0
EndSplineSet
LCarets2: 1 0 
Colour: ff00ff
EndChar

StartChar: uni1E11
Encoding: 7697 7697 146
Width: 487
VWidth: 999
Flags: HW
HStem: -200 29<100.047 200.231> -178 8<-992 -8> -96 32<175.31 205.355> 814 8<-992 -8>
VStem: -1000 8<-170 814> -8 8<-170 814> 210 62<-165.259 -97.4563>
DStem2: 126 -96 175 -67 0.384615 0.923077<45.6154 104>
LayerCount: 2
Fore
SplineSet
177 -96 m 0
 158 -96 148 -97 132 -102 c 1
 126 -96 l 1
 163.4 -6.2 l 1
 82.5 11.6 37 91.2 37 194 c 0
 37 265 62 320 103 361 c 1
 141 397 183 419 246 419 c 0
 277 419 318 402 322 402 c 0
 329 402 331 404 331 411 c 2
 331 411 331 526 329 576 c 0
 325.8 655.9 318 651 268 654 c 1
 262 660 260 665 262 673 c 1
 300 676 366 688 390 698 c 1
 399 698 402 696 402 689 c 2
 402 689 400.5 661 398 599 c 0
 396 549 396 164 398 114 c 0
 399.9 67 407 49 468 44 c 1
 474 38 474 35 468 29 c 1
 410 22 379 7 358 -10 c 1
 350 -12 348 -13 340 -10 c 1
 340 -10 330 24 330 47 c 0
 330 54 323 52 318 48 c 0
 271 10 236 -10 199 -10 c 0
 198.1 -10 197.2 -10 196.3 -10 c 2
 175 -67 l 1
 183 -65 192 -64 201 -64 c 0
 241 -64 272 -88 272 -126 c 0
 272 -169 226 -200 165 -200 c 0
 133 -200 116 -194 91 -183 c 1
 91 -171 94 -164 101 -157 c 1
 128 -167 139 -171 159 -171 c 0
 189 -171 210 -157 210 -131 c 0
 210 -110 200 -96 177 -96 c 0
329 108 m 0
 331 158 331 309 331 309 c 2
 331 339 328 346 315 361 c 0
 296 383 269 395 235 395 c 0
 216 395 171 392 141 347 c 0
 127 327 113 280 113 211 c 0
 113 92 173 25 224 25 c 0
 248 25 279 40 314 71 c 0
 327 83 328.3 90 329 108 c 0
EndSplineSet
LCarets2: 1 0 
Colour: ff00ff
EndChar

StartChar: uni1E12
Encoding: 7698 7698 147
Width: 705
VWidth: 999
Flags: HW
HStem: -5 24<16.4888 84.7557 227.239 401.619> 626 24<16.4888 84.7557 216.684 366.266>
VStem: 110 78<42.91 609.13> 154.4 253<-186 -186> 579 90<178.393 416.821>
LayerCount: 2
Fore
SplineSet
297.4 -69 m 1
 326.4 -116 370.4 -169 406.4 -209 c 1
 401.4 -216 392.8 -224.1 383.4 -226 c 1
 345.4 -202 310.4 -174 280.4 -143 c 1
 248.4 -175 215.4 -204 176.4 -226 c 1
 167.4 -224 160.4 -218 154.4 -209 c 1
 190.4 -169 236.4 -115 265.4 -69 c 1
 276.1 -66.7 286.6 -66.5 297.4 -69 c 1
192 109 m 0
 194 47 201 19 309 19 c 0
 450 19 579 82 579 284 c 0
 579 438 500 626 284 626 c 0
 192 626 194 598 192 536 c 0
 190 452 188 403 188 320 c 0
 188 237 189 191 192 109 c 0
148 645 m 0
 186 645 254 650 322 650 c 0
 514 650 669 494 669 308 c 0
 669 62 481 -5 340 -5 c 0
 237 -5 186 0 150 0 c 0
 99 0 69 -4 20 -5 c 1
 14 1 14 12 20 18 c 1
 90 21 104 26 106 109 c 0
 108 192 110 238 110 321 c 0
 110 404 108 453 106 536 c 0
 104 619 90 624 20 627 c 1
 14 633 14 644 20 650 c 1
 70 649 98 645 148 645 c 0
EndSplineSet
LCarets2: 1 0 
Colour: ff00ff
EndChar

StartChar: uni1E13
Encoding: 7699 7699 148
Width: 487
VWidth: 999
Flags: HW
HStem: -178 8<-992 -8> 814 8<-992 -8>
VStem: -1000 8<-170 814> -8 8<-170 814> 54 253<-186 -186>
LayerCount: 2
Fore
SplineSet
197 -69 m 1
 226 -116 270 -169 306 -209 c 1
 301 -216 292.4 -224.1 283 -226 c 1
 245 -202 210 -174 180 -143 c 1
 148 -175 115 -204 76 -226 c 1
 67 -224 60 -218 54 -209 c 1
 90 -169 136 -115 165 -69 c 1
 175.7 -66.7 186.2 -66.5 197 -69 c 1
329 108 m 0
 331 158 331 309 331 309 c 2
 331 339 328 346 315 361 c 0
 296 383 269 395 235 395 c 0
 216 395 171 392 141 347 c 0
 127 327 113 280 113 211 c 0
 113 92 173 25 224 25 c 0
 248 25 279 40 314 71 c 0
 327 83 328.3 90 329 108 c 0
318 48 m 0
 271 10 236 -10 199 -10 c 0
 96 -10 37 77 37 194 c 0
 37 265 62 320 103 361 c 1
 141 397 183 419 246 419 c 0
 277 419 318 402 322 402 c 0
 329 402 331 404 331 411 c 2
 331 411 331 526 329 576 c 0
 325.8 655.9 318 651 268 654 c 1
 262 660 260 665 262 673 c 1
 300 676 366 688 390 698 c 1
 399 698 402 696 402 689 c 2
 402 689 400.5 661 398 599 c 0
 396 549 396 164 398 114 c 0
 399.9 67 407 49 468 44 c 1
 474 38 474 35 468 29 c 1
 410 22 379 7 358 -10 c 1
 350 -12 348 -13 340 -10 c 1
 340 -10 330 24 330 47 c 0
 330 54 323 52 318 48 c 0
EndSplineSet
LCarets2: 1 0 
Colour: ff00ff
EndChar

StartChar: uni1E14
Encoding: 7700 7700 149
Width: 567
VWidth: 999
Flags: HW
HStem: -5 23<16.1328 83.0803> 0 26<199.007 431.875> 328 28<188 375.75> 618 27<199.375 434.686> 627 23<16.1328 83.0803> 632 20<483.5 493.5> 725.5 105.6 755 50<159.33 416.029>
VStem: -53.2 163.2 108 79<30.3808 328 356 614.619> 157.4 261<755.239 805> 396 22<256.032 304.748 375.022 427.968> 494 24<497.515 529.972>
LayerCount: 2
Fore
SplineSet
394.4 705 m 2
 170.4 705 l 2
 161.4 705 157.4 716 157.4 723 c 0
 157.4 735 168.4 755 179.4 755 c 2
 404.4 755 l 2
 414.4 755 418.4 744 418.4 738 c 0
 418.4 726 407.4 705 394.4 705 c 2
304 357 m 2
 389 357.7 393 369 396 424 c 1
 402 430 412 430 418 424 c 1
 417 394 414 371.6 414 338 c 0
 414 307.5 417 295 418 260 c 1
 412 254 402 254 396 260 c 1
 393 305 389 326.3 304 327 c 2
 187 328 l 1
 187 328 186 153 189 69 c 0
 190 42 204 26 226 26 c 2
 382 26 l 2
 458 26 494 98 514 170 c 1
 527 173 528 171 538 165 c 1
 530 114 516 45 502 -5 c 1
 502 -5 422 0 374 0 c 2
 152 0 l 2
 122 0 69 -4 20 -5 c 1
 14 1 14 12 20 18 c 1
 90 21 103 26 106 109 c 0
 108 191 108 238 108 321 c 0
 108 404 108 454 106 536 c 0
 103 619 90 624 20 627 c 1
 14 633 14 644 20 650 c 1
 70 649 120 645 150 645 c 2
 442 645 l 2
 466 645 475 649 492 652 c 0
 495 652 496 651 496 649 c 0
 498 641 513 542 518 501 c 1
 508 496 506 494 494 496 c 1
 472 565 457 618 382 618 c 2
 226 618 l 2
 202 618 190 598 189 574 c 0
 186 492 187 356 187 356 c 1
 304 357 l 2
5.3 831.1 m 1
 98.5 757.2 l 2
 107 750.2 110 744.9 110 738.7 c 0
 110 731.7 104.7 725.5 98.5 725.5 c 0
 92.3 725.5 81.6 728.1 65.4 736 c 2
 -53.2 791.5 l 1
 -39.1 807.1 -21 820.9 5.3 831.1 c 1
EndSplineSet
LCarets2: 1 0 
Colour: ff00ff
EndChar

StartChar: uni1E15
Encoding: 7701 7701 150
Width: 435
VWidth: 999
Flags: HW
HStem: -10 37<193.424 317.5> 230 29<114 320.699> 396 23<190.893 271.698> 560 50<101.891 358.59>
VStem: 35 76<111.738 230 259 294.681> 100 261<560.239 610> 321 76<246 346.741>
LayerCount: 2
Fore
SplineSet
212.2 718.4 m 1
 268.2 605 l 2
 272.2 596 273 589.7 273 583.4 c 0
 273 578.9 267.4 573.5 261 573.5 c 0
 256.2 573.5 250.6 578 237.8 591.5 c 2
 146.6 689.6 l 1
 148.2 699.5 l 1
 154.6 704.9 173 720.2 200.2 720.2 c 0
 204.2 720.2 209 719.3 212.2 718.4 c 1
337 510 m 2
 113 510 l 2
 104 510 100 521 100 528 c 0
 100 540 111 560 122 560 c 2
 347 560 l 2
 357 560 361 549 361 543 c 0
 361 531 350 510 337 510 c 2
114 259 m 1
 307 264 l 2
 317 264.3 321 268 321 277 c 0
 321 357 277 396 231 396 c 0
 195 396 132 367 114 259 c 1
378 89 m 1
 389 88 395 83 398 73 c 1
 360 23 303 -10 231 -10 c 0
 162 -10 112 13 80 51 c 0
 49 87 35 140 35 193 c 0
 35 338 140.9 419 231 419 c 0
 364 419 397 331 397 251 c 0
 397 241 390 234.2 379 234 c 2
 111 230 l 1
 111 175 122 127 141 96 c 0
 171 47 221 27 255 27 c 0
 310 27 343 53 378 89 c 1
EndSplineSet
LCarets2: 1 0 
Colour: ff00ff
EndChar

StartChar: uni1E16
Encoding: 7702 7702 151
Width: 567
VWidth: 999
Flags: HW
HStem: -5 23<16.1328 83.0803> 0 26<199.007 431.875> 328 28<188 375.75> 618 27<199.375 434.686> 627 23<16.1328 83.0803> 632 20<483.5 493.5> 724.5 107.4 755 50<182.33 439.029>
VStem: 108 79<30.3808 328 356 614.619> 180.4 261<755.239 805> 396 22<256.032 304.748 375.022 427.968> 492.5 154.8 494 24<497.515 529.972>
LayerCount: 2
Fore
SplineSet
417.4 705 m 2
 193.4 705 l 2
 184.4 705 180.4 716 180.4 723 c 0
 180.4 735 191.4 755 202.4 755 c 2
 427.4 755 l 2
 437.4 755 441.4 744 441.4 738 c 0
 441.4 726 430.4 705 417.4 705 c 2
304 357 m 2
 389 357.7 393 369 396 424 c 1
 402 430 412 430 418 424 c 1
 417 394 414 371.6 414 338 c 0
 414 307.5 417 295 418 260 c 1
 412 254 402 254 396 260 c 1
 393 305 389 326.3 304 327 c 2
 187 328 l 1
 187 328 186 153 189 69 c 0
 190 42 204 26 226 26 c 2
 382 26 l 2
 458 26 494 98 514 170 c 1
 527 173 528 171 538 165 c 1
 530 114 516 45 502 -5 c 1
 502 -5 422 0 374 0 c 2
 152 0 l 2
 122 0 69 -4 20 -5 c 1
 14 1 14 12 20 18 c 1
 90 21 103 26 106 109 c 0
 108 191 108 238 108 321 c 0
 108 404 108 454 106 536 c 0
 103 619 90 624 20 627 c 1
 14 633 14 644 20 650 c 1
 70 649 120 645 150 645 c 2
 442 645 l 2
 466 645 475 649 492 652 c 0
 495 652 496 651 496 649 c 0
 498 641 513 542 518 501 c 1
 508 496 506 494 494 496 c 1
 472 565 457 618 382 618 c 2
 226 618 l 2
 202 618 190 598 189 574 c 0
 186 492 187 356 187 356 c 1
 304 357 l 2
599.5 831.9 m 1
 621.6 820.2 637.5 804.9 647.3 786.1 c 1
 536.4 735 l 2
 520.2 727.1 511 724.5 504.1 724.5 c 0
 497.2 724.5 492.5 730.7 492.5 737.7 c 0
 492.5 743.9 494.1 748.3 504.1 756.2 c 2
 599.5 831.9 l 1
EndSplineSet
LCarets2: 1 0 
Colour: ff00ff
EndChar

StartChar: uni1E17
Encoding: 7703 7703 152
Width: 435
VWidth: 999
Flags: HW
HStem: -10 49<198.819 330.136> 248 34<124 319.997> 404 33<182.425 285.355> 518 50<101.891 358.59>
VStem: 37 84<130.927 248 282 306.625> 100 261<518.239 568> 320 86<257.5 365.153>
LayerCount: 2
Fore
SplineSet
264.4 712.4 m 1
 266.8 713.3 271.6 714.2 275.6 714.2 c 0
 280.7 714.2 301.2 713.3 319.6 693.5 c 1
 322 683.6 l 1
 230 585.5 l 2
 218 572 211.6 568.4 206 568.4 c 0
 200.4 568.4 194.8 573.8 194.8 580.1 c 0
 194.8 590.2 197.5 593.8 204 605.3 c 2
 264.4 712.4 l 1
337 510 m 2
 113 510 l 2
 104 510 100 521 100 528 c 0
 100 540 111 560 122 560 c 2
 347 560 l 2
 357 560 361 549 361 543 c 0
 361 531 350 510 337 510 c 2
114 259 m 1
 307 264 l 2
 317 264.3 321 268 321 277 c 0
 321 357 277 396 231 396 c 0
 195 396 132 367 114 259 c 1
378 89 m 1
 389 88 395 83 398 73 c 1
 360 23 303 -10 231 -10 c 0
 162 -10 112 13 80 51 c 0
 49 87 35 140 35 193 c 0
 35 338 140.9 419 231 419 c 0
 364 419 397 331 397 251 c 0
 397 241 390 234.2 379 234 c 2
 111 230 l 1
 111 175 122 127 141 96 c 0
 171 47 221 27 255 27 c 0
 310 27 343 53 378 89 c 1
EndSplineSet
LCarets2: 1 0 
Colour: ff00ff
EndChar

StartChar: uni1E18
Encoding: 7704 7704 153
Width: 567
VWidth: 999
Flags: HW
HStem: -5 23<15.6328 83.144> 0 26<200.495 433.219> 328 28<189.5 376.843> 618 27<200.829 435.398> 627 23<15.6328 83.134> 632 20<484 494>
VStem: 106.5 85<30.5385 328 356 614.498> 152.4 253<-186 -186> 396.5 23<256.133 305.939 373.908 427.867> 495.5 23<497.558 529.198> 514.5 25<133.241 168.922>
LayerCount: 2
Fore
SplineSet
295.4 -69 m 1
 324.4 -116 368.4 -169 404.4 -209 c 1
 399.4 -216 390.8 -224.1 381.4 -226 c 1
 343.4 -202 308.4 -174 278.4 -143 c 1
 246.4 -175 213.4 -204 174.4 -226 c 1
 165.4 -224 158.4 -218 152.4 -209 c 1
 188.4 -169 234.4 -115 263.4 -69 c 1
 274.1 -66.7 284.6 -66.5 295.4 -69 c 1
304 357 m 2
 389 357.7 393 369 396 424 c 1
 402 430 412 430 418 424 c 1
 417 394 414 371.6 414 338 c 0
 414 307.5 417 295 418 260 c 1
 412 254 402 254 396 260 c 1
 393 305 389 326.3 304 327 c 2
 187 328 l 1
 187 328 186 153 189 69 c 0
 190 42 204 26 226 26 c 2
 382 26 l 2
 458 26 494 98 514 170 c 1
 527 173 528 171 538 165 c 1
 530 114 516 45 502 -5 c 1
 502 -5 422 0 374 0 c 2
 152 0 l 2
 122 0 69 -4 20 -5 c 1
 14 1 14 12 20 18 c 1
 90 21 103 26 106 109 c 0
 108 191 108 238 108 321 c 0
 108 404 108 454 106 536 c 0
 103 619 90 624 20 627 c 1
 14 633 14 644 20 650 c 1
 70 649 120 645 150 645 c 2
 442 645 l 2
 466 645 475 649 492 652 c 0
 495 652 496 651 496 649 c 0
 498 641 513 542 518 501 c 1
 508 496 506 494 494 496 c 1
 472 565 457 618 382 618 c 2
 226 618 l 2
 202 618 190 598 189 574 c 0
 186 492 187 356 187 356 c 1
 304 357 l 2
EndSplineSet
LCarets2: 1 0 
Colour: ff00ff
EndChar

StartChar: uni1E19
Encoding: 7705 7705 154
Width: 435
VWidth: 999
Flags: HW
HStem: -10 49<198.819 330.136> 248 34<124 319.997> 404 33<182.425 285.355>
VStem: 37 84<130.927 248 282 306.625> 95 253<-186 -186> 320 86<257.5 365.153>
AnchorPoint: "top_akzent" 231 645 basechar 0
LayerCount: 2
Fore
SplineSet
238 -69 m 1
 267 -116 311 -169 347 -209 c 1
 342 -216 333.4 -224.1 324 -226 c 1
 286 -202 251 -174 221 -143 c 1
 189 -175 156 -204 117 -226 c 1
 108 -224 101 -218 95 -209 c 1
 131 -169 177 -115 206 -69 c 1
 216.7 -66.7 227.2 -66.5 238 -69 c 1
114 259 m 1
 307 264 l 2
 317 264.3 321 268 321 277 c 0
 321 357 277 396 231 396 c 0
 195 396 132 367 114 259 c 1
378 89 m 1
 389 88 395 83 398 73 c 1
 360 23 303 -10 231 -10 c 0
 162 -10 112 13 80 51 c 0
 49 87 35 140 35 193 c 0
 35 338 140.9 419 231 419 c 0
 364 419 397 331 397 251 c 0
 397 241 390 234.2 379 234 c 2
 111 230 l 1
 111 175 122 127 141 96 c 0
 171 47 221 27 255 27 c 0
 310 27 343 53 378 89 c 1
EndSplineSet
LCarets2: 1 0 
Colour: ff00ff
EndChar

StartChar: uni1E1A
Encoding: 7706 7706 155
Width: 567
VWidth: 999
Flags: HW
HStem: -164 44<59.439 146.439> -116 46<-58.561 32.439> -77 10 -2 33<-218.936 -145.811> 0 39<-38.842 193.336> 323 38<-43.561 124.761> 605 40<-38.499 163.991> 614 33<-218.303 -145.811>
VStem: -128.6 85<43.3808 323 361 601.619> 138.4 33<251.625 306.925 373.446 432.375> 210.4 33<498.32 539.828> 259.4 35<122.11 168.353>
LayerCount: 2
Fore
SplineSet
330.4 -143 m 0
 352.4 -143 363.4 -133 377.4 -91 c 1
 388.4 -90 398.4 -93 404.4 -97 c 1
 392.4 -157 363.4 -196 317.4 -196 c 0
 295.4 -196 274.4 -178 253.4 -164 c 0
 235.4 -153 216.4 -145 199.4 -145 c 0
 173.4 -145 163.4 -160 153.4 -193 c 1
 142.4 -195 132.4 -194 126.4 -188 c 1
 140.4 -129 163.4 -90 206.4 -90 c 0
 236.4 -90 258.4 -110 278.4 -124 c 0
 294.4 -136 311.4 -143 330.4 -143 c 0
304 357 m 2
 389 357.7 393 369 396 424 c 1
 402 430 412 430 418 424 c 1
 417 394 414 371.6 414 338 c 0
 414 307.5 417 295 418 260 c 1
 412 254 402 254 396 260 c 1
 393 305 389 326.3 304 327 c 2
 187 328 l 1
 187 328 186 153 189 69 c 0
 190 42 204 26 226 26 c 2
 382 26 l 2
 458 26 494 98 514 170 c 1
 527 173 528 171 538 165 c 1
 530 114 516 45 502 -5 c 1
 502 -5 422 0 374 0 c 2
 152 0 l 2
 122 0 69 -4 20 -5 c 1
 14 1 14 12 20 18 c 1
 90 21 103 26 106 109 c 0
 108 191 108 238 108 321 c 0
 108 404 108 454 106 536 c 0
 103 619 90 624 20 627 c 1
 14 633 14 644 20 650 c 1
 70 649 120 645 150 645 c 2
 442 645 l 2
 466 645 475 649 492 652 c 0
 495 652 496 651 496 649 c 0
 498 641 513 542 518 501 c 1
 508 496 506 494 494 496 c 1
 472 565 457 618 382 618 c 2
 226 618 l 2
 202 618 190 598 189 574 c 0
 186 492 187 356 187 356 c 1
 304 357 l 2
EndSplineSet
LCarets2: 1 0 
Colour: ff00ff
EndChar

StartChar: uni1E1B
Encoding: 7707 7707 156
Width: 435
VWidth: 999
Flags: HW
HStem: -162 44<237 324> -114 46<119 210> -75 10 -10 49<198.819 330.136> 248 34<124 319.997> 404 33<182.425 285.355>
VStem: 37 84<130.927 248 282 306.625> 320 86<257.5 365.153>
AnchorPoint: "top_akzent" 231 645 basechar 0
LayerCount: 2
Fore
SplineSet
288 -141 m 0
 310 -141 321 -131 335 -89 c 1
 346 -88 356 -91 362 -95 c 1
 350 -155 321 -194 275 -194 c 0
 253 -194 232 -176 211 -162 c 0
 193 -151 174 -143 157 -143 c 0
 131 -143 121 -158 111 -191 c 1
 100 -193 90 -192 84 -186 c 1
 98 -127 121 -88 164 -88 c 0
 194 -88 216 -108 236 -122 c 0
 252 -134 269 -141 288 -141 c 0
114 259 m 1
 307 264 l 2
 317 264.3 321 268 321 277 c 0
 321 357 277 396 231 396 c 0
 195 396 132 367 114 259 c 1
378 89 m 1
 389 88 395 83 398 73 c 1
 360 23 303 -10 231 -10 c 0
 162 -10 112 13 80 51 c 0
 49 87 35 140 35 193 c 0
 35 338 140.9 419 231 419 c 0
 364 419 397 331 397 251 c 0
 397 241 390 234.2 379 234 c 2
 111 230 l 1
 111 175 122 127 141 96 c 0
 171 47 221 27 255 27 c 0
 310 27 343 53 378 89 c 1
EndSplineSet
LCarets2: 1 0 
Colour: ff00ff
EndChar

StartChar: uni1E1C
Encoding: 7708 7708 157
Width: 567
VWidth: 999
Flags: HW
HStem: -200 29<-46.514 53.67> -96 32<28.749 58.794> -2 33<-218.936 -145.811> 0 39<-38.842 193.336> 323 38<-43.561 124.761> 605 40<-38.499 163.991> 614 33<-218.303 -145.811> 692 52<-4.823 152.927> 785 20<-61.561 -29.561 178.939 210.439>
VStem: -128.6 85<43.3808 323 361 601.619> -61.6 28<780.047 805> 63.4 62<-165.259 -97.4563> 138.4 33<251.625 306.925 373.446 432.375> 182.4 28<779.76 805> 210.4 33<498.32 539.828> 259.4 35<122.11 168.353>
DStem2: -20.561 -96 28.439 -67 0.384615 0.923077<45.6154 104>
LayerCount: 2
Fore
SplineSet
440.4 805 m 1
 434.4 734 370.4 692 304.4 692 c 0
 231.4 692 173.4 735 168.4 805 c 1
 196.4 805 l 1
 204.4 766 251.4 744 304.4 744 c 0
 353.4 744 405.4 766 412.4 805 c 1
 440.4 805 l 1
280.4 -96 m 0
 261.4 -96 251.4 -97 235.4 -102 c 1
 229.4 -96 l 1
 269.4 0 l 1
 152 0 l 2
 122 0 69 -4 20 -5 c 1
 14 1 14 12 20 18 c 1
 90 21 103 26 106 109 c 0
 108 191 108 238 108 321 c 0
 108 404 108 454 106 536 c 0
 103 619 90 624 20 627 c 1
 14 633 14 644 20 650 c 1
 70 649 120 645 150 645 c 2
 442 645 l 2
 466 645 475 649 492 652 c 0
 495 652 496 651 496 649 c 0
 498 641 513 542 518 501 c 1
 508 496 506 494 494 496 c 1
 472 565 457 618 382 618 c 2
 226 618 l 2
 202 618 190 598 189 574 c 0
 186 492 187 356 187 356 c 1
 304 357 l 2
 389 357.7 393 369 396 424 c 1
 402 430 412 430 418 424 c 1
 417 394 414 371.6 414 338 c 0
 414 307.5 417 295 418 260 c 1
 412 254 402 254 396 260 c 1
 393 305 389 326.3 304 327 c 2
 187 328 l 1
 187 328 186 153 189 69 c 0
 190 42 204 26 226 26 c 2
 382 26 l 2
 458 26 494 98 514 170 c 1
 527 173 528 171 538 165 c 1
 530 114 516 45 502 -5 c 1
 502 -5 422 0 374 0 c 2
 303.4 0 l 1
 278.4 -67 l 1
 286.4 -65 295.4 -64 304.4 -64 c 0
 344.4 -64 375.4 -88 375.4 -126 c 0
 375.4 -169 329.4 -200 268.4 -200 c 0
 236.4 -200 219.4 -194 194.4 -183 c 1
 194.4 -171 197.4 -164 204.4 -157 c 1
 231.4 -167 242.4 -171 262.4 -171 c 0
 292.4 -171 313.4 -157 313.4 -131 c 0
 313.4 -110 303.4 -96 280.4 -96 c 0
EndSplineSet
LCarets2: 1 0 
Colour: ff00ff
EndChar

StartChar: uni1E1D
Encoding: 7709 7709 158
Width: 435
VWidth: 999
Flags: HW
HStem: -200 29<152.047 252.231> -96 32<227.31 257.355> -10 49<198.819 330.136> 248 34<124 319.997> 404 33<182.425 285.355> 501 57<155.292 287.981>
VStem: 37 84<130.927 248 282 306.625> 85 27<613.641 639.111> 262 62<-165.259 -97.4563> 320 86<257.5 365.153> 328 27<612.798 639.111>
DStem2: 178 -96 227 -67 0.384615 0.923077<45.6154 104>
LayerCount: 2
Fore
SplineSet
112 629 m 1
 123 576 166 539 220 539 c 0
 272 539 318 571 328 629 c 1
 355 617 l 1
 343 531 279 482 220 482 c 0
 150 482 99 532 85 617 c 1
 112 629 l 1
229 -96 m 0
 210 -96 200 -97 184 -102 c 1
 178 -96 l 1
 214 -9.5 l 1
 153.7 -6 109.3 16.2 80 51 c 0
 49 87 35 140 35 193 c 0
 35 338 140.9 419 231 419 c 0
 364 419 397 331 397 251 c 0
 397 241 390 234.2 379 234 c 2
 111 230 l 1
 111 175 122 127 141 96 c 0
 171 47 221 27 255 27 c 0
 310 27 343 53 378 89 c 1
 389 88 395 83 398 73 c 1
 363.1 27.1 312.3 -4.4 248.5 -9.3 c 1
 227 -67 l 1
 235 -65 244 -64 253 -64 c 0
 293 -64 324 -88 324 -126 c 0
 324 -169 278 -200 217 -200 c 0
 185 -200 168 -194 143 -183 c 1
 143 -171 146 -164 153 -157 c 1
 180 -167 191 -171 211 -171 c 0
 241 -171 262 -157 262 -131 c 0
 262 -110 252 -96 229 -96 c 0
114 259 m 1
 307 264 l 2
 317 264.3 321 268 321 277 c 0
 321 357 277 396 231 396 c 0
 195 396 132 367 114 259 c 1
EndSplineSet
LCarets2: 1 0 
Colour: ff00ff
EndChar

StartChar: uni1E1E
Encoding: 7710 7710 159
Width: 497
VWidth: 999
Flags: HW
HStem: -5 23<15.6328 83.144 222.846 299.3> 318 28<184.5 371.843> 618 27<195.829 400.398> 627 23<15.6328 83.134> 632 20<449 459> 746 104<226.981 309.897>
VStem: 108 79<39.9098 318 346 614.498> 216.4 104<756.542 839.458> 391.5 23<246.133 295.939 363.908 417.867> 460.5 23<497.558 529.198>
LayerCount: 2
Fore
SplineSet
216.4 798 m 0
 216.4 826 240.4 850 268.4 850 c 0
 296.4 850 320.4 826 320.4 798 c 0
 320.4 770 296.4 746 268.4 746 c 0
 240.4 746 216.4 770 216.4 798 c 0
189 109 m 0
 191 26 229 21 299 18 c 1
 305 12 305 1 299 -5 c 1
 250 -4 209.4 0 152 0 c 0
 100.5 0 69 -4 20 -5 c 1
 14 1 14 12 20 18 c 1
 90 21 103 26 106 109 c 0
 108 191 108 238 108 321 c 0
 108 404 108 454 106 536 c 0
 103 619 90 624 20 627 c 1
 14 633 14 644 20 650 c 1
 70 649 150 645 150 645 c 1
 412 645 l 2
 436 645 445 649 462 652 c 0
 465 652 466 651 466 649 c 0
 468 641 483 542 488 501 c 1
 478 496 476 494 464 496 c 1
 442 565 427 618 352 618 c 2
 226 618 l 2
 202 618 190 598 189 574 c 0
 186 492 187 346 187 346 c 1
 304 347 l 2
 389 347.7 393 359 396 414 c 1
 402 420 412 420 418 414 c 1
 417 384 414 361.6 414 328 c 0
 414 297.5 417 285 418 250 c 1
 412 244 402 244 396 250 c 1
 393 295 389 316.3 304 317 c 2
 187 318 l 1
 187 318 186 193 189 109 c 0
EndSplineSet
LCarets2: 1 0 
Colour: ff00ff
EndChar

StartChar: uni1E1F
Encoding: 7711 7711 160
Width: 307
VWidth: 999
Flags: HW
HStem: -2 33<27.625 83.75 189 257.375> 390 39<22.0149 96 175 291> 664 34<214.135 296.557> 755 98<213.385 291.791>
VStem: 96 79<41.1717 390 429 583.188> 205 98<765.729 844.615> 314 81<592.109 651.434>
LayerCount: 2
Fore
SplineSet
204 807 m 0
 204 831 232 855 256 855 c 0
 283 855 304 827 304 803 c 0
 304 781.9 280 755 252 755 c 0
 228 755 204 781 204 807 c 0
95 480 m 0
 92.9 543 105.3 591.8 128.6 627 c 0
 160.4 675 210.9 698 257 698 c 0
 293 698 318 695 343 678 c 1
 363 663 374 646 374 630 c 0
 374 611 349 593 333 593 c 0
 313 593 303 606 295 623 c 1
 282 656 268 676 239 676 c 0
 218.7 676 193 661.9 177.6 611 c 0
 169.5 584.1 165.7 546.9 164 496 c 0
 163.5 479.7 163 447.9 162.8 409 c 1
 267 409 l 2
 272 409 274 407 274 403 c 2
 274 388 l 2
 274 379 262 380 253 380 c 2
 162.7 380 l 1
 162.3 277.3 162.7 143.9 164 104 c 0
 166.6 25 174 22 239 18 c 1
 245 12 245 1 239 -5 c 1
 198 -4 171 0 127 0 c 0
 90 0 73 -4 33 -5 c 1
 27 1 27 12 33 18 c 1
 84 22 92.4 25 95 104 c 0
 96.4 145.5 96.8 280.7 96.3 380 c 1
 29 380 l 2
 25 380 24 381 24 386 c 2
 24 395 l 2
 24 403 29 409 46 409 c 2
 96.1 409 l 1
 95.9 440.3 95.5 465.7 95 480 c 0
EndSplineSet
LCarets2: 1 0 
Colour: ff00ff
EndChar

StartChar: uni1E20
Encoding: 7712 7712 161
Width: 710
VWidth: 999
Flags: HW
HStem: -10 36<157.69 342.712> 271 36<306.374 381.073 484.088 525.834> 621 37<131.999 316.595> 745 50<89.495 346.194>
VStem: -116.4 91<215.673 431.42> 87.6 261<745.239 795> 391.6 85<83.4212 261.003> 434.6 34<457.765 496.593>
LayerCount: 2
Fore
SplineSet
474.6 706 m 2
 250.6 706 l 2
 241.6 706 237.6 717 237.6 724 c 0
 237.6 736 248.6 756 259.6 756 c 2
 484.6 756 l 2
 494.6 756 498.6 745 498.6 739 c 0
 498.6 727 487.6 706 474.6 706 c 2
374 658 m 0
 496 658 532 613 592 613 c 1
 599.2 577 606.2 527.5 614 459 c 1
 606.7 453.5 600 453 590 453 c 1
 564 539 505 631 360 631 c 0
 233 631 119 502 119 327 c 0
 119 195 214 16 392 16 c 0
 446 16 506 42 540 74 c 1
 540 236 l 2
 540 276.1 512.9 279.8 458 284 c 1
 452 290 452 304 458 310 c 1
 505 309 543 305 582 305 c 0
 622 305 635 309 665 310 c 1
 671 304 671 290 665 284 c 1
 636 281 619 271.2 619 236 c 2
 619 111 l 2
 619 100 624 92 635 83 c 1
 567 25 487 -10 369 -10 c 0
 168 -10 32 134 32 307 c 0
 32 527 202 658 374 658 c 0
EndSplineSet
LCarets2: 1 0 
Colour: ff00ff
EndChar

StartChar: uni1E21
Encoding: 7713 7713 162
Width: 483
VWidth: 999
Flags: HW
HStem: -238 37<157.851 315.261> -12 61<179.344 373.711> 136 31<180.365 282.513> 408 31<173.451 274.597> 518 50<112.891 369.59>
VStem: 32 69<-156.932 -59.0721> 60 82<210.83 362.537> 68 53<54.5074 148.273> 111 261<518.239 568> 319 80<209.75 366.205> 417 55<-131.4 -48.4907>
LayerCount: 2
Fore
SplineSet
348 510 m 2
 124 510 l 2
 115 510 111 521 111 528 c 0
 111 540 122 560 133 560 c 2
 358 560 l 2
 368 560 372 549 372 543 c 0
 372 531 361 510 348 510 c 2
307 266 m 0
 307 345 272 396 212 396 c 0
 160 396 132 355 132 288 c 0
 132 227 144 150 224 150 c 0
 259 150 307 177 307 266 c 0
126 -10 m 1
 98 -43 93 -77 93 -109 c 0
 93 -174 147 -221 211 -221 c 0
 297 -221 391 -166 391 -97 c 0
 391 -72 379 -49 342 -28 c 0
 314 -13 282 -11 234 -11 c 0
 221 -11 194 -14 164 -14 c 0
 152 -14 136 -13 126 -10 c 1
423 369 m 0
 413 369 401 378 397 386 c 1
 391 395 385 398 378 398 c 0
 366 398 346 385 339 375 c 1
 367 346 379 321 379 276 c 0
 379 183 303 127 219 127 c 0
 182 127 156 137 133 150 c 1
 122 134 112 113 112 94 c 0
 112 59 148 34 176 34 c 0
 181 34 191 35 205 36 c 0
 228 39 252 41 269 41 c 0
 304 41 371 40 408 9 c 0
 436 -14 450 -41 450 -72 c 0
 450 -175 311 -246 182 -246 c 0
 109 -246 29 -211 29 -128 c 0
 29 -87 58 -34 109 -3 c 1
 80 7 55 31 55 71 c 0
 55 112 80 144 107 167 c 1
 80 193 60 223 60 274 c 0
 60 362 135 419 220 419 c 0
 276 419 308 400 319 392 c 1
 344 424 390 440 415 440 c 0
 441 440 459 425 459 405 c 0
 459 386 441 369 423 369 c 0
EndSplineSet
LCarets2: 1 0 
Colour: ff00ff
EndChar

StartChar: uni1E22
Encoding: 7714 7714 163
Width: 729
VWidth: 999
Flags: HW
HStem: -35.5 7.9<7.959 145.378 149.779 289.67 434.959 572.378 576.779 716.67> -30.7 8<11.048 286.983 438.048 713.983> -5 23<15.633 83.311 214.694 282.368 442.633 510.311 641.694 709.368> 41.4 7.8<5.942 49.666 249.503 291.364 432.942 476.666 676.503 718.364> 295 8<219.499 505.533> 326 32<188.546 536.426> 381 8<219.721 505.678> 596.2 7.8<7.481 49.247 249.388 292.903 434.481 476.248 676.388 719.903> 627 23<15.633 83.311 214.842 282.368 442.633 510.311 641.842 709.368> 668 8<11.846 287.809 438.846 714.809> 673 8.1<9.174 149.066 153.467 290.886 436.175 576.066 580.467 717.886> 701 104<197.48 280.396>
VStem: 78.5 8<84.4885 563.687> 106.5 85<30.3891 326 358 614.607> 186.9 104<711.542 794.458> 211.5 8<88.0471 295 389 545.096> 504.5 8<79.7108 295 389 568.219> 533.5 85<30.3891 326 358 614.607> 638.5 8<88.0471 545.096>
LayerCount: 2
Fore
SplineSet
316.9 911 m 0
 316.9 939 340.9 963 368.9 963 c 0
 396.9 963 420.9 939 420.9 911 c 0
 420.9 883 396.9 859 368.9 859 c 0
 340.9 859 316.9 883 316.9 911 c 0
191 109 m 0
 193 26 207 21 277 18 c 1
 283 12 283 1 277 -5 c 1
 227 -4 199 0 149 0 c 0
 98 0 69 -4 20 -5 c 1
 14 1 14 12 20 18 c 1
 90 21 104 26 106 109 c 0
 108 192 110 238 110 321 c 0
 110 404 108 453 106 536 c 0
 104 619 90 624 20 627 c 1
 14 633 14 644 20 650 c 1
 70 649 97 645 147 645 c 0
 198 645 228 649 277 650 c 1
 283 644 283 633 277 627 c 1
 207 624 193 619 191 536 c 0
 189 466 188 425 188 362 c 1
 195 357 292 355 352 355 c 0
 412 355 529 356 536 362 c 1
 536 424 536 466 534 536 c 0
 532 619 516 624 446 627 c 1
 440 633 440 644 446 650 c 1
 496 649 525 645 575 645 c 0
 626 645 656 649 705 650 c 1
 711 644 711 633 705 627 c 1
 635 624 619 619 617 536 c 0
 615 452 615 403 615 320 c 0
 615 237 615 191 617 109 c 0
 619 26 635 21 705 18 c 1
 711 12 711 1 705 -5 c 1
 655 -4 625 0 575 0 c 0
 524 0 495 -4 446 -5 c 1
 440 1 440 12 446 18 c 1
 516 21 532 26 534 109 c 0
 536 184 535 253 536 322 c 1
 524 328 411 329 351 329 c 0
 291 329 199 327 188 322 c 1
 188 242 189 193 191 109 c 0
EndSplineSet
LCarets2: 1 0 
Colour: ff00ff
EndChar

StartChar: uni1E23
Encoding: 7715 7715 164
Width: 511
VWidth: 999
Flags: HW
HStem: -2 33<14.8555 74.8652 177.846 230.145 312.188 364.637 469.435 525.812> 387 52<251.766 355.581> 547 98<247.385 325.791> 641 30<20.0654 78.3801> 678 20<145.5 162.5>
VStem: 88 79<40.3963 331.447 358 635.885> 239 98<557.729 636.615> 377 79<40.3691 365.453>
LayerCount: 2
Fore
SplineSet
238 599 m 0
 238 623 266 647 290 647 c 0
 317 647 338 619 338 595 c 0
 338 573.9 314 547 286 547 c 0
 262 547 238 573 238 599 c 0
157 273 m 2
 157 273 157 154 159 104 c 0
 162.2 25.1 168 22 216 18 c 1
 222 12 222 1 216 -5 c 1
 176 -4 162 0 125 0 c 0
 84 0 62 -4 23 -5 c 1
 17 1 17 12 23 18 c 1
 78 22 87.4 25 90 104 c 0
 92 164 92 516 90 576 c 0
 87.3 656 79 651 29 654 c 1
 23 660 21 665 23 673 c 1
 61 676 127 688 151 698 c 1
 160 698 163 696 163 689 c 0
 161.4 653.9 161.5 661 159 599 c 0
 157 549 156 341 156 341 c 2
 156 328 163 337 166 341 c 0
 224 406 283 419 330 419 c 0
 363 419 393 407 409 386 c 0
 431 357 434.1 310 432 258 c 0
 430 208 430 154 432 104 c 0
 435.1 26.1 443 23 496 18 c 1
 501 12 501 1 496 -5 c 1
 455 -4 437 0 398 0 c 0
 360 0 343 -4 303 -5 c 1
 298 1 298 12 303 18 c 1
 353 23 358.9 26.1 362 104 c 0
 364 154 364 211 362 261 c 0
 360.8 290 358 336 348 355 c 0
 337 377 316 389 297 389 c 0
 259 389 209 349 173 313 c 0
 165 305 157 293 157 273 c 2
EndSplineSet
LCarets2: 1 0 
Colour: ff00ff
EndChar

StartChar: uni1E24
Encoding: 7716 7716 165
Width: 729
VWidth: 999
Flags: HW
HStem: -208 98<196.323 274.729> -35.5 7.9<7.959 145.378 149.779 289.67 434.959 572.378 576.779 716.67> -30.7 8<11.048 286.983 438.048 713.983> -5 23<15.633 83.311 214.694 282.368 442.633 510.311 641.694 709.368> 41.4 7.8<5.942 49.666 249.503 291.364 432.942 476.666 676.503 718.364> 295 8<219.499 505.533> 326 32<188.546 536.426> 381 8<219.721 505.678> 596.2 7.8<7.481 49.247 249.388 292.903 434.481 476.248 676.388 719.903> 627 23<15.633 83.311 214.842 282.368 442.633 510.311 641.842 709.368> 668 8<11.846 287.809 438.846 714.809> 673 8.1<9.174 149.066 153.467 290.886 436.175 576.066 580.467 717.886>
VStem: 78.5 8<84.4885 563.687> 106.5 85<30.3891 326 358 614.607> 187.9 98<-197.271 -118.385> 211.5 8<88.0471 295 389 545.096> 504.5 8<79.7108 295 389 568.219> 533.5 85<30.3891 326 358 614.607> 638.5 8<88.0471 545.096>
LayerCount: 2
Fore
SplineSet
191 109 m 0
 193 26 207 21 277 18 c 1
 283 12 283 1 277 -5 c 1
 227 -4 199 0 149 0 c 0
 98 0 69 -4 20 -5 c 1
 14 1 14 12 20 18 c 1
 90 21 104 26 106 109 c 0
 108 192 110 238 110 321 c 0
 110 404 108 453 106 536 c 0
 104 619 90 624 20 627 c 1
 14 633 14 644 20 650 c 1
 70 649 97 645 147 645 c 0
 198 645 228 649 277 650 c 1
 283 644 283 633 277 627 c 1
 207 624 193 619 191 536 c 0
 189 466 188 425 188 362 c 1
 195 357 292 355 352 355 c 0
 412 355 529 356 536 362 c 1
 536 424 536 466 534 536 c 0
 532 619 516 624 446 627 c 1
 440 633 440 644 446 650 c 1
 496 649 525 645 575 645 c 0
 626 645 656 649 705 650 c 1
 711 644 711 633 705 627 c 1
 635 624 619 619 617 536 c 0
 615 452 615 403 615 320 c 0
 615 237 615 191 617 109 c 0
 619 26 635 21 705 18 c 1
 711 12 711 1 705 -5 c 1
 655 -4 625 0 575 0 c 0
 524 0 495 -4 446 -5 c 1
 440 1 440 12 446 18 c 1
 516 21 532 26 534 109 c 0
 536 184 535 253 536 322 c 1
 524 328 411 329 351 329 c 0
 291 329 199 327 188 322 c 1
 188 242 189 193 191 109 c 0
296.9 -156 m 0
 296.9 -132 324.9 -108 348.9 -108 c 0
 375.9 -108 396.9 -136 396.9 -160 c 0
 396.9 -181.1 372.9 -208 344.9 -208 c 0
 320.9 -208 296.9 -182 296.9 -156 c 0
EndSplineSet
LCarets2: 1 0 
Colour: ff00ff
EndChar

StartChar: uni1E25
Encoding: 7717 7717 166
Width: 511
VWidth: 999
Flags: HW
HStem: -209 98<219.385 297.791> -2 33<14.8555 74.8652 177.846 230.145 312.188 364.637 469.435 525.812> 387 52<251.766 355.581> 641 30<20.0654 78.3801> 678 20<145.5 162.5>
VStem: 88 79<40.3963 331.447 358 635.885> 211 98<-198.271 -119.385> 377 79<40.3691 365.453>
LayerCount: 2
Fore
SplineSet
210 -157 m 0
 210 -133 238 -109 262 -109 c 0
 289 -109 310 -137 310 -161 c 0
 310 -182.1 286 -209 258 -209 c 0
 234 -209 210 -183 210 -157 c 0
157 273 m 2
 157 273 157 154 159 104 c 0
 162.2 25.1 168 22 216 18 c 1
 222 12 222 1 216 -5 c 1
 176 -4 162 0 125 0 c 0
 84 0 62 -4 23 -5 c 1
 17 1 17 12 23 18 c 1
 78 22 87.4 25 90 104 c 0
 92 164 92 516 90 576 c 0
 87.3 656 79 651 29 654 c 1
 23 660 21 665 23 673 c 1
 61 676 127 688 151 698 c 1
 160 698 163 696 163 689 c 0
 161.4 653.9 161.5 661 159 599 c 0
 157 549 156 341 156 341 c 2
 156 328 163 337 166 341 c 0
 224 406 283 419 330 419 c 0
 363 419 393 407 409 386 c 0
 431 357 434.1 310 432 258 c 0
 430 208 430 154 432 104 c 0
 435.1 26.1 443 23 496 18 c 1
 501 12 501 1 496 -5 c 1
 455 -4 437 0 398 0 c 0
 360 0 343 -4 303 -5 c 1
 298 1 298 12 303 18 c 1
 353 23 358.9 26.1 362 104 c 0
 364 154 364 211 362 261 c 0
 360.8 290 358 336 348 355 c 0
 337 377 316 389 297 389 c 0
 259 389 209 349 173 313 c 0
 165 305 157 293 157 273 c 2
EndSplineSet
LCarets2: 1 0 
Colour: ff00ff
EndChar

